<svg version="1.1" id="Layer_1" xmlns="http://www.w3.org/2000/svg" xmlns:xlink="http://www.w3.org/1999/xlink" x="0px" y="0px"
	 width="100%" viewBox="0 0 512 512" enable-background="new 0 0 512 512" xml:space="preserve">
<path opacity="0" stroke="none" 
	d="
M513.000000,184.000000 
	C513.000000,293.973267 513.000000,403.446533 513.000000,512.959900 
	C342.401733,512.959900 171.803436,512.959900 1.102575,512.959900 
	C1.102575,342.443420 1.102575,171.886780 1.102575,1.165060 
	C171.666534,1.165060 342.333252,1.165060 513.000000,1.165060 
	C513.000000,61.863194 513.000000,122.681595 513.000000,184.000000 
M489.904999,48.992512 
	C494.808838,48.992512 499.712646,48.992512 504.643646,48.992512 
	C504.643646,43.343872 504.643646,38.325489 504.643646,33.033997 
	C499.181366,33.033997 494.072815,33.033997 488.992523,32.095020 
	C488.992523,27.191311 488.992523,22.287601 488.992523,17.355982 
	C483.344421,17.355982 478.326202,17.355982 473.035736,17.355982 
	C473.035736,22.817562 473.035736,27.925795 472.095825,33.007023 
	C467.191956,33.007023 462.288055,33.007023 457.355865,33.007023 
	C457.355865,38.655197 457.355865,43.673489 457.355865,48.964256 
	C462.817383,48.964256 467.925690,48.964256 473.006989,49.904190 
	C473.006989,54.808178 473.006989,59.712162 473.006989,64.643738 
	C478.653839,64.643738 483.674744,64.643738 488.966034,64.643738 
	C488.966034,59.181492 488.966034,54.072876 489.904999,48.992512 
M49.904972,480.992523 
	C54.808788,480.992523 59.712601,480.992523 64.643646,480.992523 
	C64.643646,475.345825 64.643646,470.324982 64.643646,465.033966 
	C59.181362,465.033966 54.072811,465.033966 48.992512,464.095001 
	C48.992512,459.191284 48.992512,454.287567 48.992512,449.355957 
	C43.344456,449.355957 38.326233,449.355957 33.035744,449.355957 
	C33.035744,454.816467 33.035744,459.925232 32.095810,465.006989 
	C27.191929,465.006989 22.288050,465.006989 17.355888,465.006989 
	C17.355888,470.653290 17.355888,475.673981 17.355888,480.964264 
	C22.817434,480.964264 27.925732,480.964264 33.007023,481.904175 
	C33.007023,486.808167 33.007023,491.712158 33.007023,496.643738 
	C38.653843,496.643738 43.674721,496.643738 48.965996,496.643738 
	C48.965996,491.181488 48.965996,486.072876 49.904972,480.992523 
M360.215759,358.463898 
	C362.822632,354.611298 365.429504,350.758698 368.692566,347.164246 
	C370.481598,348.461060 372.270630,349.757874 374.496490,351.371338 
	C376.359924,348.703033 378.248016,346.179840 379.945770,343.534454 
	C385.031738,335.609772 386.086487,337.276398 378.218414,331.458618 
	C380.490540,327.276459 382.762665,323.094330 385.705231,319.172302 
	C388.007446,320.397034 390.309631,321.621735 392.631653,322.856995 
	C395.316711,317.363525 397.875305,312.128876 400.419403,306.923767 
	C397.937988,305.463013 395.940338,304.287048 393.984283,302.340942 
	C395.678192,298.167908 397.372101,293.994873 399.851776,289.943512 
	C402.359680,290.736389 404.867554,291.529266 407.274109,292.290100 
	C408.172668,290.167511 408.847961,288.586578 409.511627,287.000763 
	C410.244171,285.250336 410.977051,283.499908 411.690643,281.741730 
	C413.914673,276.262024 413.675629,275.751160 408.088623,274.035217 
	C407.338287,273.804779 406.572144,273.625885 406.121979,272.691742 
	C407.752594,267.492462 409.383209,262.293152 411.824188,256.994537 
	C416.331390,255.046661 421.546600,253.968369 425.210693,250.985001 
	C435.484955,242.619568 437.206238,223.025436 423.005249,211.957794 
	C423.675385,206.356888 424.345520,200.755981 425.854034,195.020203 
	C428.110870,195.413422 430.367706,195.806625 432.703918,196.213669 
	C432.703918,189.726562 432.703918,183.893723 432.703918,177.903122 
	C429.936584,177.903122 427.474701,177.903122 425.003143,176.984741 
	C425.007324,172.377884 425.011505,167.771027 425.761841,162.797607 
	C427.753174,162.381729 429.744507,161.965851 432.261047,161.440292 
	C431.845947,158.787506 431.284607,156.124390 431.034149,153.432358 
	C430.159698,144.032471 430.200531,144.028671 421.064850,144.585388 
	C420.024231,140.020355 418.983582,135.455338 418.277863,130.218307 
	C420.522614,129.500885 422.767365,128.783463 424.821381,128.126999 
	C423.362946,124.583130 422.107941,121.492195 420.821136,118.414551 
	C417.080261,109.467735 418.143463,111.164696 409.946655,114.343941 
	C407.636688,109.985016 405.326721,105.626091 403.704681,101.022011 
	C405.841095,99.623474 407.977539,98.224937 409.974426,96.917755 
	C407.169250,93.081238 404.389282,89.677544 402.067688,85.985603 
	C399.980255,82.666061 398.052277,81.843933 395.308472,85.129532 
	C394.690460,85.869530 393.845032,86.419609 392.533539,86.691322 
	C389.312744,83.110069 386.091949,79.528816 383.126801,75.316292 
	C385.043427,73.799911 386.960052,72.283539 389.287506,70.442123 
	C383.791351,65.596649 379.325226,61.659256 376.336578,59.024426 
	C373.926147,60.586254 372.018677,61.822186 369.401581,62.969273 
	C365.569061,60.300495 361.736572,57.631714 358.163483,54.306049 
	C359.417175,52.344929 360.670837,50.383808 362.156891,48.059189 
	C356.849915,44.857143 351.753510,41.782154 346.887604,38.846230 
	C345.281403,41.276482 344.056427,43.129951 342.129059,44.908283 
	C337.776917,42.935204 333.424805,40.962120 329.200745,38.281013 
	C330.199280,36.372379 331.197784,34.463745 332.172058,32.601501 
	C331.499634,31.981659 331.194244,31.500463 330.768036,31.339987 
	C328.254517,30.393515 325.675903,29.613173 323.187592,28.607714 
	C315.414215,25.466736 315.426056,25.437441 312.091949,32.896339 
	C307.423340,31.593761 302.754761,30.291183 298.020355,28.188286 
	C298.569824,25.891491 299.119293,23.594696 299.674164,21.275427 
	C293.879303,20.323086 288.100494,19.373383 282.030151,18.375767 
	C281.630310,20.942791 281.237671,23.463604 279.997772,25.995569 
	C275.053894,25.657778 270.110046,25.319988 265.014832,24.211994 
	C264.980011,19.866482 262.402161,17.049692 258.484863,17.142500 
	C247.642746,17.399368 236.683578,17.515936 226.016953,19.225002 
	C210.962402,21.637127 196.310760,25.744963 182.114471,31.798094 
	C163.779999,39.615685 147.102478,49.840164 132.475662,63.183609 
	C114.600304,79.490547 100.907204,98.862419 91.827545,121.470657 
	C86.192169,135.502655 82.226562,150.046738 81.254967,164.948929 
	C79.940681,185.107040 81.574989,205.162613 85.730202,225.179611 
	C91.616554,253.536026 101.341454,280.406281 113.249786,306.613220 
	C123.298317,328.727234 137.220734,348.502808 150.862000,368.462097 
	C160.281082,382.243622 169.699173,396.121857 174.115921,412.562317 
	C175.141083,416.378326 178.232208,420.511719 173.489670,424.006775 
	C165.262909,430.069519 164.584290,447.552429 171.673050,455.358521 
	C170.406555,457.097382 168.912155,458.677155 167.956833,460.534271 
	C158.962250,478.019226 169.406921,497.643982 189.885880,497.858337 
	C234.544876,498.325775 279.212799,498.107574 323.875092,497.840179 
	C328.326935,497.813507 333.200409,496.310181 337.131927,494.140076 
	C351.523132,486.196411 353.184235,466.122070 342.280273,455.356232 
	C346.440033,450.420898 347.047852,444.633484 347.107117,438.424774 
	C347.191956,429.536743 338.762726,419.899048 330.109528,417.084381 
	C331.409302,412.054626 332.709106,407.024841 334.721527,402.187439 
	C336.970032,403.199280 339.218536,404.211151 341.915833,405.424988 
	C344.364014,400.138947 346.606964,395.296051 348.876617,390.395447 
	C346.207581,389.013824 343.670135,387.700378 341.872864,386.095123 
	C344.608093,382.048553 347.343353,378.002014 350.732574,374.199341 
	C352.673340,375.469421 354.614105,376.739471 356.641937,378.066498 
	C359.944946,373.095581 363.040649,368.436707 366.026459,363.943176 
	C363.880188,362.237915 361.911499,360.673737 360.215759,358.463898 
z"/>
<path fill="#020101" opacity="1.000000" stroke="none" 
	d="
M423.017914,212.833618 
	C437.206238,223.025436 435.484955,242.619568 425.210693,250.985001 
	C421.546600,253.968369 416.331390,255.046661 411.018799,256.897034 
	C400.230530,256.723358 392.778748,252.492508 387.762299,243.710861 
	C386.965546,242.316040 384.500000,241.142807 382.787842,241.117935 
	C368.635101,240.912445 354.478149,240.993362 340.322479,241.018341 
	C339.233093,241.020264 338.144135,241.256958 337.001587,241.390762 
	C337.001587,245.879028 337.019318,250.039001 336.997772,254.198761 
	C336.956604,262.153992 334.131622,264.974854 326.130463,264.995697 
	C316.526947,265.020660 306.923309,265.001587 297.252319,265.001587 
	C297.252319,270.558807 297.252319,275.625916 297.252319,281.000122 
	C304.960907,281.000122 312.424530,280.900879 319.884094,281.032288 
	C325.619934,281.133301 328.791351,284.347595 328.976288,290.058899 
	C329.100189,293.885254 329.155243,297.726990 328.954163,301.546722 
	C328.784271,304.773254 329.475037,306.701538 332.773499,308.466553 
	C342.083710,313.448456 346.720062,325.008636 344.137604,334.902985 
	C341.539734,344.856384 332.174500,352.556366 322.138702,352.990204 
	C311.876373,353.433868 301.586975,346.389648 298.251404,336.636688 
	C294.944397,326.967377 298.566864,314.793457 307.821686,309.562805 
	C313.538727,306.331696 313.431122,302.425476 312.688049,297.001526 
	C305.557129,297.001526 298.441101,297.037750 291.325623,296.991455 
	C284.002869,296.943848 281.054901,293.989197 281.008270,286.653992 
	C280.963104,279.546082 280.998444,272.437653 280.998444,265.246033 
	C275.454498,265.246033 270.387299,265.246033 265.324402,265.246033 
	C265.324402,316.013824 265.324402,366.537140 265.324402,417.846436 
	C287.103790,417.846436 308.560272,417.846436 330.016724,417.846436 
	C338.762726,419.899048 347.191956,429.536743 347.107117,438.424774 
	C347.047852,444.633484 346.440033,450.420898 342.280273,455.356232 
	C353.184235,466.122070 351.523132,486.196411 337.131927,494.140076 
	C333.200409,496.310181 328.326935,497.813507 323.875092,497.840179 
	C279.212799,498.107574 234.544876,498.325775 189.885880,497.858337 
	C169.406921,497.643982 158.962250,478.019226 167.956833,460.534271 
	C168.912155,458.677155 170.406555,457.097382 171.673050,455.358521 
	C164.584290,447.552429 165.262909,430.069519 173.489670,424.006775 
	C178.232208,420.511719 175.141083,416.378326 174.115921,412.562317 
	C169.699173,396.121857 160.281082,382.243622 150.862000,368.462097 
	C137.220734,348.502808 123.298317,328.727234 113.249786,306.613220 
	C101.341454,280.406281 91.616554,253.536026 85.730202,225.179611 
	C81.574989,205.162613 79.940681,185.107040 81.254967,164.948929 
	C82.226562,150.046738 86.192169,135.502655 91.827545,121.470657 
	C100.907204,98.862419 114.600304,79.490547 132.475662,63.183609 
	C147.102478,49.840164 163.779999,39.615685 182.114471,31.798094 
	C196.310760,25.744963 210.962402,21.637127 226.016953,19.225002 
	C236.683578,17.515936 247.642746,17.399368 258.484863,17.142500 
	C262.402161,17.049692 264.980011,19.866482 265.014618,25.061464 
	C265.014404,68.175957 265.014404,110.440979 265.014404,152.730698 
	C275.922791,152.730698 286.325134,152.730698 296.999146,152.730698 
	C296.999146,140.160858 296.930511,127.857147 297.051941,115.555321 
	C297.079163,112.800766 296.437286,111.265152 293.743774,109.834846 
	C284.684784,105.024338 279.491119,93.910553 281.418701,84.609146 
	C283.510895,74.513634 292.323730,66.286255 302.310394,65.105385 
	C312.264252,63.928383 322.607971,69.976265 326.935150,79.503281 
	C331.058594,88.581581 329.240143,100.762871 320.444550,106.460815 
	C313.008545,111.278038 312.656250,116.961838 312.927856,124.164665 
	C313.241638,132.484863 312.987915,140.826019 313.014862,149.157959 
	C313.018921,150.414902 313.209106,151.671265 313.319214,153.000443 
	C318.366272,153.000443 323.028931,152.912781 327.686981,153.022232 
	C333.757233,153.164841 336.845306,156.274048 336.978760,162.371933 
	C337.083252,167.147141 336.999664,171.926483 336.999664,176.737961 
	C345.241058,176.737961 352.977051,176.737961 360.999146,176.737961 
	C360.999146,169.511337 360.896912,162.539856 361.050049,155.573975 
	C361.110352,152.831085 360.473358,151.277771 357.761047,149.840530 
	C348.690704,145.034149 343.494232,133.928345 345.414093,124.626602 
	C347.619781,113.939644 357.247742,105.500252 367.789185,105.013641 
	C378.470520,104.520569 389.000000,112.037323 391.978333,122.281708 
	C394.957092,132.527603 390.303314,144.414276 380.607758,149.625809 
	C377.507050,151.292511 376.887817,153.069733 376.944824,156.146149 
	C377.105286,164.808487 377.020477,173.475800 376.995056,182.141037 
	C376.971588,190.139542 374.150818,192.972443 366.175446,192.994553 
	C356.563507,193.021210 346.951385,193.000870 337.244263,193.000870 
	C337.244263,203.871399 337.244263,214.273392 337.244263,224.996994 
	C353.114563,224.996994 368.744354,225.056122 384.371399,224.875519 
	C385.519806,224.862244 387.041901,223.341248 387.720764,222.142166 
	C391.562134,215.357086 397.169250,210.232162 404.807922,209.760727 
	C410.791901,209.391418 416.941742,211.709503 423.017914,212.833618 
M180.461945,137.368774 
	C184.568359,135.936310 186.431717,133.536774 184.349548,129.101196 
	C183.437927,127.159203 182.854599,125.043411 182.294464,122.960228 
	C181.140198,118.667473 182.057312,114.990761 185.990891,112.515106 
	C191.334366,109.152115 196.577728,105.578606 202.154404,102.647949 
	C214.802200,96.001289 214.807938,96.201630 224.716934,106.655502 
	C225.915298,107.919762 228.519424,108.895149 230.071564,108.485832 
	C231.612061,108.079605 233.593857,105.846268 233.746674,104.256973 
	C234.617889,95.195938 238.015930,88.952980 248.303741,89.098495 
	C248.445236,89.100494 248.589005,88.939659 248.778854,88.826805 
	C248.778854,70.567886 248.778854,52.281750 248.778854,33.819630 
	C247.603668,33.819630 246.643494,33.766376 245.690613,33.827297 
	C206.668472,36.322247 171.927185,49.560272 143.118698,76.309853 
	C110.625992,106.480354 95.159027,144.029831 97.419197,188.464645 
	C98.852303,216.639389 106.324928,243.523758 115.897522,269.907959 
	C127.277626,301.274078 143.685181,329.832245 163.068024,356.903351 
	C176.139145,375.159241 188.326614,394.070221 192.269363,416.850861 
	C211.301834,416.850861 230.018356,416.850861 248.998291,416.850861 
	C248.998291,388.707458 248.998291,360.900238 248.998291,333.093018 
	C248.998291,331.772736 248.998291,330.452423 248.998291,329.111053 
	C248.122894,328.835297 247.508759,328.560486 246.866486,328.451660 
	C236.745758,326.736481 236.681595,326.685638 234.457474,316.658600 
	C234.205429,315.522247 234.328857,314.169708 233.739136,313.271179 
	C232.765137,311.787170 231.542053,309.863739 230.069946,309.478577 
	C228.589050,309.091156 226.352844,309.944885 225.027298,310.989990 
	C222.964981,312.616028 221.426971,314.895752 219.605637,316.841217 
	C216.494156,320.164764 212.839066,320.960297 208.764526,318.807098 
	C203.623840,316.090515 198.340118,313.572723 193.477646,310.415436 
	C180.852539,302.217804 180.993744,302.112946 184.756927,287.434113 
	C185.121475,286.012146 184.589935,283.695038 183.579758,282.759827 
	C182.400406,281.667999 180.157593,281.054749 178.520935,281.280945 
	C175.935822,281.638275 173.504791,282.988007 170.948166,283.701355 
	C166.654968,284.899200 162.993698,283.900482 160.505020,279.996826 
	C157.288986,274.952271 153.765137,270.048920 151.094193,264.723450 
	C145.763031,254.093842 140.861481,252.427902 155.125381,241.030334 
	C155.255539,240.926315 155.395996,240.831833 155.511566,240.713318 
	C158.315277,237.837341 157.097214,233.394531 153.161667,232.435226 
	C150.579483,231.805786 147.931564,231.451324 145.325790,230.912231 
	C139.418304,229.690048 137.083649,226.917160 137.012070,220.907349 
	C136.948563,215.575592 136.985916,210.242477 137.000809,204.910004 
	C137.037766,191.686371 134.770905,188.420288 152.361938,185.658401 
	C153.978943,185.404526 156.154404,183.442734 156.513687,181.909241 
	C156.880249,180.344635 155.673904,178.059845 154.525772,176.579193 
	C153.018921,174.635925 150.856598,173.211594 149.044983,171.491592 
	C145.912262,168.517303 145.027176,165.013397 147.064087,161.092300 
	C149.744675,155.932083 152.228775,150.627151 155.381088,145.762726 
	C164.342331,131.934265 163.396835,131.702988 180.461945,137.368774 
M185.099945,212.256851 
	C184.455215,195.618912 189.492950,180.711288 199.300507,167.456558 
	C211.621521,150.804947 228.031036,140.555649 248.651123,137.426804 
	C248.651123,129.687057 248.651123,122.252197 248.651123,114.817337 
	C245.867706,124.922089 236.220367,122.502182 229.708755,125.464996 
	C219.786697,129.979584 216.689163,120.401138 210.957031,115.830818 
	C207.728195,117.697296 204.443085,119.330368 201.505295,121.445801 
	C200.540710,122.140388 199.659042,124.527466 200.125900,125.391098 
	C205.380692,135.111664 201.866898,142.133026 193.740494,148.014374 
	C192.416260,148.972763 191.456528,150.430038 190.309448,151.638809 
	C187.543503,154.553528 184.431854,155.501892 180.381317,154.265930 
	C170.440979,151.232819 170.398773,151.354309 165.210892,160.487885 
	C164.731750,161.331436 164.354614,162.232910 163.687256,163.607773 
	C172.258774,168.978256 175.704239,175.010529 172.716721,186.343491 
	C169.657928,197.946884 163.202240,201.145981 153.162659,201.621033 
	C153.162659,206.771667 153.162659,211.239685 153.162659,216.384766 
	C163.227493,216.840530 169.548050,220.132095 172.739288,231.654419 
	C175.953140,243.258408 171.577423,249.116089 163.624557,254.742813 
	C165.674973,258.252411 167.100494,261.316711 169.137878,263.898132 
	C170.060806,265.067474 172.722412,266.280548 173.703674,265.767761 
	C183.007339,260.905518 189.854645,263.798859 195.538422,271.800018 
	C196.768692,273.531891 199.209473,274.535858 200.081482,276.358826 
	C201.344940,279.000092 202.794037,282.319977 202.231125,284.934235 
	C199.835571,296.059845 199.574432,296.006012 209.658600,301.433807 
	C210.081329,301.661316 210.563538,301.778351 211.183105,302.008057 
	C216.687241,297.529297 219.835632,288.114502 229.768387,292.532928 
	C236.443726,295.502411 246.057281,293.246887 248.592987,304.218597 
	C248.592987,295.592865 248.592987,288.018158 248.592987,280.537628 
	C213.394272,274.341278 189.020660,248.330856 185.099945,212.256851 
M291.500000,248.996719 
	C301.258484,248.996719 311.016968,248.996719 320.613342,248.996719 
	C320.613342,221.926315 320.613342,195.537338 320.613342,169.254791 
	C301.957245,169.254791 283.685516,169.254791 265.298218,169.254791 
	C265.298218,195.895218 265.298218,222.283234 265.298218,248.996719 
	C273.893646,248.996719 282.196808,248.996719 291.500000,248.996719 
M213.476685,174.998520 
	C183.395020,213.347076 213.598587,259.548462 248.786316,263.942413 
	C248.786316,227.329071 248.786316,190.742004 248.786316,153.862411 
	C234.354050,156.226562 222.993317,163.373901 213.476685,174.998520 
M258.500000,481.147034 
	C279.827850,481.146912 301.156647,481.242035 322.482391,481.029449 
	C325.237183,481.001953 328.812347,480.136200 330.483032,478.283752 
	C332.096832,476.494507 332.631561,472.720428 332.043274,470.189484 
	C331.119659,466.215942 327.578339,464.821960 323.482452,464.831604 
	C301.488251,464.883301 279.493866,464.853668 257.499542,464.853149 
	C235.505219,464.852600 213.510025,464.760712 191.517700,464.970367 
	C188.763245,464.996613 185.187805,465.863739 183.517075,467.716095 
	C181.903290,469.505402 181.368378,473.279388 181.956619,475.810364 
	C182.880142,479.783844 186.421432,481.177765 190.517365,481.168365 
	C212.844803,481.117096 235.172440,481.145935 258.500000,481.147034 
M192.987946,448.861938 
	C234.940811,448.862518 276.893677,448.866241 318.846527,448.860901 
	C326.529633,448.859924 330.935272,445.845337 330.911438,440.654480 
	C330.888611,435.683075 326.851562,433.138367 318.942932,433.137756 
	C277.489502,433.134613 236.036057,433.131592 194.582626,433.152008 
	C192.762772,433.152893 190.478531,432.740448 189.223373,433.646454 
	C186.870697,435.344757 183.694962,437.750092 183.500565,440.081360 
	C183.298538,442.504456 185.988998,445.377777 187.884415,447.664825 
	C188.651825,448.590790 190.662949,448.486023 192.987946,448.861938 
M318.383179,321.626404 
	C312.869812,325.154968 311.447357,329.548157 314.784027,333.305176 
	C317.589325,336.463898 321.236542,337.565674 325.073944,335.641846 
	C328.529297,333.909546 329.183319,330.588837 328.036499,327.101715 
	C326.647949,322.879517 323.961060,320.346405 318.383179,321.626404 
M414.013855,227.471146 
	C410.908478,227.120819 407.618011,226.022049 404.773224,226.725525 
	C403.276764,227.095551 401.266632,231.022583 401.770447,232.626831 
	C402.702576,235.595184 404.808441,239.161469 407.392792,240.319107 
	C409.247253,241.149811 413.288788,239.101776 415.256165,237.201050 
	C418.117065,234.437027 417.477295,230.869919 414.013855,227.471146 
M363.234619,123.767799 
	C360.136688,128.812088 360.521210,132.182861 364.504028,134.895721 
	C368.174530,137.395828 372.970001,136.916885 375.204224,133.827026 
	C377.501495,130.649994 376.593567,125.372040 373.238770,122.688263 
	C369.945190,120.053490 366.805786,120.829193 363.234619,123.767799 
M306.973419,96.358643 
	C310.881866,95.610329 313.196777,92.818192 312.275146,89.337830 
	C311.491730,86.379372 309.181915,82.831718 306.595825,81.678329 
	C304.739349,80.850349 300.477631,82.814354 298.753510,84.802742 
	C294.442749,89.774185 298.228485,95.405304 306.973419,96.358643 
z"/>
<path fill="#DAE5FC" opacity="1.000000" stroke="none" 
	d="
M423.011597,212.395691 
	C416.941742,211.709503 410.791901,209.391418 404.807922,209.760727 
	C397.169250,210.232162 391.562134,215.357086 387.720764,222.142166 
	C387.041901,223.341248 385.519806,224.862244 384.371399,224.875519 
	C368.744354,225.056122 353.114563,224.996994 337.244263,224.996994 
	C337.244263,214.273392 337.244263,203.871399 337.244263,193.000870 
	C346.951385,193.000870 356.563507,193.021210 366.175446,192.994553 
	C374.150818,192.972443 376.971588,190.139542 376.995056,182.141037 
	C377.020477,173.475800 377.105286,164.808487 376.944824,156.146149 
	C376.887817,153.069733 377.507050,151.292511 380.607758,149.625809 
	C390.303314,144.414276 394.957092,132.527603 391.978333,122.281708 
	C389.000000,112.037323 378.470520,104.520569 367.789185,105.013641 
	C357.247742,105.500252 347.619781,113.939644 345.414093,124.626602 
	C343.494232,133.928345 348.690704,145.034149 357.761047,149.840530 
	C360.473358,151.277771 361.110352,152.831085 361.050049,155.573975 
	C360.896912,162.539856 360.999146,169.511337 360.999146,176.737961 
	C352.977051,176.737961 345.241058,176.737961 336.999664,176.737961 
	C336.999664,171.926483 337.083252,167.147141 336.978760,162.371933 
	C336.845306,156.274048 333.757233,153.164841 327.686981,153.022232 
	C323.028931,152.912781 318.366272,153.000443 313.319214,153.000443 
	C313.209106,151.671265 313.018921,150.414902 313.014862,149.157959 
	C312.987915,140.826019 313.241638,132.484863 312.927856,124.164665 
	C312.656250,116.961838 313.008545,111.278038 320.444550,106.460815 
	C329.240143,100.762871 331.058594,88.581581 326.935150,79.503281 
	C322.607971,69.976265 312.264252,63.928383 302.310394,65.105385 
	C292.323730,66.286255 283.510895,74.513634 281.418701,84.609146 
	C279.491119,93.910553 284.684784,105.024338 293.743774,109.834846 
	C296.437286,111.265152 297.079163,112.800766 297.051941,115.555321 
	C296.930511,127.857147 296.999146,140.160858 296.999146,152.730698 
	C286.325134,152.730698 275.922791,152.730698 265.014404,152.730698 
	C265.014404,110.440979 265.014404,68.175957 265.090271,25.446568 
	C270.110046,25.319988 275.053894,25.657778 280.519440,26.401291 
	C280.861176,29.406664 280.681244,32.006317 280.486511,34.819878 
	C285.603729,35.679413 290.461517,36.495373 295.239807,37.297977 
	C296.294342,34.219471 297.190247,31.604034 298.086151,28.988602 
	C302.754761,30.291183 307.423340,31.593761 312.523712,33.320698 
	C312.251434,36.235641 311.547394,38.726227 310.753021,41.536373 
	C315.647339,43.320007 320.323334,45.024071 324.975067,46.719292 
	C326.497467,43.847252 327.785065,41.418152 329.072662,38.989044 
	C333.424805,40.962120 337.776917,42.935204 342.552124,45.314510 
	C341.847351,48.346497 340.719574,50.972256 339.518219,53.769264 
	C343.944397,56.423428 348.119843,58.927235 352.145050,61.340954 
	C354.252075,59.007458 356.078064,56.985199 357.904053,54.962936 
	C361.736572,57.631714 365.569061,60.300495 369.702759,63.375252 
	C368.509888,66.083878 367.015839,68.386513 365.239563,71.124153 
	C368.718597,74.346611 372.428131,77.782578 375.994629,81.086067 
	C378.490234,79.221222 380.680695,77.584389 382.871155,75.947556 
	C386.091949,79.528816 389.312744,83.110069 392.702087,87.194992 
	C390.899780,89.420616 388.928925,91.142578 386.709900,93.081345 
	C389.660767,97.236900 392.508728,101.247536 395.384735,105.297646 
	C398.099152,103.864159 400.557983,102.565659 403.016785,101.267159 
	C405.326721,105.626091 407.636688,109.985016 409.812378,115.024849 
	C407.518799,116.804688 405.359528,117.903625 403.062164,119.072838 
	C405.163513,123.999817 407.075592,128.482971 408.882721,132.720123 
	C412.227539,132.044601 415.085236,131.467453 417.942963,130.890320 
	C418.983582,135.455338 420.024231,140.020355 420.891968,145.296692 
	C418.375122,146.696167 416.031189,147.384369 413.405884,148.155167 
	C414.305084,153.228790 415.157349,158.037445 415.957397,162.551697 
	C419.295624,162.777405 422.155670,162.970795 425.015686,163.164169 
	C425.011505,167.771027 425.007324,172.377884 424.597473,177.627411 
	C421.910156,178.270096 419.628479,178.270096 417.148132,178.270096 
	C416.891968,183.810638 416.664520,188.729446 416.435028,193.692596 
	C419.495850,194.214294 422.255737,194.684692 425.015625,195.155075 
	C424.345520,200.755981 423.675385,206.356888 423.011597,212.395691 
z"/>
<path fill="#DAE5FC" opacity="1.000000" stroke="none" 
	d="
M330.063110,417.465393 
	C308.560272,417.846436 287.103790,417.846436 265.324402,417.846436 
	C265.324402,366.537140 265.324402,316.013824 265.324402,265.246033 
	C270.387299,265.246033 275.454498,265.246033 280.998444,265.246033 
	C280.998444,272.437653 280.963104,279.546082 281.008270,286.653992 
	C281.054901,293.989197 284.002869,296.943848 291.325623,296.991455 
	C298.441101,297.037750 305.557129,297.001526 312.688049,297.001526 
	C313.431122,302.425476 313.538727,306.331696 307.821686,309.562805 
	C298.566864,314.793457 294.944397,326.967377 298.251404,336.636688 
	C301.586975,346.389648 311.876373,353.433868 322.138702,352.990204 
	C332.174500,352.556366 341.539734,344.856384 344.137604,334.902985 
	C346.720062,325.008636 342.083710,313.448456 332.773499,308.466553 
	C329.475037,306.701538 328.784271,304.773254 328.954163,301.546722 
	C329.155243,297.726990 329.100189,293.885254 328.976288,290.058899 
	C328.791351,284.347595 325.619934,281.133301 319.884094,281.032288 
	C312.424530,280.900879 304.960907,281.000122 297.252319,281.000122 
	C297.252319,275.625916 297.252319,270.558807 297.252319,265.001587 
	C306.923309,265.001587 316.526947,265.020660 326.130463,264.995697 
	C334.131622,264.974854 336.956604,262.153992 336.997772,254.198761 
	C337.019318,250.039001 337.001587,245.879028 337.001587,241.390762 
	C338.144135,241.256958 339.233093,241.020264 340.322479,241.018341 
	C354.478149,240.993362 368.635101,240.912445 382.787842,241.117935 
	C384.500000,241.142807 386.965546,242.316040 387.762299,243.710861 
	C392.778748,252.492508 400.230530,256.723358 410.613617,256.946716 
	C409.383209,262.293152 407.752594,267.492462 405.581818,273.041199 
	C402.719391,272.661316 400.397125,271.931976 397.799561,271.116180 
	C395.836548,275.995178 393.946442,280.692993 392.112671,285.250763 
	C394.565033,286.862915 396.815552,288.342377 399.066040,289.821838 
	C397.372101,293.994873 395.678192,298.167908 393.559326,302.737122 
	C390.555969,302.359985 387.977570,301.586670 385.121582,300.730133 
	C382.839355,305.290375 380.586731,309.791504 378.391693,314.177521 
	C380.842865,315.924530 382.938843,317.418365 385.034790,318.912201 
	C382.762665,323.094330 380.490540,327.276459 377.715149,331.730408 
	C374.941010,330.844330 372.670105,329.686493 370.179199,328.416443 
	C367.290253,332.752258 364.480011,336.969940 361.761871,341.049377 
	C364.036469,343.172516 366.036407,345.039276 368.036377,346.906067 
	C365.429504,350.758698 362.822632,354.611298 359.720764,358.744965 
	C356.860596,357.742706 354.495422,356.459351 351.960785,355.084045 
	C348.920807,359.596039 345.980011,363.960876 343.097900,368.238617 
	C345.542023,370.240234 347.810303,372.097839 350.078583,373.955444 
	C347.343353,378.002014 344.608093,382.048553 341.175964,386.227722 
	C338.458496,385.306946 336.437927,384.253571 334.021881,382.994019 
	C331.537170,388.164124 329.125366,393.182556 326.687958,398.254303 
	C329.400665,399.640411 331.704773,400.817749 334.008911,401.995087 
	C332.709106,407.024841 331.409302,412.054626 330.063110,417.465393 
z"/>
<path fill="#040404" opacity="1.000000" stroke="none" 
	d="
M399.458923,289.882690 
	C396.815552,288.342377 394.565033,286.862915 392.112671,285.250763 
	C393.946442,280.692993 395.836548,275.995178 397.799561,271.116180 
	C400.397125,271.931976 402.719391,272.661316 405.427490,273.406891 
	C406.572144,273.625885 407.338287,273.804779 408.088623,274.035217 
	C413.675629,275.751160 413.914673,276.262024 411.690643,281.741730 
	C410.977051,283.499908 410.244171,285.250336 409.511627,287.000763 
	C408.847961,288.586578 408.172668,290.167511 407.274109,292.290100 
	C404.867554,291.529266 402.359680,290.736389 399.458923,289.882690 
z"/>
<path fill="#040404" opacity="1.000000" stroke="none" 
	d="
M334.365234,402.091248 
	C331.704773,400.817749 329.400665,399.640411 326.687958,398.254303 
	C329.125366,393.182556 331.537170,388.164124 334.021881,382.994019 
	C336.437927,384.253571 338.458496,385.306946 340.805908,386.373627 
	C343.670135,387.700378 346.207581,389.013824 348.876617,390.395447 
	C346.606964,395.296051 344.364014,400.138947 341.915833,405.424988 
	C339.218536,404.211151 336.970032,403.199280 334.365234,402.091248 
z"/>
<path fill="#030303" opacity="1.000000" stroke="none" 
	d="
M350.405579,374.077393 
	C347.810303,372.097839 345.542023,370.240234 343.097900,368.238617 
	C345.980011,363.960876 348.920807,359.596039 351.960785,355.084045 
	C354.495422,356.459351 356.860596,357.742706 359.584290,359.067810 
	C361.911499,360.673737 363.880188,362.237915 366.026459,363.943176 
	C363.040649,368.436707 359.944946,373.095581 356.641937,378.066498 
	C354.614105,376.739471 352.673340,375.469421 350.405579,374.077393 
z"/>
<path fill="#030404" opacity="1.000000" stroke="none" 
	d="
M329.136719,38.635033 
	C327.785065,41.418152 326.497467,43.847252 324.975067,46.719292 
	C320.323334,45.024071 315.647339,43.320007 310.753021,41.536373 
	C311.547394,38.726227 312.251434,36.235641 312.893188,33.364433 
	C315.426056,25.437441 315.414215,25.466736 323.187592,28.607714 
	C325.675903,29.613173 328.254517,30.393515 330.768036,31.339987 
	C331.194244,31.500463 331.499634,31.981659 332.172058,32.601501 
	C331.197784,34.463745 330.199280,36.372379 329.136719,38.635033 
z"/>
<path fill="#040404" opacity="1.000000" stroke="none" 
	d="
M368.364441,347.035156 
	C366.036407,345.039276 364.036469,343.172516 361.761871,341.049377 
	C364.480011,336.969940 367.290253,332.752258 370.179199,328.416443 
	C372.670105,329.686493 374.941010,330.844330 377.577637,332.055389 
	C386.086487,337.276398 385.031738,335.609772 379.945770,343.534454 
	C378.248016,346.179840 376.359924,348.703033 374.496490,351.371338 
	C372.270630,349.757874 370.481598,348.461060 368.364441,347.035156 
z"/>
<path fill="#030303" opacity="1.000000" stroke="none" 
	d="
M403.360718,101.144577 
	C400.557983,102.565659 398.099152,103.864159 395.384735,105.297646 
	C392.508728,101.247536 389.660767,97.236900 386.709900,93.081345 
	C388.928925,91.142578 390.899780,89.420616 392.987488,87.377884 
	C393.845032,86.419609 394.690460,85.869530 395.308472,85.129532 
	C398.052277,81.843933 399.980255,82.666061 402.067688,85.985603 
	C404.389282,89.677544 407.169250,93.081238 409.974426,96.917755 
	C407.977539,98.224937 405.841095,99.623474 403.360718,101.144577 
z"/>
<path fill="#040405" opacity="1.000000" stroke="none" 
	d="
M425.388763,162.980896 
	C422.155670,162.970795 419.295624,162.777405 415.957397,162.551697 
	C415.157349,158.037445 414.305084,153.228790 413.405884,148.155167 
	C416.031189,147.384369 418.375122,146.696167 420.932587,145.721313 
	C430.200531,144.028671 430.159698,144.032471 431.034149,153.432358 
	C431.284607,156.124390 431.845947,158.787506 432.261047,161.440292 
	C429.744507,161.965851 427.753174,162.381729 425.388763,162.980896 
z"/>
<path fill="#030303" opacity="1.000000" stroke="none" 
	d="
M358.033752,54.634495 
	C356.078064,56.985199 354.252075,59.007458 352.145050,61.340954 
	C348.119843,58.927235 343.944397,56.423428 339.518219,53.769264 
	C340.719574,50.972256 341.847351,48.346497 342.903290,45.352081 
	C344.056427,43.129951 345.281403,41.276482 346.887604,38.846230 
	C351.753510,41.782154 356.849915,44.857143 362.156891,48.059189 
	C360.670837,50.383808 359.417175,52.344929 358.033752,54.634495 
z"/>
<path fill="#020203" opacity="1.000000" stroke="none" 
	d="
M385.369995,319.042236 
	C382.938843,317.418365 380.842865,315.924530 378.391693,314.177521 
	C380.586731,309.791504 382.839355,305.290375 385.121582,300.730133 
	C387.977570,301.586670 390.555969,302.359985 393.538574,303.122192 
	C395.940338,304.287048 397.937988,305.463013 400.419403,306.923767 
	C397.875305,312.128876 395.316711,317.363525 392.631653,322.856995 
	C390.309631,321.621735 388.007446,320.397034 385.369995,319.042236 
z"/>
<path fill="#030304" opacity="1.000000" stroke="none" 
	d="
M298.053253,28.588444 
	C297.190247,31.604034 296.294342,34.219471 295.239807,37.297977 
	C290.461517,36.495373 285.603729,35.679413 280.486511,34.819878 
	C280.681244,32.006317 280.861176,29.406664 280.943054,26.395714 
	C281.237671,23.463604 281.630310,20.942791 282.030151,18.375767 
	C288.100494,19.373383 293.879303,20.323086 299.674164,21.275427 
	C299.119293,23.594696 298.569824,25.891491 298.053253,28.588444 
z"/>
<path fill="#050505" opacity="1.000000" stroke="none" 
	d="
M425.434814,195.087646 
	C422.255737,194.684692 419.495850,194.214294 416.435028,193.692596 
	C416.664520,188.729446 416.891968,183.810638 417.148132,178.270096 
	C419.628479,178.270096 421.910156,178.270096 424.602325,178.086609 
	C427.474701,177.903122 429.936584,177.903122 432.703918,177.903122 
	C432.703918,183.893723 432.703918,189.726562 432.703918,196.213669 
	C430.367706,195.806625 428.110870,195.413422 425.434814,195.087646 
z"/>
<path fill="#030304" opacity="1.000000" stroke="none" 
	d="
M418.110413,130.554321 
	C415.085236,131.467453 412.227539,132.044601 408.882721,132.720123 
	C407.075592,128.482971 405.163513,123.999817 403.062164,119.072838 
	C405.359528,117.903625 407.518799,116.804688 409.852417,115.390045 
	C418.143463,111.164696 417.080261,109.467735 420.821136,118.414551 
	C422.107941,121.492195 423.362946,124.583130 424.821381,128.126999 
	C422.767365,128.783463 420.522614,129.500885 418.110413,130.554321 
z"/>
<path fill="#020202" opacity="1.000000" stroke="none" 
	d="
M382.998962,75.631927 
	C380.680695,77.584389 378.490234,79.221222 375.994629,81.086067 
	C372.428131,77.782578 368.718597,74.346611 365.239563,71.124153 
	C367.015839,68.386513 368.509888,66.083878 370.057556,63.419678 
	C372.018677,61.822186 373.926147,60.586254 376.336578,59.024426 
	C379.325226,61.659256 383.791351,65.596649 389.287506,70.442123 
	C386.960052,72.283539 385.043427,73.799911 382.998962,75.631927 
z"/>
<path fill="#FCCC38" opacity="1.000000" stroke="none" 
	d="
M33.035744,465.033966 
	C33.035744,459.925232 33.035744,454.816467 33.035744,449.355957 
	C38.326233,449.355957 43.344456,449.355957 48.992512,449.355957 
	C48.992512,454.287567 48.992512,459.191284 48.995934,464.547546 
	C48.999352,465.000122 49.034073,464.965942 48.565041,464.979370 
	C43.052650,464.983826 38.009293,464.974884 32.983292,464.983032 
	C33.000652,465.000122 33.035744,465.033966 33.035744,465.033966 
z"/>
<path fill="#FCCC38" opacity="1.000000" stroke="none" 
	d="
M33.034027,480.964264 
	C27.925732,480.964264 22.817434,480.964264 17.355888,480.964264 
	C17.355888,475.673981 17.355888,470.653290 17.355888,465.006989 
	C22.288050,465.006989 27.191929,465.006989 32.565777,465.020477 
	C33.035744,465.033966 33.000652,465.000122 32.996719,465.452087 
	C32.983829,470.947357 32.974880,475.990723 32.983055,481.016724 
	C33.000179,480.999359 33.034027,480.964264 33.034027,480.964264 
z"/>
<path fill="#FCCC38" opacity="1.000000" stroke="none" 
	d="
M48.981804,465.017029 
	C54.072811,465.033966 59.181362,465.033966 64.643646,465.033966 
	C64.643646,470.324982 64.643646,475.345825 64.643646,480.992523 
	C59.712601,480.992523 54.808788,480.992523 49.452415,480.995911 
	C48.999859,480.999329 49.034073,481.034058 49.020638,480.565063 
	C49.016159,475.052673 49.025116,470.009308 49.034073,464.965942 
	C49.034073,464.965942 48.999352,465.000122 48.981804,465.017029 
z"/>
<path fill="#FCCC38" opacity="1.000000" stroke="none" 
	d="
M48.982925,480.981812 
	C48.965996,486.072876 48.965996,491.181488 48.965996,496.643738 
	C43.674721,496.643738 38.653843,496.643738 33.007023,496.643738 
	C33.007023,491.712158 33.007023,486.808167 33.020523,481.434204 
	C33.034027,480.964264 33.000179,480.999359 33.452084,481.003296 
	C38.947350,481.016174 43.990711,481.025116 49.034073,481.034058 
	C49.034073,481.034058 48.999859,480.999329 48.982925,480.981812 
z"/>
<path fill="#FCCC38" opacity="1.000000" stroke="none" 
	d="
M473.035736,33.034027 
	C473.035736,27.925795 473.035736,22.817562 473.035736,17.355982 
	C478.326202,17.355982 483.344421,17.355982 488.992523,17.355982 
	C488.992523,22.287601 488.992523,27.191311 488.995911,32.547577 
	C488.999329,33.000137 489.034058,32.965931 488.565002,32.979355 
	C483.052643,32.983829 478.009277,32.974880 472.983276,32.983055 
	C473.000641,33.000179 473.035736,33.034027 473.035736,33.034027 
z"/>
<path fill="#FCCC38" opacity="1.000000" stroke="none" 
	d="
M473.033966,48.964256 
	C467.925690,48.964256 462.817383,48.964256 457.355865,48.964256 
	C457.355865,43.673489 457.355865,38.655197 457.355865,33.007023 
	C462.288055,33.007023 467.191956,33.007023 472.565796,33.020523 
	C473.035736,33.034027 473.000641,33.000179 472.996704,33.452084 
	C472.983826,38.947350 472.974884,43.990707 472.983032,49.016708 
	C473.000122,48.999348 473.033966,48.964256 473.033966,48.964256 
z"/>
<path fill="#FCCC38" opacity="1.000000" stroke="none" 
	d="
M488.981812,33.017067 
	C494.072815,33.033997 499.181366,33.033997 504.643646,33.033997 
	C504.643646,38.325489 504.643646,43.343872 504.643646,48.992512 
	C499.712646,48.992512 494.808838,48.992512 489.452454,48.995934 
	C488.999878,48.999352 489.034058,49.034073 489.020630,48.565071 
	C489.016144,43.052689 489.025116,38.009312 489.034058,32.965931 
	C489.034058,32.965931 488.999329,33.000137 488.981812,33.017067 
z"/>
<path fill="#FCCC38" opacity="1.000000" stroke="none" 
	d="
M488.982971,48.981804 
	C488.966034,54.072876 488.966034,59.181492 488.966034,64.643738 
	C483.674744,64.643738 478.653839,64.643738 473.006989,64.643738 
	C473.006989,59.712162 473.006989,54.808178 473.020477,49.434223 
	C473.033966,48.964256 473.000122,48.999348 473.452087,49.003284 
	C478.947357,49.016171 483.990723,49.025120 489.034058,49.034073 
	C489.034058,49.034073 488.999878,48.999352 488.982971,48.981804 
z"/>
<path fill="#FBCB38" opacity="1.000000" stroke="none" 
	d="
M180.061615,137.251404 
	C163.396835,131.702988 164.342331,131.934265 155.381088,145.762726 
	C152.228775,150.627151 149.744675,155.932083 147.064087,161.092300 
	C145.027176,165.013397 145.912262,168.517303 149.044983,171.491592 
	C150.856598,173.211594 153.018921,174.635925 154.525772,176.579193 
	C155.673904,178.059845 156.880249,180.344635 156.513687,181.909241 
	C156.154404,183.442734 153.978943,185.404526 152.361938,185.658401 
	C134.770905,188.420288 137.037766,191.686371 137.000809,204.910004 
	C136.985916,210.242477 136.948563,215.575592 137.012070,220.907349 
	C137.083649,226.917160 139.418304,229.690048 145.325790,230.912231 
	C147.931564,231.451324 150.579483,231.805786 153.161667,232.435226 
	C157.097214,233.394531 158.315277,237.837341 155.511566,240.713318 
	C155.395996,240.831833 155.255539,240.926315 155.125381,241.030334 
	C140.861481,252.427902 145.763031,254.093842 151.094193,264.723450 
	C153.765137,270.048920 157.288986,274.952271 160.505020,279.996826 
	C162.993698,283.900482 166.654968,284.899200 170.948166,283.701355 
	C173.504791,282.988007 175.935822,281.638275 178.520935,281.280945 
	C180.157593,281.054749 182.400406,281.667999 183.579758,282.759827 
	C184.589935,283.695038 185.121475,286.012146 184.756927,287.434113 
	C180.993744,302.112946 180.852539,302.217804 193.477646,310.415436 
	C198.340118,313.572723 203.623840,316.090515 208.764526,318.807098 
	C212.839066,320.960297 216.494156,320.164764 219.605637,316.841217 
	C221.426971,314.895752 222.964981,312.616028 225.027298,310.989990 
	C226.352844,309.944885 228.589050,309.091156 230.069946,309.478577 
	C231.542053,309.863739 232.765137,311.787170 233.739136,313.271179 
	C234.328857,314.169708 234.205429,315.522247 234.457474,316.658600 
	C236.681595,326.685638 236.745758,326.736481 246.866486,328.451660 
	C247.508759,328.560486 248.122894,328.835297 248.998291,329.111053 
	C248.998291,330.452423 248.998291,331.772736 248.998291,333.093018 
	C248.998291,360.900238 248.998291,388.707458 248.998291,416.850861 
	C230.018356,416.850861 211.301834,416.850861 192.269363,416.850861 
	C188.326614,394.070221 176.139145,375.159241 163.068024,356.903351 
	C143.685181,329.832245 127.277626,301.274078 115.897522,269.907959 
	C106.324928,243.523758 98.852303,216.639389 97.419197,188.464645 
	C95.159027,144.029831 110.625992,106.480354 143.118698,76.309853 
	C171.927185,49.560272 206.668472,36.322247 245.690613,33.827297 
	C246.643494,33.766376 247.603668,33.819630 248.778854,33.819630 
	C248.778854,52.281750 248.778854,70.567886 248.778854,88.826805 
	C248.589005,88.939659 248.445236,89.100494 248.303741,89.098495 
	C238.015930,88.952980 234.617889,95.195938 233.746674,104.256973 
	C233.593857,105.846268 231.612061,108.079605 230.071564,108.485832 
	C228.519424,108.895149 225.915298,107.919762 224.716934,106.655502 
	C214.807938,96.201630 214.802200,96.001289 202.154404,102.647949 
	C196.577728,105.578606 191.334366,109.152115 185.990891,112.515106 
	C182.057312,114.990761 181.140198,118.667473 182.294464,122.960228 
	C182.854599,125.043411 183.437927,127.159203 184.349548,129.101196 
	C186.431717,133.536774 184.568359,135.936310 180.061615,137.251404 
z"/>
<path fill="#F1383C" opacity="1.000000" stroke="none" 
	d="
M185.116714,212.718613 
	C189.020660,248.330856 213.394272,274.341278 248.592987,280.537628 
	C248.592987,288.018158 248.592987,295.592865 248.592987,304.218597 
	C246.057281,293.246887 236.443726,295.502411 229.768387,292.532928 
	C219.835632,288.114502 216.687241,297.529297 211.183105,302.008057 
	C210.563538,301.778351 210.081329,301.661316 209.658600,301.433807 
	C199.574432,296.006012 199.835571,296.059845 202.231125,284.934235 
	C202.794037,282.319977 201.344940,279.000092 200.081482,276.358826 
	C199.209473,274.535858 196.768692,273.531891 195.538422,271.800018 
	C189.854645,263.798859 183.007339,260.905518 173.703674,265.767761 
	C172.722412,266.280548 170.060806,265.067474 169.137878,263.898132 
	C167.100494,261.316711 165.674973,258.252411 163.624557,254.742813 
	C171.577423,249.116089 175.953140,243.258408 172.739288,231.654419 
	C169.548050,220.132095 163.227493,216.840530 153.162659,216.384766 
	C153.162659,211.239685 153.162659,206.771667 153.162659,201.621033 
	C163.202240,201.145981 169.657928,197.946884 172.716721,186.343491 
	C175.704239,175.010529 172.258774,168.978256 163.687256,163.607773 
	C164.354614,162.232910 164.731750,161.331436 165.210892,160.487885 
	C170.398773,151.354309 170.440979,151.232819 180.381317,154.265930 
	C184.431854,155.501892 187.543503,154.553528 190.309448,151.638809 
	C191.456528,150.430038 192.416260,148.972763 193.740494,148.014374 
	C201.866898,142.133026 205.380692,135.111664 200.125900,125.391098 
	C199.659042,124.527466 200.540710,122.140388 201.505295,121.445801 
	C204.443085,119.330368 207.728195,117.697296 210.957031,115.830818 
	C216.689163,120.401138 219.786697,129.979584 229.708755,125.464996 
	C236.220367,122.502182 245.867706,124.922089 248.651123,114.817337 
	C248.651123,122.252197 248.651123,129.687057 248.651123,137.426804 
	C228.031036,140.555649 211.621521,150.804947 199.300507,167.456558 
	C189.492950,180.711288 184.455215,195.618912 185.116714,212.718613 
z"/>
<path fill="#17AFDC" opacity="1.000000" stroke="none" 
	d="
M291.000000,248.996719 
	C282.196808,248.996719 273.893646,248.996719 265.298218,248.996719 
	C265.298218,222.283234 265.298218,195.895218 265.298218,169.254791 
	C283.685516,169.254791 301.957245,169.254791 320.613342,169.254791 
	C320.613342,195.537338 320.613342,221.926315 320.613342,248.996719 
	C311.016968,248.996719 301.258484,248.996719 291.000000,248.996719 
z"/>
<path fill="#F6ECD2" opacity="1.000000" stroke="none" 
	d="
M213.696838,174.717407 
	C222.993317,163.373901 234.354050,156.226562 248.786316,153.862411 
	C248.786316,190.742004 248.786316,227.329071 248.786316,263.942413 
	C213.598587,259.548462 183.395020,213.347076 213.696838,174.717407 
z"/>
<path fill="#5358A0" opacity="1.000000" stroke="none" 
	d="
M258.000000,481.147125 
	C235.172440,481.145935 212.844803,481.117096 190.517365,481.168365 
	C186.421432,481.177765 182.880142,479.783844 181.956619,475.810364 
	C181.368378,473.279388 181.903290,469.505402 183.517075,467.716095 
	C185.187805,465.863739 188.763245,464.996613 191.517700,464.970367 
	C213.510025,464.760712 235.505219,464.852600 257.499542,464.853149 
	C279.493866,464.853668 301.488251,464.883301 323.482452,464.831604 
	C327.578339,464.821960 331.119659,466.215942 332.043274,470.189484 
	C332.631561,472.720428 332.096832,476.494507 330.483032,478.283752 
	C328.812347,480.136200 325.237183,481.001953 322.482391,481.029449 
	C301.156647,481.242035 279.827850,481.146912 258.000000,481.147125 
z"/>
<path fill="#50559B" opacity="1.000000" stroke="none" 
	d="
M192.548035,448.856110 
	C190.662949,448.486023 188.651825,448.590790 187.884415,447.664825 
	C185.988998,445.377777 183.298538,442.504456 183.500565,440.081360 
	C183.694962,437.750092 186.870697,435.344757 189.223373,433.646454 
	C190.478531,432.740448 192.762772,433.152893 194.582626,433.152008 
	C236.036057,433.131592 277.489502,433.134613 318.942932,433.137756 
	C326.851562,433.138367 330.888611,435.683075 330.911438,440.654480 
	C330.935272,445.845337 326.529633,448.859924 318.846527,448.860901 
	C276.893677,448.866241 234.940811,448.862518 192.548035,448.856110 
z"/>
<path fill="#F5C636" opacity="1.000000" stroke="none" 
	d="
M318.744324,321.485840 
	C323.961060,320.346405 326.647949,322.879517 328.036499,327.101715 
	C329.183319,330.588837 328.529297,333.909546 325.073944,335.641846 
	C321.236542,337.565674 317.589325,336.463898 314.784027,333.305176 
	C311.447357,329.548157 312.869812,325.154968 318.744324,321.485840 
z"/>
<path fill="#F5C636" opacity="1.000000" stroke="none" 
	d="
M414.296204,227.722855 
	C417.477295,230.869919 418.117065,234.437027 415.256165,237.201050 
	C413.288788,239.101776 409.247253,241.149811 407.392792,240.319107 
	C404.808441,239.161469 402.702576,235.595184 401.770447,232.626831 
	C401.266632,231.022583 403.276764,227.095551 404.773224,226.725525 
	C407.618011,226.022049 410.908478,227.120819 414.296204,227.722855 
z"/>
<path fill="#F5C636" opacity="1.000000" stroke="none" 
	d="
M363.506409,123.497314 
	C366.805786,120.829193 369.945190,120.053490 373.238770,122.688263 
	C376.593567,125.372040 377.501495,130.649994 375.204224,133.827026 
	C372.970001,136.916885 368.174530,137.395828 364.504028,134.895721 
	C360.521210,132.182861 360.136688,128.812088 363.506409,123.497314 
z"/>
<path fill="#F5C636" opacity="1.000000" stroke="none" 
	d="
M306.610229,96.435242 
	C298.228485,95.405304 294.442749,89.774185 298.753510,84.802742 
	C300.477631,82.814354 304.739349,80.850349 306.595825,81.678329 
	C309.181915,82.831718 311.491730,86.379372 312.275146,89.337830 
	C313.196777,92.818192 310.881866,95.610329 306.610229,96.435242 
z"/>
<path fill="#FFFFFF" opacity="1.000000" stroke="none" 
	d="
M49.020638,480.565063 
	C43.990711,481.025116 38.947350,481.016174 33.434959,481.020630 
	C32.974880,475.990723 32.983829,470.947357 32.979355,465.434998 
	C38.009293,464.974884 43.052650,464.983826 48.565041,464.979370 
	C49.025116,470.009308 49.016159,475.052673 49.020638,480.565063 
z"/>
<path fill="#FFFFFF" opacity="1.000000" stroke="none" 
	d="
M489.020630,48.565071 
	C483.990723,49.025120 478.947357,49.016171 473.434998,49.020645 
	C472.974884,43.990707 472.983826,38.947350 472.979370,33.434959 
	C478.009277,32.974880 483.052643,32.983829 488.565002,32.979355 
	C489.025116,38.009312 489.016144,43.052689 489.020630,48.565071 
z"/>
</svg>