<?xml version="1.0" standalone="no"?>
<!DOCTYPE svg PUBLIC "-//W3C//DTD SVG 20010904//EN"
 "http://www.w3.org/TR/2001/REC-SVG-20010904/DTD/svg10.dtd">
<svg version="1.0" xmlns="http://www.w3.org/2000/svg"
 width="556.000000pt" height="720.000000pt" viewBox="0 0 556.000000 720.000000"
 preserveAspectRatio="xMidYMid meet">

<g transform="translate(0.000000,720.000000) scale(0.100000,-0.100000)"
fill="#000000" stroke="none">
<path d="M115 6014 c-47 -24 -83 -64 -100 -108 -13 -35 -15 -88 -13 -338 l3
-296 30 -43 c17 -23 50 -53 74 -66 l44 -23 2627 0 2627 0 44 23 c24 13 58 43
74 66 l30 43 3 301 c3 297 2 303 -20 346 -13 25 -40 59 -61 75 l-39 31 -2646
2 c-2382 3 -2650 1 -2677 -13z"/>
<path d="M175 4045 c-5 -2 -22 -6 -37 -9 -39 -9 -98 -64 -119 -111 -17 -36
-19 -71 -19 -326 l0 -285 26 -52 c19 -39 38 -59 72 -80 l47 -27 2635 0 2635 0
42 24 c24 14 55 42 70 64 l28 40 3 296 c2 252 1 302 -13 338 -20 51 -81 108
-132 122 -26 8 -832 11 -2633 10 -1427 0 -2599 -2 -2605 -4z"/>
<path d="M132 2049 c-44 -13 -108 -79 -121 -126 -7 -22 -11 -151 -11 -316 0
-228 3 -284 15 -315 20 -47 50 -79 97 -103 37 -19 97 -19 2682 -17 l2644 3 39
31 c21 16 48 50 61 75 22 43 23 48 20 346 l-3 301 -30 43 c-16 23 -50 53 -74
66 l-44 23 -2621 -1 c-1620 0 -2634 -4 -2654 -10z"/>
</g>
</svg>
