<svg version="1.1" id="Layer_1" xmlns="http://www.w3.org/2000/svg" xmlns:xlink="http://www.w3.org/1999/xlink" x="0px" y="0px"
	 width="100%" viewBox="0 0 512 512" enable-background="new 0 0 512 512" xml:space="preserve">
<path  opacity="0" stroke="none" 
	d="
M513.000000,196.000000 
	C513.000000,301.974243 513.000000,407.448486 513.000000,512.961365 
	C342.400757,512.961365 171.801483,512.961365 1.101111,512.961365 
	C1.101111,342.442444 1.101111,171.884827 1.101111,1.163595 
	C171.666534,1.163595 342.333252,1.163595 513.000000,1.163595 
	C513.000000,65.865143 513.000000,130.682571 513.000000,196.000000 
M427.071198,378.667358 
	C418.798096,380.223572 410.525024,381.779785 402.084534,383.367462 
	C402.084534,414.519897 401.898071,445.299591 402.191498,476.074738 
	C402.286774,486.064148 409.975281,493.758392 420.575745,495.737457 
	C434.932404,496.679596 444.767609,487.562744 444.804169,472.986847 
	C444.882721,441.674286 444.832153,410.361389 444.818909,379.048645 
	C444.818359,377.749115 444.661163,376.449646 444.529358,374.416351 
	C438.761353,375.871704 433.339874,377.239655 427.071198,378.667358 
M94.204315,380.028290 
	C86.021805,378.251007 77.839302,376.473755 69.304108,374.619873 
	C69.304108,409.011963 69.030144,442.726471 69.471039,476.431641 
	C69.603340,486.545502 77.279442,493.780884 87.580849,495.695190 
	C101.915108,496.812927 111.918076,487.672668 111.948456,473.225037 
	C112.008629,444.613281 111.969841,416.001282 111.957405,387.389404 
	C111.956841,386.085205 111.813889,384.781097 111.722618,383.227814 
	C106.036507,382.223907 100.506378,381.247559 94.204315,380.028290 
M356.339722,70.430725 
	C340.402405,118.386650 324.467010,166.343216 308.518555,214.295410 
	C308.047882,215.710632 307.595734,217.168564 306.866577,218.454376 
	C304.724976,222.231232 300.498810,223.720764 296.594360,222.222275 
	C292.612152,220.693924 290.374939,216.847183 291.143555,212.671036 
	C291.382996,211.370132 291.855103,210.107162 292.275940,208.845230 
	C303.002808,176.679749 313.738617,144.517258 324.469482,112.353134 
	C332.833435,87.283493 341.206299,62.216820 349.546265,37.139202 
	C352.133698,29.358974 350.464203,23.443913 344.832825,20.008823 
	C337.576019,15.582219 328.903839,18.793940 325.955658,27.287697 
	C321.432281,40.319698 317.382996,53.521168 312.609100,66.457565 
	C311.539886,69.355003 308.747223,72.669907 305.978790,73.675896 
	C299.446289,76.049683 293.978119,69.385147 296.185303,62.128212 
	C298.339111,55.046780 300.841156,48.071262 303.283844,40.769665 
	C272.062042,33.464085 241.567825,33.346115 210.890396,40.840347 
	C213.485016,48.788017 216.016510,56.007648 218.171341,63.338005 
	C219.521698,67.931732 216.992249,72.365669 212.784653,73.752480 
	C208.554855,75.146622 204.061523,73.011299 202.138245,68.639252 
	C201.671188,67.577522 201.370102,66.442383 200.999481,65.338722 
	C196.659592,52.414848 192.425797,39.453987 187.934952,26.582804 
	C185.889999,20.721752 180.483597,17.508329 174.685364,18.105490 
	C168.948013,18.696379 163.939423,23.212311 163.391693,29.066935 
	C163.140045,31.756790 163.853287,34.685081 164.721283,37.309345 
	C178.243256,78.191650 191.863876,119.041321 205.458267,159.899689 
	C211.074478,176.779480 216.735245,193.644760 222.266830,210.552261 
	C224.341782,216.894516 221.207016,222.235092 215.331635,222.856125 
	C211.049820,223.308701 207.736710,220.609146 205.859161,214.988083 
	C195.219391,183.134354 184.601822,151.273178 173.976364,119.414650 
	C167.836456,101.005302 161.695938,82.596153 155.426575,63.799812 
	C153.655533,64.827606 152.196960,65.562119 150.854904,66.469017 
	C93.760590,105.050980 63.342392,158.637817 60.977329,227.624847 
	C60.241146,249.098846 60.947201,270.619965 60.768494,292.117615 
	C60.737530,295.843140 62.057373,298.341400 65.214668,299.657227 
	C72.251381,302.589935 79.231621,305.869385 86.542923,307.896515 
	C123.992996,318.279907 162.467239,321.901794 201.080597,323.778320 
	C262.092316,326.743378 323.036438,325.940552 383.592499,316.867706 
	C397.847778,314.731873 411.864471,311.003296 426.725311,308.057709 
	C427.380951,307.780090 428.036591,307.502441 428.866699,307.305511 
	C428.866699,307.305511 428.972778,307.145203 429.764954,307.169525 
	C436.075836,304.651459 442.446045,302.269806 448.673584,299.560181 
	C451.991211,298.116608 453.307159,295.424255 453.270630,291.539001 
	C453.076385,270.874176 453.503723,250.199921 453.090454,229.541443 
	C451.861847,168.127899 427.241272,117.871605 380.041412,78.703552 
	C373.447296,73.231529 366.151184,68.605408 358.868744,63.363651 
	C358.065979,65.491058 357.559570,66.704979 357.157532,67.952530 
	C356.956818,68.575348 356.946899,69.259651 356.339722,70.430725 
M385.860870,368.329529 
	C412.750824,364.540527 439.451111,359.706055 464.877441,349.912201 
	C474.232330,346.308807 483.170227,341.264557 491.641571,335.850006 
	C497.436676,332.145996 497.596558,328.306213 492.369629,324.170471 
	C484.597443,318.020844 476.024475,312.876404 467.702423,307.441833 
	C467.047119,307.013885 465.346100,307.283356 464.710419,307.863525 
	C453.472778,318.119995 439.440552,322.383453 425.239502,326.011536 
	C386.153107,335.997375 346.126801,338.792664 306.047333,340.962708 
	C266.911987,343.081665 227.783737,342.545807 188.695190,339.883392 
	C157.796341,337.778809 126.948715,334.993713 96.698692,327.959259 
	C79.689667,324.003906 62.634453,319.886017 49.088245,307.642944 
	C48.538177,307.145813 47.036995,306.951447 46.467865,307.337250 
	C37.705311,313.277496 28.875191,319.138184 20.396179,325.466736 
	C16.950485,328.038483 17.385294,331.927551 20.731585,334.408630 
	C25.903397,338.243195 31.172512,342.192169 36.955246,344.913574 
	C59.254631,355.407867 83.138840,360.676147 107.231934,365.003998 
	C140.389893,370.960266 173.862411,374.013153 207.503159,375.335419 
	C266.843170,377.667816 326.053406,376.560760 385.860870,368.329529 
z"/>
<path fill="#FEDB00" opacity="1.000000" stroke="none" 
	d="
M428.972778,307.145203 
	C428.972778,307.145203 428.866699,307.305511 428.411865,307.234985 
	C427.301666,307.445435 426.646271,307.726440 425.990906,308.007446 
	C411.864471,311.003296 397.847778,314.731873 383.592499,316.867706 
	C323.036438,325.940552 262.092316,326.743378 201.080597,323.778320 
	C162.467239,321.901794 123.992996,318.279907 86.542923,307.896515 
	C79.231621,305.869385 72.251381,302.589935 65.214668,299.657227 
	C62.057373,298.341400 60.737530,295.843140 60.768494,292.117615 
	C60.947201,270.619965 60.241146,249.098846 60.977329,227.624847 
	C63.342392,158.637817 93.760590,105.050980 150.854904,66.469017 
	C152.196960,65.562119 153.655533,64.827606 155.426575,63.799812 
	C161.695938,82.596153 167.836456,101.005302 173.976364,119.414650 
	C184.601822,151.273178 195.219391,183.134354 205.859161,214.988083 
	C207.736710,220.609146 211.049820,223.308701 215.331635,222.856125 
	C221.207016,222.235092 224.341782,216.894516 222.266830,210.552261 
	C216.735245,193.644760 211.074478,176.779480 205.458267,159.899689 
	C191.863876,119.041321 178.243256,78.191650 164.721283,37.309345 
	C163.853287,34.685081 163.140045,31.756790 163.391693,29.066935 
	C163.939423,23.212311 168.948013,18.696379 174.685364,18.105490 
	C180.483597,17.508329 185.889999,20.721752 187.934952,26.582804 
	C192.425797,39.453987 196.659592,52.414848 200.999481,65.338722 
	C201.370102,66.442383 201.671188,67.577522 202.138245,68.639252 
	C204.061523,73.011299 208.554855,75.146622 212.784653,73.752480 
	C216.992249,72.365669 219.521698,67.931732 218.171341,63.338005 
	C216.016510,56.007648 213.485016,48.788017 210.890396,40.840347 
	C241.567825,33.346115 272.062042,33.464085 303.283844,40.769665 
	C300.841156,48.071262 298.339111,55.046780 296.185303,62.128212 
	C293.978119,69.385147 299.446289,76.049683 305.978790,73.675896 
	C308.747223,72.669907 311.539886,69.355003 312.609100,66.457565 
	C317.382996,53.521168 321.432281,40.319698 325.955658,27.287697 
	C328.903839,18.793940 337.576019,15.582219 344.832825,20.008823 
	C350.464203,23.443913 352.133698,29.358974 349.546265,37.139202 
	C341.206299,62.216820 332.833435,87.283493 324.469482,112.353134 
	C313.738617,144.517258 303.002808,176.679749 292.275940,208.845230 
	C291.855103,210.107162 291.382996,211.370132 291.143555,212.671036 
	C290.374939,216.847183 292.612152,220.693924 296.594360,222.222275 
	C300.498810,223.720764 304.724976,222.231232 306.866577,218.454376 
	C307.595734,217.168564 308.047882,215.710632 308.518555,214.295410 
	C324.467010,166.343216 340.402405,118.386650 356.897949,70.341843 
	C377.222809,85.164474 393.202240,103.487976 406.033905,124.575966 
	C425.489288,156.549622 435.793915,191.206726 435.986542,228.726074 
	C436.084869,247.881683 435.897430,267.039124 436.058960,286.193878 
	C436.121307,293.589630 436.788971,300.971039 429.374207,305.736633 
	C429.065948,305.934723 429.098816,306.663605 428.972778,307.145203 
M137.554382,121.829475 
	C141.308960,116.572151 141.161392,111.735054 137.150284,108.584099 
	C133.314590,105.570938 128.519104,106.413277 124.419983,110.893486 
	C109.060905,127.680496 97.681351,146.868393 89.262711,167.984848 
	C76.553658,199.862885 77.332397,233.209412 78.198441,266.543884 
	C78.260330,268.926025 81.244736,272.170593 83.678780,273.361115 
	C89.063026,275.994537 94.784996,271.390656 94.880890,264.669128 
	C95.037796,253.671585 94.892502,242.670105 94.942230,231.670593 
	C95.131027,189.909668 109.261063,153.509415 137.554382,121.829475 
z"/>
<path fill="#FCC008" opacity="1.000000" stroke="none" 
	d="
M385.428040,368.419006 
	C326.053406,376.560760 266.843170,377.667816 207.503159,375.335419 
	C173.862411,374.013153 140.389893,370.960266 107.231934,365.003998 
	C83.138840,360.676147 59.254631,355.407867 36.955246,344.913574 
	C31.172512,342.192169 25.903397,338.243195 20.731585,334.408630 
	C17.385294,331.927551 16.950485,328.038483 20.396179,325.466736 
	C28.875191,319.138184 37.705311,313.277496 46.467865,307.337250 
	C47.036995,306.951447 48.538177,307.145813 49.088245,307.642944 
	C62.634453,319.886017 79.689667,324.003906 96.698692,327.959259 
	C126.948715,334.993713 157.796341,337.778809 188.695190,339.883392 
	C227.783737,342.545807 266.911987,343.081665 306.047333,340.962708 
	C346.126801,338.792664 386.153107,335.997375 425.239502,326.011536 
	C439.440552,322.383453 453.472778,318.119995 464.710419,307.863525 
	C465.346100,307.283356 467.047119,307.013885 467.702423,307.441833 
	C476.024475,312.876404 484.597443,318.020844 492.369629,324.170471 
	C497.596558,328.306213 497.436676,332.145996 491.641571,335.850006 
	C483.170227,341.264557 474.232330,346.308807 464.877441,349.912201 
	C439.451111,359.706055 412.750824,364.540527 385.428040,368.419006 
z"/>
<path fill="#FCC008" opacity="1.000000" stroke="none" 
	d="
M429.368866,307.157349 
	C429.098816,306.663605 429.065948,305.934723 429.374207,305.736633 
	C436.788971,300.971039 436.121307,293.589630 436.058960,286.193878 
	C435.897430,267.039124 436.084869,247.881683 435.986542,228.726074 
	C435.793915,191.206726 425.489288,156.549622 406.033905,124.575966 
	C393.202240,103.487976 377.222809,85.164474 357.153442,70.084549 
	C356.946899,69.259651 356.956818,68.575348 357.157532,67.952530 
	C357.559570,66.704979 358.065979,65.491058 358.868744,63.363651 
	C366.151184,68.605408 373.447296,73.231529 380.041412,78.703552 
	C427.241272,117.871605 451.861847,168.127899 453.090454,229.541443 
	C453.503723,250.199921 453.076385,270.874176 453.270630,291.539001 
	C453.307159,295.424255 451.991211,298.116608 448.673584,299.560181 
	C442.446045,302.269806 436.075836,304.651459 429.368866,307.157349 
z"/>
<path fill="#FC9601" opacity="1.000000" stroke="none" 
	d="
M86.897522,495.286926 
	C77.279442,493.780884 69.603340,486.545502 69.471039,476.431641 
	C69.030144,442.726471 69.304108,409.011963 69.304108,374.619873 
	C77.839302,376.473755 86.021805,378.251007 94.592438,380.600952 
	C94.988304,410.574829 94.819664,439.977722 95.103645,469.376221 
	C95.197502,479.091919 93.039665,487.726624 86.897522,495.286926 
z"/>
<path fill="#FE9701" opacity="1.000000" stroke="none" 
	d="
M419.885315,495.341644 
	C409.975281,493.758392 402.286774,486.064148 402.191498,476.074738 
	C401.898071,445.299591 402.084534,414.519897 402.084534,383.367462 
	C410.525024,381.779785 418.798096,380.223572 427.511871,379.132507 
	C427.966400,408.671539 427.777039,437.747650 428.101746,466.818054 
	C428.219147,477.325226 426.303833,486.890503 419.885315,495.341644 
z"/>
<path fill="#F17A00" opacity="1.000000" stroke="none" 
	d="
M420.230530,495.539551 
	C426.303833,486.890503 428.219147,477.325226 428.101746,466.818054 
	C427.777039,437.747650 427.966400,408.671539 427.935486,379.102631 
	C433.339874,377.239655 438.761353,375.871704 444.529358,374.416351 
	C444.661163,376.449646 444.818359,377.749115 444.818909,379.048645 
	C444.832153,410.361389 444.882721,441.674286 444.804169,472.986847 
	C444.767609,487.562744 434.932404,496.679596 420.230530,495.539551 
z"/>
<path fill="#F37B00" opacity="1.000000" stroke="none" 
	d="
M87.239182,495.491058 
	C93.039665,487.726624 95.197502,479.091919 95.103645,469.376221 
	C94.819664,439.977722 94.988304,410.574829 94.978409,380.722412 
	C100.506378,381.247559 106.036507,382.223907 111.722618,383.227814 
	C111.813889,384.781097 111.956841,386.085205 111.957405,387.389404 
	C111.969841,416.001282 112.008629,444.613281 111.948456,473.225037 
	C111.918076,487.672668 101.915108,496.812927 87.239182,495.491058 
z"/>
<path fill="#FCC008" opacity="1.000000" stroke="none" 
	d="
M426.358093,308.032593 
	C426.646271,307.726440 427.301666,307.445435 428.324646,307.194641 
	C428.036591,307.502441 427.380951,307.780090 426.358093,308.032593 
z"/>
<path fill="#F5F5F2" opacity="1.000000" stroke="none" 
	d="
M137.298904,122.101089 
	C109.261063,153.509415 95.131027,189.909668 94.942230,231.670593 
	C94.892502,242.670105 95.037796,253.671585 94.880890,264.669128 
	C94.784996,271.390656 89.063026,275.994537 83.678780,273.361115 
	C81.244736,272.170593 78.260330,268.926025 78.198441,266.543884 
	C77.332397,233.209412 76.553658,199.862885 89.262711,167.984848 
	C97.681351,146.868393 109.060905,127.680496 124.419983,110.893486 
	C128.519104,106.413277 133.314590,105.570938 137.150284,108.584099 
	C141.161392,111.735054 141.308960,116.572151 137.298904,122.101089 
z"/>
</svg>