<svg version="1.1" id="Layer_1" xmlns="http://www.w3.org/2000/svg" xmlns:xlink="http://www.w3.org/1999/xlink" x="0px" y="0px"
	 width="100%" viewBox="0 0 500 500" enable-background="new 0 0 500 500" xml:space="preserve">
<path opacity="0" stroke="none" 
	d="
M501.000000,137.000000 
	C501.000000,258.666626 501.000000,379.833282 501.000000,500.999939 
	C334.333405,500.999939 167.666809,500.999939 1.000154,500.999969 
	C1.000103,334.333435 1.000103,167.666885 1.000051,1.000244 
	C167.666519,1.000163 334.333038,1.000163 500.999756,1.000081 
	C501.000000,46.166668 501.000000,91.333336 501.000000,137.000000 
M493.003387,179.505829 
	C493.003387,174.762909 493.003387,170.019989 493.003387,164.779114 
	C476.824707,164.779114 461.574249,164.779114 445.992432,164.779114 
	C445.992432,157.263672 445.993164,150.287338 445.992279,143.310989 
	C445.991089,133.639709 445.990540,133.639587 455.893280,133.639282 
	C462.819672,133.639069 469.746094,133.639236 476.784363,133.639236 
	C476.784363,91.730431 476.784363,50.637093 476.784363,9.361133 
	C430.133911,9.361133 383.763763,9.361133 336.739777,9.361133 
	C336.739777,30.263947 336.739777,50.806770 336.739777,71.561584 
	C315.778015,71.561584 295.468872,71.632378 275.162964,71.408302 
	C273.752167,71.392731 271.934967,69.444435 271.039490,67.954514 
	C266.213043,59.924171 256.559357,54.751019 248.464645,56.148857 
	C237.315033,58.074230 230.133804,65.091011 228.191025,75.958229 
	C226.670258,84.464897 231.175934,94.217049 239.415863,98.695061 
	C242.676178,100.466881 243.332047,102.569771 243.301376,105.838432 
	C243.180969,118.669449 243.094864,131.505432 243.347168,144.332687 
	C243.431015,148.596146 242.403992,150.219559 237.832642,150.016052 
	C229.412674,149.641235 220.964127,149.909027 212.449951,149.909027 
	C212.449951,181.328766 212.449951,212.019592 212.449951,243.216217 
	C230.810455,243.216217 248.728729,243.216217 266.711365,243.216217 
	C266.711365,258.977234 266.711365,274.227539 266.711365,290.210205 
	C261.393341,290.210205 256.348175,290.210205 251.007217,290.210205 
	C251.007217,296.929138 250.753845,302.929504 251.081985,308.897919 
	C251.380630,314.329773 249.125687,317.826599 244.326111,319.887756 
	C239.539520,321.943359 235.591583,320.486298 232.179260,316.839844 
	C228.105087,312.486084 223.977295,308.182556 219.924881,303.912201 
	C208.690506,315.208710 198.042328,325.915802 186.569000,337.452606 
	C191.143494,341.680420 196.014267,345.974335 200.635239,350.522034 
	C204.018890,353.852020 203.880325,358.082703 202.291397,362.146271 
	C200.690720,366.239929 197.503479,368.382111 192.955048,368.339142 
	C187.122772,368.284058 181.288055,368.243103 175.457489,368.356140 
	C172.346436,368.416443 171.215744,367.245453 170.856659,364.027496 
	C168.738998,345.050323 163.855316,326.806000 154.007553,310.321991 
	C148.307449,300.780762 141.399399,291.969360 135.303970,282.653503 
	C130.547775,275.384430 127.193558,267.516632 126.878799,258.414398 
	C127.955345,258.093018 128.714142,257.796783 129.500748,257.641876 
	C146.970520,254.201477 157.701096,238.609818 157.035965,221.145935 
	C156.886154,217.212357 157.013947,213.268219 157.013947,209.551132 
	C163.968414,207.212219 170.215866,204.977478 176.554108,203.039780 
	C179.418533,202.164078 180.361420,200.652527 180.345032,197.688416 
	C180.269684,184.075195 178.223053,170.785294 173.685944,157.976242 
	C170.881180,150.057983 167.400757,142.379089 163.975723,133.985062 
	C166.244644,133.856079 168.158203,133.707275 170.074554,133.646667 
	C174.066971,133.520416 178.097244,133.747208 182.046585,133.278351 
	C190.305908,132.297852 195.608093,126.533379 195.954636,118.258476 
	C196.177567,112.935387 196.168732,107.586220 195.926392,102.264107 
	C195.615677,95.439987 191.531570,89.300125 185.192871,88.223701 
	C179.314987,87.225540 177.942169,83.957092 177.178940,79.041176 
	C170.548798,36.336380 128.320938,4.065585 84.439865,9.862803 
	C56.130238,13.602845 34.876812,27.718493 20.528599,52.339046 
	C12.441950,66.215187 9.404757,81.514313 9.185753,97.245293 
	C9.044770,107.371971 6.692000,117.919907 12.147182,127.634377 
	C12.656913,128.542084 11.950146,130.203705 11.657610,131.480789 
	C4.335593,163.445740 13.364132,190.309982 37.509987,212.013138 
	C44.528622,218.321701 52.886261,223.120575 60.356747,228.961136 
	C62.122765,230.341827 63.716122,233.100586 63.795662,235.283478 
	C64.165604,245.435913 63.913593,255.609421 64.025696,265.773834 
	C64.058083,268.710327 63.285130,270.516113 60.429600,272.066132 
	C50.610748,277.395966 43.917206,285.466309 41.615124,296.567688 
	C40.644131,301.250153 40.170303,306.119385 40.161320,310.904999 
	C40.051182,369.566467 40.069324,428.228149 40.054363,486.889801 
	C40.053871,488.809052 40.054298,490.728302 40.054298,492.577789 
	C84.761276,492.577789 128.643814,492.577789 173.092926,492.577789 
	C173.092926,476.904480 173.092926,461.659821 173.092926,446.545563 
	C180.899994,445.006470 187.359726,445.632263 192.131470,452.339172 
	C194.038040,455.018982 196.778000,457.098999 199.091446,459.497528 
	C205.543182,466.186371 211.970245,472.899078 218.935699,480.152924 
	C223.774246,475.130768 227.891708,471.041321 231.792801,466.754974 
	C235.536346,462.641785 239.945465,461.861267 244.904739,463.760773 
	C249.791718,465.632599 251.293411,469.462799 251.071091,474.517670 
	C250.804092,480.588409 251.007996,486.679840 251.007996,492.545227 
	C267.112427,492.545227 282.337646,492.545227 297.833344,492.545227 
	C297.833344,486.264099 298.013702,480.437134 297.778687,474.626953 
	C297.575439,469.602692 299.091431,465.854034 303.903992,463.754974 
	C308.470490,461.763184 312.901062,462.645935 316.985992,466.754486 
	C321.082977,470.875153 325.024780,475.150116 328.789795,479.100525 
	C340.055054,467.949463 350.772980,457.340179 362.344391,445.886078 
	C357.801056,441.683990 353.119904,437.461609 348.564911,433.107239 
	C344.993347,429.692902 344.592651,425.492645 346.457458,421.148956 
	C348.258545,416.953674 351.430817,414.793335 356.259064,414.955872 
	C362.687469,415.172272 369.128662,415.009277 376.103577,415.009277 
	C376.103577,409.371521 376.103577,404.454437 376.103577,399.272949 
	C378.268433,399.160217 379.895691,399.003387 381.523071,399.001953 
	C396.688416,398.988800 411.855286,399.119751 427.018036,398.924530 
	C430.753174,398.876495 432.858734,399.828217 434.739929,403.327454 
	C439.032379,411.311768 448.777374,416.083801 456.416565,414.734924 
	C467.496582,412.778503 474.949738,405.769226 476.779510,395.584747 
	C478.406250,386.530334 474.205322,376.620605 466.002075,372.123871 
	C462.603424,370.260834 461.833557,368.198395 461.847443,364.689850 
	C461.960907,336.026215 461.901520,307.361908 461.921570,278.697815 
	C461.922577,277.267212 462.172089,275.836761 462.352417,273.908325 
	C472.666626,273.908325 482.583740,273.908325 493.002747,273.908325 
	C493.002747,242.413177 493.002747,211.458710 493.003387,179.505829 
z"/>
<path fill="#070302" opacity="1.000000" stroke="none" 
	d="
M493.003052,180.005035 
	C493.002747,211.458710 493.002747,242.413177 493.002747,273.908325 
	C482.583740,273.908325 472.666626,273.908325 462.352417,273.908325 
	C462.172089,275.836761 461.922577,277.267212 461.921570,278.697815 
	C461.901520,307.361908 461.960907,336.026215 461.847443,364.689850 
	C461.833557,368.198395 462.603424,370.260834 466.002075,372.123871 
	C474.205322,376.620605 478.406250,386.530334 476.779510,395.584747 
	C474.949738,405.769226 467.496582,412.778503 456.416565,414.734924 
	C448.777374,416.083801 439.032379,411.311768 434.739929,403.327454 
	C432.858734,399.828217 430.753174,398.876495 427.018036,398.924530 
	C411.855286,399.119751 396.688416,398.988800 381.523071,399.001953 
	C379.895691,399.003387 378.268433,399.160217 376.103577,399.272949 
	C376.103577,404.454437 376.103577,409.371521 376.103577,415.009277 
	C369.128662,415.009277 362.687469,415.172272 356.259064,414.955872 
	C351.430817,414.793335 348.258545,416.953674 346.457458,421.148956 
	C344.592651,425.492645 344.993347,429.692902 348.564911,433.107239 
	C353.119904,437.461609 357.801056,441.683990 362.344391,445.886078 
	C350.772980,457.340179 340.055054,467.949463 328.789795,479.100525 
	C325.024780,475.150116 321.082977,470.875153 316.985992,466.754486 
	C312.901062,462.645935 308.470490,461.763184 303.903992,463.754974 
	C299.091431,465.854034 297.575439,469.602692 297.778687,474.626953 
	C298.013702,480.437134 297.833344,486.264099 297.833344,492.545227 
	C282.337646,492.545227 267.112427,492.545227 251.007996,492.545227 
	C251.007996,486.679840 250.804092,480.588409 251.071091,474.517670 
	C251.293411,469.462799 249.791718,465.632599 244.904739,463.760773 
	C239.945465,461.861267 235.536346,462.641785 231.792801,466.754974 
	C227.891708,471.041321 223.774246,475.130768 218.935699,480.152924 
	C211.970245,472.899078 205.543182,466.186371 199.091446,459.497528 
	C196.778000,457.098999 194.038040,455.018982 192.131470,452.339172 
	C187.359726,445.632263 180.899994,445.006470 173.092926,446.545563 
	C173.092926,461.659821 173.092926,476.904480 173.092926,492.577789 
	C128.643814,492.577789 84.761276,492.577789 40.054298,492.577789 
	C40.054298,490.728302 40.053871,488.809052 40.054363,486.889801 
	C40.069324,428.228149 40.051182,369.566467 40.161320,310.904999 
	C40.170303,306.119385 40.644131,301.250153 41.615124,296.567688 
	C43.917206,285.466309 50.610748,277.395966 60.429600,272.066132 
	C63.285130,270.516113 64.058083,268.710327 64.025696,265.773834 
	C63.913593,255.609421 64.165604,245.435913 63.795662,235.283478 
	C63.716122,233.100586 62.122765,230.341827 60.356747,228.961136 
	C52.886261,223.120575 44.528622,218.321701 37.509987,212.013138 
	C13.364132,190.309982 4.335593,163.445740 11.657610,131.480789 
	C11.950146,130.203705 12.656913,128.542084 12.147182,127.634377 
	C6.692000,117.919907 9.044770,107.371971 9.185753,97.245293 
	C9.404757,81.514313 12.441950,66.215187 20.528599,52.339046 
	C34.876812,27.718493 56.130238,13.602845 84.439865,9.862803 
	C128.320938,4.065585 170.548798,36.336380 177.178940,79.041176 
	C177.942169,83.957092 179.314987,87.225540 185.192871,88.223701 
	C191.531570,89.300125 195.615677,95.439987 195.926392,102.264107 
	C196.168732,107.586220 196.177567,112.935387 195.954636,118.258476 
	C195.608093,126.533379 190.305908,132.297852 182.046585,133.278351 
	C178.097244,133.747208 174.066971,133.520416 170.074554,133.646667 
	C168.158203,133.707275 166.244644,133.856079 163.975723,133.985062 
	C167.400757,142.379089 170.881180,150.057983 173.685944,157.976242 
	C178.223053,170.785294 180.269684,184.075195 180.345032,197.688416 
	C180.361420,200.652527 179.418533,202.164078 176.554108,203.039780 
	C170.215866,204.977478 163.968414,207.212219 157.013947,209.551132 
	C157.013947,213.268219 156.886154,217.212357 157.035965,221.145935 
	C157.701096,238.609818 146.970520,254.201477 129.500748,257.641876 
	C128.714142,257.796783 127.955345,258.093018 126.878799,258.414398 
	C127.193558,267.516632 130.547775,275.384430 135.303970,282.653503 
	C141.399399,291.969360 148.307449,300.780762 154.007553,310.321991 
	C163.855316,326.806000 168.738998,345.050323 170.856659,364.027496 
	C171.215744,367.245453 172.346436,368.416443 175.457489,368.356140 
	C181.288055,368.243103 187.122772,368.284058 192.955048,368.339142 
	C197.503479,368.382111 200.690720,366.239929 202.291397,362.146271 
	C203.880325,358.082703 204.018890,353.852020 200.635239,350.522034 
	C196.014267,345.974335 191.143494,341.680420 186.569000,337.452606 
	C198.042328,325.915802 208.690506,315.208710 219.924881,303.912201 
	C223.977295,308.182556 228.105087,312.486084 232.179260,316.839844 
	C235.591583,320.486298 239.539520,321.943359 244.326111,319.887756 
	C249.125687,317.826599 251.380630,314.329773 251.081985,308.897919 
	C250.753845,302.929504 251.007217,296.929138 251.007217,290.210205 
	C256.348175,290.210205 261.393341,290.210205 266.711365,290.210205 
	C266.711365,274.227539 266.711365,258.977234 266.711365,243.216217 
	C248.728729,243.216217 230.810455,243.216217 212.449951,243.216217 
	C212.449951,212.019592 212.449951,181.328766 212.449951,149.909027 
	C220.964127,149.909027 229.412674,149.641235 237.832642,150.016052 
	C242.403992,150.219559 243.431015,148.596146 243.347168,144.332687 
	C243.094864,131.505432 243.180969,118.669449 243.301376,105.838432 
	C243.332047,102.569771 242.676178,100.466881 239.415863,98.695061 
	C231.175934,94.217049 226.670258,84.464897 228.191025,75.958229 
	C230.133804,65.091011 237.315033,58.074230 248.464645,56.148857 
	C256.559357,54.751019 266.213043,59.924171 271.039490,67.954514 
	C271.934967,69.444435 273.752167,71.392731 275.162964,71.408302 
	C295.468872,71.632378 315.778015,71.561584 336.739777,71.561584 
	C336.739777,50.806770 336.739777,30.263947 336.739777,9.361133 
	C383.763763,9.361133 430.133911,9.361133 476.784363,9.361133 
	C476.784363,50.637093 476.784363,91.730431 476.784363,133.639236 
	C469.746094,133.639236 462.819672,133.639069 455.893280,133.639282 
	C445.990540,133.639587 445.991089,133.639709 445.992279,143.310989 
	C445.993164,150.287338 445.992432,157.263672 445.992432,164.779114 
	C461.574249,164.779114 476.824707,164.779114 493.003387,164.779114 
	C493.003387,170.019989 493.003387,174.762909 493.003052,180.005035 
M456.011505,202.039398 
	C456.011505,202.039398 456.286926,202.270706 456.773010,202.084290 
	C456.923035,201.780731 457.073029,201.477173 457.049286,201.054825 
	C457.049286,201.054825 457.197510,201.204239 457.749084,200.978653 
	C458.193634,200.338669 458.638184,199.698685 459.002747,199.010498 
	C459.002747,199.010498 459.064758,199.080429 459.571289,198.872681 
	C459.868896,198.423508 460.166473,197.974335 460.568329,197.466660 
	C460.568329,197.466660 460.609711,197.354477 461.004242,197.179260 
	C461.247589,196.985367 461.367920,196.732864 461.405792,196.382568 
	C461.405792,196.382568 461.442535,196.339874 461.962524,196.071228 
	C462.791626,195.013275 463.620758,193.955307 464.987579,192.446198 
	C467.587646,189.281494 470.187714,186.116806 473.453827,182.455963 
	C472.562866,181.917130 471.673126,180.910080 470.780792,180.907822 
	C447.509491,180.849030 424.237946,180.894501 400.364807,180.790054 
	C400.097137,181.063721 399.829498,181.337387 399.481842,182.472610 
	C399.476074,188.120392 399.445648,193.768280 399.468994,199.415939 
	C399.549957,219.003891 399.649628,238.591782 399.930573,258.738007 
	C400.303345,258.765564 400.676086,258.793121 401.976501,258.904968 
	C426.631958,258.882874 451.287445,258.860809 476.766479,258.869965 
	C477.104492,257.676910 477.732330,256.485016 477.736938,255.290665 
	C477.802429,238.299911 477.788666,221.308823 477.760590,204.317871 
	C477.759766,203.803070 477.396240,203.288849 476.968475,202.156937 
	C475.621429,203.994827 474.665619,205.298874 473.714111,206.663223 
	C473.714111,206.663223 473.653809,206.666824 473.146637,206.891052 
	C472.605316,207.625320 472.064026,208.359604 471.121887,209.401260 
	C471.056519,209.556442 470.991180,209.711624 470.421753,210.083618 
	C470.125031,210.536285 469.828339,210.988937 469.382568,211.505829 
	C469.382568,211.505829 469.339355,211.662262 468.965240,211.814072 
	C468.734711,211.995041 468.625763,212.231918 468.543213,212.566452 
	C468.543213,212.566452 468.499207,212.660675 468.066223,212.844193 
	C467.811981,213.064636 467.686554,213.343094 467.857117,213.874191 
	C467.857117,213.874191 467.658386,213.711884 467.094604,213.968872 
	C466.362701,214.953461 465.630768,215.938049 464.995148,216.987259 
	C464.995148,216.987259 464.916168,216.902252 464.408295,217.095184 
	C464.114044,217.540466 463.819794,217.985733 463.377899,218.501129 
	C463.377899,218.501129 463.339905,218.660095 462.969330,218.817810 
	C462.740234,218.996735 462.626953,219.231522 462.550629,219.564804 
	C462.550629,219.564804 462.507965,219.643723 461.951447,219.970840 
	C458.613068,223.968445 455.274658,227.966064 451.418396,232.289429 
	C450.545013,233.404678 449.671661,234.519943 448.218414,235.913376 
	C447.465576,236.929794 446.712708,237.946213 446.000000,239.000000 
	C446.000000,239.000000 445.960419,238.961746 445.449860,239.169937 
	C445.149933,239.622131 444.850006,240.074326 444.494507,240.575394 
	C444.494507,240.575394 444.453613,240.637070 444.038452,240.828888 
	C443.777710,241.028748 443.642822,241.292877 443.774170,241.779892 
	C443.774170,241.779892 443.596161,241.665054 443.031769,241.951797 
	C442.001648,243.290894 440.971527,244.629990 439.298553,246.160416 
	C438.857452,246.139557 438.416382,246.118698 437.796021,245.620712 
	C437.517426,245.443161 437.238861,245.265610 436.712433,244.645538 
	C436.443909,244.444901 436.175415,244.244263 435.722015,243.535416 
	C435.295166,243.221146 434.868317,242.906876 434.266022,242.720123 
	C434.266022,242.720123 434.398712,242.548569 434.202332,242.047943 
	C433.786224,241.725082 433.370087,241.402206 432.990845,241.012619 
	C432.990845,241.012619 432.921844,241.045090 432.694489,240.470535 
	C431.645691,239.513245 430.596924,238.555969 429.503265,237.529785 
	C429.503265,237.529785 429.437225,237.480820 429.210815,237.000961 
	C428.794098,236.694565 428.377380,236.388168 427.719482,235.637222 
	C427.451721,235.438080 427.183990,235.238937 426.722717,234.502029 
	C426.137939,234.037033 425.553162,233.572037 424.819275,232.824081 
	C424.819275,232.824081 424.533051,232.681351 424.314026,232.176071 
	C424.006195,231.990234 423.698364,231.804382 423.283966,231.661896 
	C423.283966,231.661896 423.341858,231.562515 423.223206,231.121735 
	C423.059662,230.836685 422.815399,230.669693 422.447510,230.536148 
	C422.447510,230.536148 422.363892,230.491348 422.222229,230.071548 
	C422.048706,229.805130 421.803986,229.654236 421.445129,229.536499 
	C421.445129,229.536499 421.363647,229.491928 421.217743,229.071365 
	C421.040497,228.805283 420.792725,228.656982 420.434326,228.548645 
	C420.434326,228.548645 420.359222,228.503601 420.218781,228.078018 
	C420.043549,227.807480 419.795563,227.656143 419.432617,227.559494 
	C419.432617,227.559494 419.367950,227.517563 419.169220,227.020538 
	C418.760864,226.686234 418.352478,226.351913 417.865540,225.313446 
	C417.869720,225.077316 417.873871,224.841171 418.410919,224.274200 
	C420.023010,222.562225 421.635132,220.850235 423.663605,218.929901 
	C423.663605,218.929901 423.907471,218.533234 424.367218,218.330948 
	C424.649261,217.938873 424.931305,217.546799 425.079437,217.058960 
	C425.079437,217.058960 425.177368,217.191284 425.804382,216.944778 
	C427.956543,213.701263 429.833527,215.731293 431.988434,217.018448 
	C431.988434,217.018448 431.747253,217.265076 431.958801,217.847672 
	C432.881317,218.653000 433.803802,219.458328 434.990509,219.998947 
	C434.990509,219.998947 434.729553,220.264328 434.880005,220.759247 
	C435.163116,220.936829 435.446259,221.114426 435.989014,221.006714 
	C435.989014,221.006714 435.726807,221.293503 435.936218,221.871017 
	C440.720825,225.750000 440.346375,219.766769 442.474335,218.431610 
	C442.474335,218.431610 442.517426,218.382828 442.999420,218.169525 
	C443.160706,217.865326 443.322021,217.561142 443.795563,217.072403 
	C443.795563,217.072403 443.944122,216.741531 444.461975,216.415756 
	C445.334198,215.296677 446.206390,214.177597 447.000061,213.009109 
	C447.000061,213.009109 447.063934,213.076660 447.570770,212.856293 
	C447.859924,212.396683 448.149078,211.937073 448.519379,211.432419 
	C448.519379,211.432419 448.566010,211.352158 448.981964,211.177109 
	C449.232300,210.968781 449.351593,210.701889 449.242676,210.246857 
	C449.242676,210.246857 449.382446,210.328735 449.880737,210.127762 
	C450.041107,209.815323 450.201477,209.502899 450.727325,209.000900 
	C450.727325,209.000900 450.926819,208.640701 451.364807,208.356583 
	C451.646088,207.934311 451.927338,207.512039 452.727051,206.783905 
	C453.574463,205.675339 454.421844,204.566772 455.784210,203.229462 
	C455.956024,202.904388 456.127808,202.579315 456.011505,202.039398 
M89.068298,427.202789 
	C88.737198,427.084808 88.406090,426.966797 87.687531,426.312500 
	C79.525993,417.838257 71.364464,409.364014 63.091896,400.302979 
	C62.812378,400.034393 62.532856,399.765808 62.078053,398.851532 
	C61.471008,397.925507 60.863968,396.999451 60.145508,395.455750 
	C58.927238,393.212280 57.708969,390.968811 56.015705,387.850616 
	C56.015705,418.374908 56.015705,447.886993 56.015705,477.354248 
	C89.863449,477.354248 123.379105,477.354248 156.767288,477.354248 
	C156.767288,466.756805 156.767288,456.556885 156.767288,445.490967 
	C149.207336,445.490967 142.085556,445.490967 134.228714,445.255798 
	C133.459854,445.238190 132.690994,445.220551 131.394516,444.839539 
	C130.560303,444.736359 129.726089,444.633209 128.289764,444.279663 
	C127.857498,444.272186 127.425240,444.264709 126.446465,443.907135 
	C125.611763,443.764984 124.777054,443.622833 123.327187,443.201172 
	C122.881889,443.154572 122.436584,443.107941 121.435585,442.613892 
	C113.327904,439.339783 105.220215,436.065704 97.094604,432.891724 
	C97.094604,432.891724 97.177834,432.833252 96.847260,432.272919 
	C95.706100,431.679260 94.564949,431.085602 93.182602,430.790375 
	C93.182602,430.790375 93.386650,430.465454 93.045753,429.999512 
	C92.378227,429.646820 91.710701,429.294159 91.008057,429.003510 
	C91.008057,429.003510 91.057259,428.950653 90.783989,428.437592 
	C90.280159,428.172028 89.776321,427.906464 89.121178,427.812103 
	C89.121178,427.812103 89.310608,427.684357 89.068298,427.202789 
M343.205536,402.233856 
	C343.205536,402.233856 343.230011,402.419373 343.839478,402.304810 
	C344.332214,401.955475 344.824921,401.606110 345.160095,401.209198 
	C345.160095,401.209198 345.147644,401.373352 345.986328,401.270477 
	C350.619415,400.391785 355.252502,399.513123 359.985107,398.615570 
	C359.985107,393.941864 359.985107,389.076172 359.985107,384.447052 
	C355.499451,383.799988 351.303436,383.194702 347.134460,382.779938 
	C347.134460,382.779938 347.316864,382.718750 346.908386,382.234344 
	C346.296143,382.103058 345.683868,381.971741 344.809723,381.372833 
	C344.312958,381.207245 343.816193,381.041687 342.963654,380.341370 
	C342.380463,380.071075 341.797302,379.800781 341.185333,379.763123 
	C341.185333,379.763123 341.419464,379.751373 341.149475,379.221710 
	C340.805115,379.035950 340.460724,378.850159 339.796936,378.096558 
	C326.685913,365.533356 326.836182,353.222778 339.771393,337.055603 
	C336.358673,333.173706 333.012421,329.367401 329.602661,325.488831 
	C327.845886,327.155060 326.534058,328.701813 324.939117,329.857971 
	C319.016937,334.150909 312.589233,338.764954 305.093353,336.537933 
	C293.727295,333.161102 284.589020,326.591309 282.219330,312.912628 
	C282.219330,310.662689 282.219330,308.412781 282.219330,306.061829 
	C276.804352,306.061829 271.938629,306.061829 267.122803,306.061829 
	C266.685791,310.190796 266.273987,314.081543 265.385590,318.456055 
	C261.365692,329.923798 251.862762,335.020081 241.121506,336.529358 
	C232.403366,337.754395 225.479507,331.712067 219.922897,326.188416 
	C215.958420,329.700897 212.174042,333.053833 208.144394,336.624054 
	C215.035538,342.124756 218.662781,348.982391 218.936234,356.838104 
	C223.385193,355.413788 227.623428,354.135254 231.804153,352.690308 
	C234.488770,351.762482 237.475983,351.101685 239.665451,349.445740 
	C257.550659,335.918915 276.949554,332.720520 297.330139,342.209259 
	C317.681580,351.684479 328.615875,368.453674 328.864594,390.925232 
	C329.115448,413.590668 318.562897,430.818756 298.110565,440.636230 
	C277.271515,450.639435 257.343597,447.534454 239.146912,433.254883 
	C237.791382,432.191162 236.018326,430.939117 234.468979,430.977234 
	C229.724182,431.093994 224.993805,431.797241 219.911163,432.307190 
	C218.593399,438.776825 214.830444,443.704285 207.751328,445.927673 
	C211.844940,449.962341 215.576935,453.640594 219.533157,457.539825 
	C227.912720,448.060455 238.147141,444.307587 250.306229,449.346191 
	C262.569031,454.427795 267.413940,464.399139 266.825623,477.273193 
	C272.143402,477.273193 277.023346,477.273193 282.090027,477.273193 
	C281.545898,464.187286 286.363739,454.369263 298.474335,449.387970 
	C310.626282,444.389679 320.937653,447.975128 329.085968,457.316925 
	C332.837646,453.587250 336.443604,450.002472 339.430603,447.032990 
	C336.631439,442.333221 332.851837,437.996521 331.292267,432.970886 
	C327.476807,420.675781 332.625061,410.973602 342.626953,403.050720 
	C342.881897,402.784363 343.136871,402.518005 343.205536,402.233856 
M72.298759,49.185329 
	C72.298759,49.185329 72.338623,49.337040 72.853584,48.955887 
	C73.313156,48.000996 73.772728,47.046104 74.774849,45.848385 
	C75.542664,44.960049 76.310471,44.071712 77.800247,42.981365 
	C87.102798,37.730618 97.103981,40.534790 107.389481,40.853188 
	C114.713799,43.785496 118.188873,49.183311 118.102310,57.082378 
	C117.993744,66.989731 118.076172,76.899178 118.076172,86.730766 
	C123.696487,86.730766 128.622238,86.730766 133.928329,86.730766 
	C133.928329,82.858055 134.026077,79.229858 133.904770,75.608994 
	C133.734985,70.541756 133.468277,65.088264 137.519592,61.607685 
	C141.174561,58.467640 145.944519,56.625443 150.657623,53.965431 
	C137.217789,35.218479 118.263542,24.496712 94.002357,24.515387 
	C69.766670,24.534042 50.813362,35.222786 36.448658,55.272572 
	C37.613567,55.573784 38.045101,55.762875 38.486000,55.788078 
	C50.501354,56.474834 55.764759,62.055149 55.796131,74.174538 
	C55.806805,78.296608 55.797825,82.418739 55.797825,86.807610 
	C60.765888,86.807610 65.375206,86.807610 70.854851,86.644676 
	C70.946320,75.417976 71.037781,64.191269 71.478951,52.692982 
	C71.680176,52.404945 71.662514,52.131001 71.894745,51.310200 
	C72.081642,50.604382 72.268539,49.898563 72.298759,49.185329 
M352.683777,26.963270 
	C352.702026,57.038910 352.720245,87.114548 352.835052,117.807983 
	C353.219666,117.876823 353.604309,117.945656 354.926727,118.058838 
	C390.282410,118.035805 425.638062,118.012779 461.838806,117.712044 
	C461.925842,87.223282 462.019775,56.734524 462.046417,26.245705 
	C462.046906,25.690948 461.245483,25.135490 459.915344,24.442801 
	C426.282623,24.484539 392.649933,24.526279 358.283386,24.265055 
	C356.443604,24.854382 354.603821,25.443708 352.683777,26.963270 
M180.629639,117.641693 
	C180.606033,116.765625 180.582443,115.889549 180.775833,114.223846 
	C180.706635,113.140968 180.637436,112.058090 180.764862,110.120140 
	C180.764862,107.800964 180.764862,105.481789 180.764862,102.903252 
	C128.644958,102.903252 76.755196,102.903252 24.152433,102.903252 
	C24.438524,107.995247 24.711660,112.856697 25.877188,118.039551 
	C76.258133,118.048767 126.639084,118.059448 177.020035,118.056404 
	C178.007278,118.056343 178.994507,117.895172 180.629639,117.641693 
M274.060577,383.949799 
	C265.051147,383.997040 256.041748,384.044281 246.411819,383.772491 
	C244.494171,380.148834 242.653366,376.481842 240.640991,372.911591 
	C237.561981,367.448975 232.593735,366.693481 228.001190,371.043579 
	C225.505768,373.407257 223.251404,376.025391 220.172928,379.111328 
	C220.077271,390.614410 219.969940,402.117432 219.933701,413.620697 
	C219.932404,414.031006 220.633942,414.443542 221.933441,415.006104 
	C234.388962,415.005066 246.847183,415.166016 259.299225,414.957458 
	C271.760529,414.748749 282.131775,404.388031 282.106293,392.497620 
	C282.096161,387.766510 280.144440,384.541595 274.060577,383.949799 
M286.147339,185.169647 
	C277.217072,195.188995 268.286835,205.208328 259.978729,214.529648 
	C252.662201,207.219681 245.660690,200.224457 239.355789,193.925217 
	C242.329285,190.820297 245.717545,187.282318 249.959000,182.853424 
	C252.531769,186.079376 255.218292,189.447952 258.158203,193.134247 
	C266.674774,183.529282 274.515472,174.686569 282.869965,165.264389 
	C263.788422,165.264389 245.883560,165.264389 227.929077,165.264389 
	C227.929077,186.090103 227.929077,206.654984 227.929077,227.611298 
	C229.513840,227.483078 230.778687,227.380737 232.944809,227.521225 
	C251.884445,227.521225 270.824066,227.521225 289.649109,227.521225 
	C289.649109,211.959518 289.649109,196.932770 289.649109,181.113297 
	C288.341400,182.829819 287.546875,183.872711 286.147339,185.169647 
M123.764725,243.055588 
	C133.586365,241.862869 139.997086,236.127548 140.526840,228.059448 
	C122.938248,231.147720 101.713509,222.723511 95.995674,207.466721 
	C100.353111,205.259827 104.741493,203.037247 109.502258,200.626083 
	C116.989929,214.133133 129.391571,212.204163 141.733627,211.713898 
	C141.733627,208.403992 142.000381,205.558167 141.666580,202.784622 
	C141.242599,199.261749 142.692032,197.814606 145.973160,196.931122 
	C151.101471,195.550278 156.048019,193.504684 161.156250,192.035080 
	C164.055649,191.200958 165.315460,189.989212 164.588913,186.776566 
	C163.528397,182.087250 163.195633,177.221008 161.972687,172.583115 
	C158.367737,158.911896 153.586319,145.713303 144.060059,133.961105 
	C127.386818,134.017075 110.713577,134.073029 93.279152,133.973785 
	C83.755257,135.898056 79.126503,141.384995 79.059929,150.883698 
	C79.027603,155.496490 79.054344,160.109711 79.054344,165.021988 
	C76.720848,165.021988 74.917480,165.087402 73.120468,165.008438 
	C69.334778,164.842072 65.410080,165.758408 64.608826,169.531784 
	C63.934372,172.707962 64.758751,176.692215 66.214851,179.689529 
	C67.595787,182.532104 70.560814,184.663696 73.003792,186.918854 
	C77.315559,190.899155 79.157013,195.669083 79.107956,201.576172 
	C78.943405,221.392868 79.046188,241.211777 79.046646,261.029846 
	C79.046684,262.805267 79.046654,264.580658 79.046654,266.565277 
	C93.272667,267.226135 104.351921,272.915588 111.652847,284.628876 
	C114.028893,288.440918 116.761353,289.289795 119.935501,288.956818 
	C116.567101,279.174744 113.188560,269.363220 109.808090,259.546082 
	C105.456406,259.546082 100.438095,259.546082 95.030167,259.546082 
	C95.030167,253.987228 95.030167,248.537506 95.962967,243.066147 
	C104.967522,243.007446 113.972069,242.948746 123.764725,243.055588 
M336.993622,126.384132 
	C336.993622,113.313004 336.993622,100.241875 336.993622,86.938568 
	C316.454742,86.938568 296.800873,87.005371 277.148376,86.871590 
	C273.941772,86.849770 272.311829,87.847733 270.537231,90.659958 
	C268.491364,93.902008 265.362061,96.730927 262.125763,98.862396 
	C259.700165,100.459938 258.663208,101.940598 258.682556,104.738930 
	C258.776794,118.400764 258.827148,132.064362 258.688721,145.725281 
	C258.654999,149.051727 259.813477,150.018097 263.039032,149.959900 
	C272.866150,149.782593 282.705658,150.085968 292.523285,149.731064 
	C294.992889,149.641800 297.985229,148.375504 299.725220,146.637085 
	C305.208984,141.158264 310.211914,135.198166 315.537140,129.272736 
	C319.352448,132.652328 322.791779,135.698914 326.565125,139.041336 
	C320.280701,146.113449 314.135468,152.643768 308.503540,159.590225 
	C306.701965,161.812317 305.366486,165.126816 305.336212,167.957733 
	C305.090393,190.947968 305.211975,213.942078 305.198730,236.934998 
	C305.197632,238.854111 305.028687,240.773148 304.917297,243.122681 
	C297.073120,243.122681 289.811035,243.122681 282.422272,243.122681 
	C282.422272,258.952484 282.422272,274.311615 282.422272,290.062927 
	C286.491669,290.062927 290.147491,290.212769 293.784790,290.017242 
	C296.898651,289.849854 297.910614,291.185822 297.831787,294.126740 
	C297.702362,298.954987 297.986420,303.799103 297.739136,308.618195 
	C297.468384,313.894623 299.325897,317.669586 304.272339,319.781647 
	C309.261414,321.911926 313.346008,320.485626 316.852783,316.659546 
	C320.863556,312.283539 324.885406,307.917664 328.370087,304.126587 
	C340.093964,315.491516 350.916504,325.982697 362.242828,336.962219 
	C357.500671,341.509186 352.868103,345.817139 348.394958,350.284698 
	C345.112701,353.562897 344.416931,357.533447 346.302094,361.779144 
	C348.138275,365.914581 351.173065,368.397705 355.972870,368.329590 
	C361.136749,368.256317 366.307678,368.471222 371.466034,368.289948 
	C374.854004,368.170898 376.334259,369.240723 376.052734,372.840668 
	C375.773590,376.410461 375.991638,380.019165 375.991638,383.963745 
	C394.592560,383.963745 412.394409,384.015106 430.194183,383.848694 
	C431.387085,383.837524 432.689240,382.302612 433.726013,381.262512 
	C436.965210,378.012970 439.747742,374.175354 443.398926,371.514893 
	C445.935944,369.666290 446.826630,367.988892 446.820160,365.058319 
	C446.757019,336.400696 446.738068,307.742554 446.872406,279.085358 
	C446.890350,275.260193 445.916779,273.891907 441.828583,273.945221 
	C424.670288,274.168976 407.507263,274.029938 390.345978,274.024017 
	C388.407715,274.023315 386.469452,274.023926 384.321442,274.023926 
	C384.321442,237.432114 384.321442,201.546356 384.321442,164.910889 
	C400.012543,164.910889 415.374786,164.910889 431.007446,164.910889 
	C431.007446,155.845184 430.754272,147.516281 431.110199,139.213486 
	C431.298920,134.811447 430.007904,133.541489 425.573395,133.572281 
	C398.083191,133.763275 370.590973,133.665649 343.099426,133.663864 
	C341.179657,133.663727 339.259888,133.663849 336.993103,133.663849 
	C336.993103,130.980865 336.993103,129.163574 336.993622,126.384132 
M202.127396,430.795135 
	C202.770905,429.355835 203.940186,427.927734 203.971085,426.475372 
	C204.148132,418.153778 204.054443,409.826416 204.053421,401.501007 
	C204.052719,395.737915 204.053268,389.974792 204.053268,383.911133 
	C190.276520,383.911133 177.146667,383.936737 164.016953,383.905945 
	C134.951721,383.837708 113.084587,365.577881 108.010269,337.040985 
	C106.115852,326.387177 104.637115,315.657532 102.625687,305.027405 
	C101.864479,301.004578 100.756340,296.804779 98.729286,293.310486 
	C93.120834,283.642426 81.441200,279.855347 70.953644,283.703064 
	C60.028332,287.711365 54.269176,298.395203 56.148399,311.166992 
	C58.329159,325.988129 60.553440,340.803009 62.681538,355.631683 
	C68.968262,399.437866 104.926888,430.701416 149.236588,430.804321 
	C166.553345,430.844543 183.870285,430.814636 202.127396,430.795135 
M28.507870,173.913040 
	C34.834850,190.999557 47.452682,202.253159 63.053307,211.525833 
	C64.062561,204.984787 64.962746,199.142075 58.883152,194.949539 
	C57.670818,194.113510 56.716091,192.889450 55.690575,191.799164 
	C43.480785,178.818405 45.798939,161.243866 60.892925,151.885620 
	C61.928459,151.243591 63.175209,150.224030 63.430626,149.164719 
	C64.618378,144.238586 65.491470,139.236603 66.545029,133.919296 
	C54.912788,133.919296 43.273003,134.178741 31.655140,133.787399 
	C27.212349,133.637741 25.878479,135.449219 25.255411,139.246216 
	C23.354668,150.829422 24.452589,162.112610 28.507870,173.913040 
M311.227020,377.407898 
	C299.772461,348.993896 266.233459,346.264496 251.228699,360.330719 
	C255.225525,368.353058 255.226593,368.277283 263.657990,368.395538 
	C268.641937,368.465424 273.662109,368.498749 278.594971,369.116180 
	C287.941071,370.286011 295.713959,378.159790 296.957550,387.537445 
	C298.766632,401.179382 294.002502,412.486725 283.542114,421.069336 
	C279.054230,424.751587 273.497406,427.131012 267.719025,430.516785 
	C281.290405,432.384308 292.457947,428.946045 301.766815,419.775726 
	C313.739655,407.981079 316.687622,393.979370 311.227020,377.407898 
M140.223129,361.348602 
	C144.916351,364.399139 149.837326,366.750458 155.736588,367.224335 
	C153.489136,345.676361 147.188019,326.415222 135.638382,309.005005 
	C134.785477,307.719299 133.474747,306.044159 132.191589,305.863129 
	C127.817680,305.246033 123.360840,305.216705 118.445053,304.934906 
	C120.244026,315.510193 121.950233,325.477814 123.633034,335.449402 
	C125.440895,346.162140 130.886887,354.586426 140.223129,361.348602 
M102.634369,66.534012 
	C102.634369,63.084084 102.634369,59.634155 102.634369,55.993958 
	C97.218681,55.993958 92.309807,55.993958 87.269821,55.993958 
	C87.269821,66.364731 87.269821,76.552498 87.269821,86.688370 
	C92.480423,86.688370 97.370621,86.688370 102.634201,86.688370 
	C102.634201,80.100899 102.634201,73.813141 102.634369,66.534012 
M33.658737,71.172714 
	C29.831671,70.437607 27.772081,71.994247 27.181843,75.868141 
	C26.640024,79.424232 25.830730,82.939575 25.037468,86.993134 
	C29.424057,86.993134 33.232594,87.137703 37.016827,86.898247 
	C38.048519,86.832962 39.822010,85.660141 39.865837,84.914001 
	C40.132954,80.366859 39.999237,75.796165 39.999237,71.172958 
	C37.543533,71.172958 36.048458,71.172958 33.658737,71.172714 
M256.194305,73.243286 
	C255.337357,72.757759 254.528183,72.140358 253.615204,71.809433 
	C249.584274,70.348373 245.576675,72.129936 243.836090,76.076256 
	C242.250031,79.672211 243.654083,83.870018 247.120102,85.894783 
	C250.588303,87.920815 254.869232,87.055496 257.266571,83.753204 
	C259.761627,80.316269 259.308807,76.972473 256.194305,73.243286 
M153.576950,71.169891 
	C152.171249,71.833504 149.615906,72.398727 149.549301,73.176941 
	C149.162094,77.701416 149.359833,82.275955 149.359833,86.741028 
	C154.422363,86.741028 158.675507,86.741028 163.316391,86.741028 
	C162.510178,83.021385 161.630524,79.660423 161.081528,76.246292 
	C160.452545,72.334747 158.673996,70.245949 153.576950,71.169891 
M458.163544,385.043976 
	C454.696533,383.096497 451.079529,383.250214 448.741241,386.293365 
	C447.256226,388.226013 446.110992,391.874054 446.969330,393.783905 
	C448.035431,396.156067 451.251740,398.823486 453.679596,398.965485 
	C456.085266,399.106201 459.382629,396.795654 460.999908,394.607513 
	C463.397888,391.363037 461.749237,388.018890 458.163544,385.043976 
z"/>
<path fill="#E71F63" opacity="1.000000" stroke="none" 
	d="
M336.993347,126.865204 
	C336.993103,129.163574 336.993103,130.980865 336.993103,133.663849 
	C339.259888,133.663849 341.179657,133.663727 343.099426,133.663864 
	C370.590973,133.665649 398.083191,133.763275 425.573395,133.572281 
	C430.007904,133.541489 431.298920,134.811447 431.110199,139.213486 
	C430.754272,147.516281 431.007446,155.845184 431.007446,164.910889 
	C415.374786,164.910889 400.012543,164.910889 384.321442,164.910889 
	C384.321442,201.546356 384.321442,237.432114 384.321442,274.023926 
	C386.469452,274.023926 388.407715,274.023315 390.345978,274.024017 
	C407.507263,274.029938 424.670288,274.168976 441.828583,273.945221 
	C445.916779,273.891907 446.890350,275.260193 446.872406,279.085358 
	C446.738068,307.742554 446.757019,336.400696 446.820160,365.058319 
	C446.826630,367.988892 445.935944,369.666290 443.398926,371.514893 
	C439.747742,374.175354 436.965210,378.012970 433.726013,381.262512 
	C432.689240,382.302612 431.387085,383.837524 430.194183,383.848694 
	C412.394409,384.015106 394.592560,383.963745 375.991638,383.963745 
	C375.991638,380.019165 375.773590,376.410461 376.052734,372.840668 
	C376.334259,369.240723 374.854004,368.170898 371.466034,368.289948 
	C366.307678,368.471222 361.136749,368.256317 355.972870,368.329590 
	C351.173065,368.397705 348.138275,365.914581 346.302094,361.779144 
	C344.416931,357.533447 345.112701,353.562897 348.394958,350.284698 
	C352.868103,345.817139 357.500671,341.509186 362.242828,336.962219 
	C350.916504,325.982697 340.093964,315.491516 328.370087,304.126587 
	C324.885406,307.917664 320.863556,312.283539 316.852783,316.659546 
	C313.346008,320.485626 309.261414,321.911926 304.272339,319.781647 
	C299.325897,317.669586 297.468384,313.894623 297.739136,308.618195 
	C297.986420,303.799103 297.702362,298.954987 297.831787,294.126740 
	C297.910614,291.185822 296.898651,289.849854 293.784790,290.017242 
	C290.147491,290.212769 286.491669,290.062927 282.422272,290.062927 
	C282.422272,274.311615 282.422272,258.952484 282.422272,243.122681 
	C289.811035,243.122681 297.073120,243.122681 304.917297,243.122681 
	C305.028687,240.773148 305.197632,238.854111 305.198730,236.934998 
	C305.211975,213.942078 305.090393,190.947968 305.336212,167.957733 
	C305.366486,165.126816 306.701965,161.812317 308.503540,159.590225 
	C314.135468,152.643768 320.280701,146.113449 326.565125,139.041336 
	C322.791779,135.698914 319.352448,132.652328 315.537140,129.272736 
	C310.211914,135.198166 305.208984,141.158264 299.725220,146.637085 
	C297.985229,148.375504 294.992889,149.641800 292.523285,149.731064 
	C282.705658,150.085968 272.866150,149.782593 263.039032,149.959900 
	C259.813477,150.018097 258.654999,149.051727 258.688721,145.725281 
	C258.827148,132.064362 258.776794,118.400764 258.682556,104.738930 
	C258.663208,101.940598 259.700165,100.459938 262.125763,98.862396 
	C265.362061,96.730927 268.491364,93.902008 270.537231,90.659958 
	C272.311829,87.847733 273.941772,86.849770 277.148376,86.871590 
	C296.800873,87.005371 316.454742,86.938568 336.993622,86.938568 
	C336.993622,100.241875 336.993622,113.313004 336.993347,126.865204 
z"/>
<path fill="#FB826E" opacity="1.000000" stroke="none" 
	d="
M201.657257,430.805908 
	C183.870285,430.814636 166.553345,430.844543 149.236588,430.804321 
	C104.926888,430.701416 68.968262,399.437866 62.681538,355.631683 
	C60.553440,340.803009 58.329159,325.988129 56.148399,311.166992 
	C54.269176,298.395203 60.028332,287.711365 70.953644,283.703064 
	C81.441200,279.855347 93.120834,283.642426 98.729286,293.310486 
	C100.756340,296.804779 101.864479,301.004578 102.625687,305.027405 
	C104.637115,315.657532 106.115852,326.387177 108.010269,337.040985 
	C113.084587,365.577881 134.951721,383.837708 164.016953,383.905945 
	C177.146667,383.936737 190.276520,383.911133 204.053268,383.911133 
	C204.053268,389.974792 204.052719,395.737915 204.053421,401.501007 
	C204.054443,409.826416 204.148132,418.153778 203.971085,426.475372 
	C203.940186,427.927734 202.770905,429.355835 201.657257,430.805908 
z"/>
<path fill="#EDCEB3" opacity="1.000000" stroke="none" 
	d="
M95.030167,243.087769 
	C95.030167,248.537506 95.030167,253.987228 95.030167,259.546082 
	C100.438095,259.546082 105.456406,259.546082 109.808090,259.546082 
	C113.188560,269.363220 116.567101,279.174744 119.935501,288.956818 
	C116.761353,289.289795 114.028893,288.440918 111.652847,284.628876 
	C104.351921,272.915588 93.272667,267.226135 79.046654,266.565277 
	C79.046654,264.580658 79.046684,262.805267 79.046646,261.029846 
	C79.046188,241.211777 78.943405,221.392868 79.107956,201.576172 
	C79.157013,195.669083 77.315559,190.899155 73.003792,186.918854 
	C70.560814,184.663696 67.595787,182.532104 66.214851,179.689529 
	C64.758751,176.692215 63.934372,172.707962 64.608826,169.531784 
	C65.410080,165.758408 69.334778,164.842072 73.120468,165.008438 
	C74.917480,165.087402 76.720848,165.021988 79.054344,165.021988 
	C79.054344,160.109711 79.027603,155.496490 79.059929,150.883698 
	C79.126503,141.384995 83.755257,135.898056 93.993515,134.289230 
	C111.005440,134.695618 127.302971,134.791611 143.600632,134.851089 
	C144.049591,134.852722 144.500000,134.461990 144.949722,134.254227 
	C153.586319,145.713303 158.367737,158.911896 161.972687,172.583115 
	C163.195633,177.221008 163.528397,182.087250 164.588913,186.776566 
	C165.315460,189.989212 164.055649,191.200958 161.156250,192.035080 
	C156.048019,193.504684 151.101471,195.550278 145.973160,196.931122 
	C142.692032,197.814606 141.242599,199.261749 141.666580,202.784622 
	C142.000381,205.558167 141.733627,208.403992 141.733627,211.713898 
	C129.391571,212.204163 116.989929,214.133133 109.502258,200.626083 
	C104.741493,203.037247 100.353111,205.259827 95.995674,207.466721 
	C101.713509,222.723511 122.938248,231.147720 140.526840,228.059448 
	C139.997086,236.127548 133.586365,241.862869 123.038788,242.728867 
	C115.910591,242.267685 109.507500,242.012360 103.106445,242.056168 
	C100.412125,242.074585 97.722130,242.724762 95.030167,243.087769 
z"/>
<path fill="#F5D371" opacity="1.000000" stroke="none" 
	d="
M342.061340,403.123596 
	C332.625061,410.973602 327.476807,420.675781 331.292267,432.970886 
	C332.851837,437.996521 336.631439,442.333221 339.430603,447.032990 
	C336.443604,450.002472 332.837646,453.587250 329.085968,457.316925 
	C320.937653,447.975128 310.626282,444.389679 298.474335,449.387970 
	C286.363739,454.369263 281.545898,464.187286 282.090027,477.273193 
	C277.023346,477.273193 272.143402,477.273193 266.825623,477.273193 
	C267.413940,464.399139 262.569031,454.427795 250.306229,449.346191 
	C238.147141,444.307587 227.912720,448.060455 219.533157,457.539825 
	C215.576935,453.640594 211.844940,449.962341 207.751328,445.927673 
	C214.830444,443.704285 218.593399,438.776825 219.911163,432.307190 
	C224.993805,431.797241 229.724182,431.093994 234.468979,430.977234 
	C236.018326,430.939117 237.791382,432.191162 239.146912,433.254883 
	C257.343597,447.534454 277.271515,450.639435 298.110565,440.636230 
	C318.562897,430.818756 329.115448,413.590668 328.864594,390.925232 
	C328.615875,368.453674 317.681580,351.684479 297.330139,342.209259 
	C276.949554,332.720520 257.550659,335.918915 239.665451,349.445740 
	C237.475983,351.101685 234.488770,351.762482 231.804153,352.690308 
	C227.623428,354.135254 223.385193,355.413788 218.936234,356.838104 
	C218.662781,348.982391 215.035538,342.124756 208.144394,336.624054 
	C212.174042,333.053833 215.958420,329.700897 219.922897,326.188416 
	C225.479507,331.712067 232.403366,337.754395 241.121506,336.529358 
	C251.862762,335.020081 261.365692,329.923798 265.971802,318.031799 
	C267.040802,315.277863 267.336823,312.886566 268.077576,310.642029 
	C268.509216,309.334229 269.449768,307.488007 270.509705,307.209381 
	C277.018463,305.498535 279.777405,307.315857 281.233978,313.717773 
	C281.253693,313.804443 281.789001,313.773804 282.083679,313.797943 
	C284.589020,326.591309 293.727295,333.161102 305.093353,336.537933 
	C312.589233,338.764954 319.016937,334.150909 324.939117,329.857971 
	C326.534058,328.701813 327.845886,327.155060 329.602661,325.488831 
	C333.012421,329.367401 336.358673,333.173706 339.771393,337.055603 
	C326.836182,353.222778 326.685913,365.533356 340.100281,378.638428 
	C340.742249,379.370697 341.080872,379.561035 341.419464,379.751373 
	C341.419464,379.751373 341.185333,379.763123 341.337341,379.962708 
	C342.099365,380.400238 342.709412,380.638184 343.319427,380.876099 
	C343.816193,381.041687 344.312958,381.207245 345.133484,381.867432 
	C346.077118,382.480927 346.696991,382.599823 347.316864,382.718750 
	C347.316864,382.718750 347.134460,382.779938 347.328705,383.017181 
	C349.895020,383.842133 352.245331,384.806976 354.643341,384.945312 
	C361.252960,385.326538 358.394196,390.280029 358.957581,393.505005 
	C359.562195,396.965973 357.776062,397.817810 354.450806,398.168884 
	C351.272400,398.504486 348.242706,400.248444 345.147644,401.373352 
	C345.147644,401.373352 345.160095,401.209198 344.902008,401.219849 
	C344.172607,401.626770 343.701294,402.023071 343.230011,402.419373 
	C343.230011,402.419373 343.205536,402.233856 343.028931,402.308136 
	C342.588684,402.629486 342.325012,402.876526 342.061340,403.123596 
z"/>
<path fill="#B1D97E" opacity="1.000000" stroke="none" 
	d="
M426.916229,235.039795 
	C427.183990,235.238937 427.451721,235.438080 427.893127,236.146820 
	C428.523560,236.931229 428.980408,237.206024 429.437225,237.480820 
	C429.437225,237.480820 429.503265,237.529785 429.453003,237.918091 
	C430.575745,239.219299 431.748779,240.132202 432.921844,241.045105 
	C432.921844,241.045090 432.990845,241.012619 433.025146,241.331467 
	C433.505859,241.949738 433.952271,242.249161 434.398712,242.548569 
	C434.398712,242.548569 434.266022,242.720123 434.389282,242.942627 
	C434.977356,243.457962 435.442108,243.750809 435.906891,244.043640 
	C436.175415,244.244263 436.443909,244.444901 436.835144,245.067963 
	C437.296967,245.692871 437.636139,245.895355 437.975281,246.097824 
	C438.416382,246.118698 438.857452,246.139557 439.953552,245.997009 
	C441.604401,244.444077 442.600281,243.054565 443.596161,241.665054 
	C443.596161,241.665054 443.774170,241.779892 443.947113,241.647186 
	C444.432373,241.298553 444.543549,241.006088 444.453613,240.637070 
	C444.453613,240.637070 444.494507,240.575394 444.818970,240.511459 
	C445.415741,239.952271 445.688080,239.457001 445.960419,238.961746 
	C445.960419,238.961746 446.000000,239.000000 446.327148,238.927094 
	C447.368988,237.781189 448.083649,236.708191 448.798279,235.635193 
	C449.671661,234.519943 450.545013,233.404678 452.018982,232.080963 
	C455.915741,227.796234 459.211853,223.719986 462.507996,219.643738 
	C462.507965,219.643723 462.550629,219.564804 462.812622,219.509506 
	C463.367462,219.257919 463.455872,218.993210 463.339905,218.660095 
	C463.339905,218.660095 463.377899,218.501129 463.745697,218.439087 
	C464.381073,217.885452 464.648621,217.393860 464.916168,216.902252 
	C464.916168,216.902252 464.995148,216.987259 465.290710,216.903961 
	C466.276978,215.784409 466.967682,214.748154 467.658386,213.711884 
	C467.658386,213.711884 467.857117,213.874191 468.001831,213.697083 
	C468.427948,213.300858 468.545502,213.014420 468.499207,212.660675 
	C468.499207,212.660675 468.543213,212.566452 468.810608,212.508453 
	C469.365692,212.254379 469.452820,211.991653 469.339355,211.662262 
	C469.339355,211.662262 469.382568,211.505829 469.753418,211.436401 
	C470.391449,210.866898 470.658661,210.366837 470.925873,209.866791 
	C470.991180,209.711624 471.056519,209.556442 471.603210,209.168762 
	C472.607635,208.179794 473.130737,207.423309 473.653809,206.666824 
	C473.653809,206.666824 473.714111,206.663223 474.123779,206.795090 
	C475.071869,208.207962 476.075043,209.487839 476.078186,210.770142 
	C476.117310,226.792801 476.011536,242.815826 475.942902,258.838745 
	C451.287445,258.860809 426.631958,258.882874 401.497986,258.670959 
	C401.019470,258.436981 401.000397,258.052643 401.005554,257.580719 
	C401.033478,232.101166 401.056274,207.093521 401.538818,182.060028 
	C423.304230,182.024414 444.609985,181.985916 465.915405,182.046616 
	C468.207062,182.053146 470.497040,182.636383 472.787811,182.952118 
	C470.187714,186.116806 467.587646,189.281494 464.389771,192.709778 
	C463.008789,194.095535 462.225677,195.217712 461.442566,196.339874 
	C461.442535,196.339874 461.405792,196.382568 461.154114,196.450333 
	C460.603363,196.726242 460.505768,197.005035 460.609711,197.354477 
	C460.609711,197.354477 460.568329,197.466660 460.220398,197.528839 
	C459.603241,198.087494 459.334015,198.583969 459.064758,199.080429 
	C459.064758,199.080429 459.002747,199.010498 458.727417,199.100342 
	C458.033936,199.861557 457.615723,200.532898 457.197510,201.204239 
	C457.197510,201.204239 457.049286,201.054825 456.900604,201.218414 
	C456.596924,201.678238 456.441925,201.974472 456.286926,202.270706 
	C456.286926,202.270706 456.011505,202.039398 455.897949,202.263550 
	C455.612701,202.811218 455.440979,203.134720 455.269257,203.458221 
	C454.421844,204.566772 453.574463,205.675339 452.214417,207.033356 
	C451.443481,207.735428 451.185150,208.188065 450.926819,208.640701 
	C450.926819,208.640701 450.727325,209.000900 450.293701,209.195587 
	C449.700836,209.703079 449.541656,210.015915 449.382446,210.328735 
	C449.382446,210.328735 449.242676,210.246857 449.061890,210.376129 
	C448.591675,210.718979 448.486664,211.001236 448.566010,211.352158 
	C448.566010,211.352158 448.519379,211.432419 448.185852,211.504578 
	C447.589508,212.076721 447.326721,212.576691 447.063934,213.076660 
	C447.063934,213.076660 447.000061,213.009109 446.705505,213.082809 
	C445.588684,214.351517 444.766388,215.546509 443.944092,216.741516 
	C443.944122,216.741531 443.795563,217.072403 443.376892,217.246857 
	C442.811310,217.741806 442.664368,218.062317 442.517426,218.382828 
	C442.517426,218.382828 442.474335,218.431610 442.092163,218.489868 
	C439.715576,219.463257 437.721191,220.378372 435.726807,221.293488 
	C435.726807,221.293503 435.989014,221.006714 435.790009,220.897964 
	C435.303864,220.614258 435.016693,220.439301 434.729553,220.264328 
	C434.729553,220.264328 434.990509,219.998947 434.851440,219.778015 
	C433.723969,218.793076 432.735626,218.029068 431.747253,217.265076 
	C431.747253,217.265076 431.988434,217.018448 431.859314,216.789307 
	C430.428528,215.612900 429.206940,214.161377 427.790588,213.936539 
	C427.108887,213.828339 426.059998,216.033630 425.177368,217.191284 
	C425.177368,217.191284 425.079437,217.058960 424.896149,217.172073 
	C424.444397,217.701202 424.175934,218.117218 423.907471,218.533234 
	C423.907471,218.533234 423.663605,218.929901 423.103638,219.053864 
	C420.988464,220.986893 419.433258,222.795959 417.878052,224.605011 
	C417.873871,224.841171 417.869720,225.077316 417.750854,225.877991 
	C418.213440,226.800888 418.790680,227.159225 419.367950,227.517563 
	C419.367950,227.517563 419.432617,227.559494 419.483826,227.832581 
	C419.718231,228.427612 419.992981,228.560257 420.359222,228.503601 
	C420.359222,228.503601 420.434326,228.548645 420.483948,228.828735 
	C420.720215,229.431335 420.996918,229.559036 421.363647,229.491928 
	C421.363647,229.491928 421.445129,229.536499 421.491547,229.819489 
	C421.720734,230.428360 421.996063,230.557983 422.363892,230.491348 
	C422.363892,230.491348 422.447510,230.536148 422.489929,230.822968 
	C422.700653,231.442078 422.970520,231.592972 423.341858,231.562515 
	C423.341858,231.562515 423.283966,231.661896 423.422424,231.913239 
	C423.884949,232.336823 424.209015,232.509094 424.533051,232.681351 
	C424.533051,232.681351 424.819275,232.824081 424.949615,233.262085 
	C425.692047,234.146652 426.304138,234.593216 426.916229,235.039795 
z"/>
<path fill="#FD826E" opacity="1.000000" stroke="none" 
	d="
M63.202938,400.889740 
	C71.364464,409.364014 79.525993,417.838257 88.013680,426.812805 
	C88.663422,427.436829 88.987015,427.560608 89.310608,427.684357 
	C89.310608,427.684357 89.121178,427.812103 89.280365,428.025055 
	C89.978798,428.475555 90.518028,428.713104 91.057259,428.950653 
	C91.057259,428.950653 91.008057,429.003510 91.093796,429.304077 
	C91.915237,429.891571 92.650948,430.178497 93.386650,430.465454 
	C93.386650,430.465454 93.182602,430.790375 93.359543,430.983215 
	C94.750267,431.728455 95.964058,432.280853 97.177841,432.833252 
	C97.177834,432.833252 97.094604,432.891724 97.228142,433.171539 
	C103.097946,436.263275 108.755264,439.257416 114.610817,441.794006 
	C116.836334,442.758087 119.517677,442.669952 121.991280,443.061340 
	C122.436584,443.107941 122.881889,443.154572 123.725403,443.604462 
	C125.080070,444.090912 126.036522,444.174072 126.992973,444.257202 
	C127.425240,444.264709 127.857498,444.272186 128.694458,444.663788 
	C130.040161,445.099579 130.981140,445.151276 131.922134,445.202942 
	C132.690994,445.220551 133.459854,445.238190 134.763275,445.696014 
	C140.853729,446.735016 146.398270,447.529388 151.970154,447.852997 
	C154.920853,448.024414 156.154602,448.956116 156.096390,451.985779 
	C155.968536,458.641968 155.938690,465.305511 156.111832,471.959717 
	C156.201767,475.416595 154.546188,476.115723 151.527359,476.109314 
	C121.563423,476.045563 91.599091,476.015717 61.635517,476.136566 
	C57.779518,476.152130 56.790806,474.630157 56.885086,471.096893 
	C57.075954,463.943756 56.956543,456.782196 56.956219,449.624115 
	C56.955479,433.310364 56.941357,416.996582 56.954735,400.682831 
	C56.956604,398.402679 56.428905,395.652802 60.256927,396.073425 
	C60.863968,396.999451 61.471008,397.925507 62.206493,399.473724 
	C62.624271,400.360504 62.913612,400.625122 63.202938,400.889740 
z"/>
<path fill="#F9E7A7" opacity="1.000000" stroke="none" 
	d="
M69.984520,86.807610 
	C65.375206,86.807610 60.765888,86.807610 55.797825,86.807610 
	C55.797825,82.418739 55.806805,78.296608 55.796131,74.174538 
	C55.764759,62.055149 50.501354,56.474834 38.486000,55.788078 
	C38.045101,55.762875 37.613567,55.573784 36.448658,55.272572 
	C50.813362,35.222786 69.766670,24.534042 94.002357,24.515387 
	C118.263542,24.496712 137.217789,35.218479 150.657623,53.965431 
	C145.944519,56.625443 141.174561,58.467640 137.519592,61.607685 
	C133.468277,65.088264 133.734985,70.541756 133.904770,75.608994 
	C134.026077,79.229858 133.928329,82.858055 133.928329,86.730766 
	C128.622238,86.730766 123.696487,86.730766 118.076172,86.730766 
	C118.076172,76.899178 117.993744,66.989731 118.102310,57.082378 
	C118.188873,49.183311 114.713799,43.785496 106.895050,40.306137 
	C98.172302,39.606598 89.938164,39.248272 81.720757,39.481007 
	C80.139587,39.525787 78.624084,41.889462 77.078285,43.183380 
	C76.310471,44.071712 75.542664,44.960049 74.133148,46.024887 
	C73.107170,47.246609 72.722900,48.291824 72.338623,49.337040 
	C72.338623,49.337040 72.298759,49.185329 72.035049,49.395855 
	C71.656212,50.361305 71.541084,51.116226 71.425964,51.871151 
	C71.662514,52.131001 71.680176,52.404945 71.015572,53.134945 
	C70.362968,64.653809 70.173744,75.730705 69.984520,86.807610 
z"/>
<path fill="#B2D97F" opacity="1.000000" stroke="none" 
	d="
M232.043518,227.278412 
	C230.778687,227.380737 229.513840,227.483078 227.929077,227.611298 
	C227.929077,206.654984 227.929077,186.090103 227.929077,165.264389 
	C245.883560,165.264389 263.788422,165.264389 282.869965,165.264389 
	C274.515472,174.686569 266.674774,183.529282 258.158203,193.134247 
	C255.218292,189.447952 252.531769,186.079376 249.959000,182.853424 
	C245.717545,187.282318 242.329285,190.820297 239.355789,193.925217 
	C245.660690,200.224457 252.662201,207.219681 259.978729,214.529648 
	C268.286835,205.208328 277.217072,195.188995 286.846924,185.162842 
	C288.026367,186.629562 288.905060,188.098495 288.922150,189.577377 
	C289.043121,200.045654 288.828583,210.519623 289.068848,220.983780 
	C289.160583,224.978500 287.794739,226.119232 283.907227,226.074188 
	C268.287872,225.893265 252.665024,225.960846 237.044174,226.055420 
	C235.374878,226.065521 233.710297,226.852066 232.043518,227.278412 
z"/>
<path fill="#EECFB4" opacity="1.000000" stroke="none" 
	d="
M220.888306,378.528778 
	C223.251404,376.025391 225.505768,373.407257 228.001190,371.043579 
	C232.593735,366.693481 237.561981,367.448975 240.640991,372.911591 
	C242.653366,376.481842 244.494171,380.148834 247.050018,384.179901 
	C256.786163,384.431915 265.884094,384.276520 274.982025,384.121155 
	C280.144440,384.541595 282.096161,387.766510 282.106293,392.497620 
	C282.131775,404.388031 271.760529,414.748749 259.299225,414.957458 
	C246.847183,415.166016 234.388962,415.005066 221.473648,414.471161 
	C220.972000,402.133728 220.930145,390.331268 220.888306,378.528778 
z"/>
<path fill="#FBD770" opacity="1.000000" stroke="none" 
	d="
M180.568253,110.975212 
	C180.637436,112.058090 180.706635,113.140968 180.409271,114.701195 
	C179.674240,115.752487 179.305771,116.326439 178.472977,116.919235 
	C128.914703,116.954811 79.820770,116.980652 30.726877,116.947090 
	C29.147873,116.946014 27.569286,116.336571 25.995308,115.547699 
	C26.000134,114.253532 25.994251,113.422340 26.001083,112.591255 
	C26.079979,102.993904 25.011240,104.014885 34.486332,104.010612 
	C79.534897,103.990326 124.583504,104.017952 169.632050,103.979530 
	C174.489395,103.975388 179.940567,102.719849 179.753799,110.473511 
	C179.749939,110.634117 180.284744,110.807686 180.568253,110.975212 
z"/>
<path fill="#646B75" opacity="1.000000" stroke="none" 
	d="
M28.367180,173.546570 
	C24.452589,162.112610 23.354668,150.829422 25.255411,139.246216 
	C25.878479,135.449219 27.212349,133.637741 31.655140,133.787399 
	C43.273003,134.178741 54.912788,133.919296 66.545029,133.919296 
	C65.491470,139.236603 64.618378,144.238586 63.430626,149.164719 
	C63.175209,150.224030 61.928459,151.243591 60.892925,151.885620 
	C45.798939,161.243866 43.480785,178.818405 55.690575,191.799164 
	C56.716091,192.889450 57.670818,194.113510 58.883152,194.949539 
	C64.962746,199.142075 64.062561,204.984787 63.053307,211.525833 
	C47.452682,202.253159 34.834850,190.999557 28.367180,173.546570 
z"/>
<path fill="#DE2463" opacity="1.000000" stroke="none" 
	d="
M311.394714,377.764587 
	C316.687622,393.979370 313.739655,407.981079 301.766815,419.775726 
	C292.457947,428.946045 281.290405,432.384308 267.719025,430.516785 
	C273.497406,427.131012 279.054230,424.751587 283.542114,421.069336 
	C294.002502,412.486725 298.766632,401.179382 296.957550,387.537445 
	C295.713959,378.159790 287.941071,370.286011 278.594971,369.116180 
	C273.662109,368.498749 268.641937,368.465424 263.657990,368.395538 
	C255.226593,368.277283 255.225525,368.353058 251.228699,360.330719 
	C266.233459,346.264496 299.772461,348.993896 311.394714,377.764587 
z"/>
<path fill="#F6816E" opacity="1.000000" stroke="none" 
	d="
M139.917938,361.154846 
	C130.886887,354.586426 125.440895,346.162140 123.633034,335.449402 
	C121.950233,325.477814 120.244026,315.510193 118.445053,304.934906 
	C123.360840,305.216705 127.817680,305.246033 132.191589,305.863129 
	C133.474747,306.044159 134.785477,307.719299 135.638382,309.005005 
	C147.188019,326.415222 153.489136,345.676361 155.736588,367.224335 
	C149.837326,366.750458 144.916351,364.399139 139.917938,361.154846 
z"/>
<path fill="#F4D272" opacity="1.000000" stroke="none" 
	d="
M102.634285,67.029694 
	C102.634201,73.813141 102.634201,80.100899 102.634201,86.688370 
	C97.370621,86.688370 92.480423,86.688370 87.269821,86.688370 
	C87.269821,76.552498 87.269821,66.364731 87.269821,55.993958 
	C92.309807,55.993958 97.218681,55.993958 102.634369,55.993958 
	C102.634369,59.634155 102.634369,63.084084 102.634285,67.029694 
z"/>
<path fill="#CD7C6C" opacity="1.000000" stroke="none" 
	d="
M60.201218,395.764587 
	C56.428905,395.652802 56.956604,398.402679 56.954735,400.682831 
	C56.941357,416.996582 56.955479,433.310364 56.956219,449.624115 
	C56.956543,456.782196 57.075954,463.943756 56.885086,471.096893 
	C56.790806,474.630157 57.779518,476.152130 61.635517,476.136566 
	C91.599091,476.015717 121.563423,476.045563 151.527359,476.109314 
	C154.546188,476.115723 156.201767,475.416595 156.111832,471.959717 
	C155.938690,465.305511 155.968536,458.641968 156.096390,451.985779 
	C156.154602,448.956116 154.920853,448.024414 151.970154,447.852997 
	C146.398270,447.529388 140.853729,446.735016 135.130798,445.813599 
	C142.085556,445.490967 149.207336,445.490967 156.767288,445.490967 
	C156.767288,456.556885 156.767288,466.756805 156.767288,477.354248 
	C123.379105,477.354248 89.863449,477.354248 56.015705,477.354248 
	C56.015705,447.886993 56.015705,418.374908 56.015705,387.850616 
	C57.708969,390.968811 58.927238,393.212280 60.201218,395.764587 
z"/>
<path fill="#F1DC89" opacity="1.000000" stroke="none" 
	d="
M180.666565,110.547676 
	C180.284744,110.807686 179.749939,110.634117 179.753799,110.473511 
	C179.940567,102.719849 174.489395,103.975388 169.632050,103.979530 
	C124.583504,104.017952 79.534897,103.990326 34.486332,104.010612 
	C25.011240,104.014885 26.079979,102.993904 26.001083,112.591255 
	C25.994251,113.422340 26.000134,114.253532 25.791534,115.702713 
	C25.383574,116.786552 25.184187,117.252350 24.984798,117.718147 
	C24.711660,112.856697 24.438524,107.995247 24.152433,102.903252 
	C76.755196,102.903252 128.644958,102.903252 180.764862,102.903252 
	C180.764862,105.481789 180.764862,107.800964 180.666565,110.547676 
z"/>
<path fill="#F0D072" opacity="1.000000" stroke="none" 
	d="
M34.106060,71.172836 
	C36.048458,71.172958 37.543533,71.172958 39.999237,71.172958 
	C39.999237,75.796165 40.132954,80.366859 39.865837,84.914001 
	C39.822010,85.660141 38.048519,86.832962 37.016827,86.898247 
	C33.232594,87.137703 29.424057,86.993134 25.037468,86.993134 
	C25.830730,82.939575 26.640024,79.424232 27.181843,75.868141 
	C27.772081,71.994247 29.831671,70.437607 34.106060,71.172836 
z"/>
<path fill="#C1E197" opacity="1.000000" stroke="none" 
	d="
M359.017212,24.568020 
	C392.649933,24.526279 426.282623,24.484539 460.430695,24.777662 
	C461.023407,25.463045 461.100769,25.813566 460.691772,26.112221 
	C424.817749,26.054399 389.430084,26.048447 353.951782,25.922354 
	C353.861084,25.802212 353.680908,25.561029 354.007507,25.439974 
	C355.895142,25.068619 357.456177,24.818319 359.017212,24.568020 
z"/>
<path fill="#EA7D6D" opacity="1.000000" stroke="none" 
	d="
M256.471436,73.505363 
	C259.308807,76.972473 259.761627,80.316269 257.266571,83.753204 
	C254.869232,87.055496 250.588303,87.920815 247.120102,85.894783 
	C243.654083,83.870018 242.250031,79.672211 243.836090,76.076256 
	C245.576675,72.129936 249.584274,70.348373 253.615204,71.809433 
	C254.528183,72.140358 255.337357,72.757759 256.471436,73.505363 
z"/>
<path fill="#EBCD70" opacity="1.000000" stroke="none" 
	d="
M154.017517,71.170311 
	C158.673996,70.245949 160.452545,72.334747 161.081528,76.246292 
	C161.630524,79.660423 162.510178,83.021385 163.316391,86.741028 
	C158.675507,86.741028 154.422363,86.741028 149.359833,86.741028 
	C149.359833,82.275955 149.162094,77.701416 149.549301,73.176941 
	C149.615906,72.398727 152.171249,71.833504 154.017517,71.170311 
z"/>
<path fill="#EC7F6E" opacity="1.000000" stroke="none" 
	d="
M458.489563,385.263123 
	C461.749237,388.018890 463.397888,391.363037 460.999908,394.607513 
	C459.382629,396.795654 456.085266,399.106201 453.679596,398.965485 
	C451.251740,398.823486 448.035431,396.156067 446.969330,393.783905 
	C446.110992,391.874054 447.256226,388.226013 448.741241,386.293365 
	C451.079529,383.250214 454.696533,383.096497 458.489563,385.263123 
z"/>
<path fill="#C0DE98" opacity="1.000000" stroke="none" 
	d="
M232.494171,227.399811 
	C233.710297,226.852066 235.374878,226.065521 237.044174,226.055420 
	C252.665024,225.960846 268.287872,225.893265 283.907227,226.074188 
	C287.794739,226.119232 289.160583,224.978500 289.068848,220.983780 
	C288.828583,210.519623 289.043121,200.045654 288.922150,189.577377 
	C288.905060,188.098495 288.026367,186.629562 287.149414,185.035828 
	C287.546875,183.872711 288.341400,182.829819 289.649109,181.113297 
	C289.649109,196.932770 289.649109,211.959518 289.649109,227.521225 
	C270.824066,227.521225 251.884445,227.521225 232.494171,227.399811 
z"/>
<path fill="#F7E299" opacity="1.000000" stroke="none" 
	d="
M25.430992,117.878845 
	C25.184187,117.252350 25.383574,116.786552 25.786732,116.165741 
	C27.569286,116.336571 29.147873,116.946014 30.726877,116.947090 
	C79.820770,116.980652 128.914703,116.954811 178.675140,117.038452 
	C179.600281,117.319054 179.813644,117.542503 179.981750,117.809166 
	C178.994507,117.895172 178.007278,118.056343 177.020035,118.056404 
	C126.639084,118.059448 76.258133,118.048767 25.430992,117.878845 
z"/>
<path fill="#C4E497" opacity="1.000000" stroke="none" 
	d="
M401.079071,182.085892 
	C401.056274,207.093521 401.033478,232.101166 400.689148,257.594666 
	C400.159149,258.113617 399.950653,258.146637 399.742188,258.179688 
	C399.649628,238.591782 399.549957,219.003891 399.468994,199.415939 
	C399.445648,193.768280 399.476074,188.120392 399.775543,182.067261 
	C400.226196,181.597427 400.383118,181.532959 400.674683,181.622971 
	C400.809296,181.777435 401.079071,182.085892 401.079071,182.085892 
z"/>
<path fill="#96B071" opacity="1.000000" stroke="none" 
	d="
M476.354675,258.854370 
	C476.011536,242.815826 476.117310,226.792801 476.078186,210.770142 
	C476.075043,209.487839 475.071869,208.207962 474.121613,206.764954 
	C474.665619,205.298874 475.621429,203.994827 476.968475,202.156937 
	C477.396240,203.288849 477.759766,203.803070 477.760590,204.317871 
	C477.788666,221.308823 477.802429,238.299911 477.736938,255.290665 
	C477.732330,256.485016 477.104492,257.676910 476.354675,258.854370 
z"/>
<path fill="#C1E197" opacity="1.000000" stroke="none" 
	d="
M460.993744,117.989746 
	C425.638062,118.012779 390.282410,118.035805 354.359619,117.895332 
	C353.792542,117.731827 353.500885,117.548965 353.641663,117.395508 
	C353.782410,117.242043 354.064423,116.935593 354.526184,116.953575 
	C362.955658,116.978630 370.923462,117.006523 378.891144,116.988991 
	C406.277008,116.928749 433.662903,116.852608 461.097473,117.087181 
	C461.095398,117.591133 461.044556,117.790443 460.993744,117.989746 
z"/>
<path fill="#8CA16F" opacity="1.000000" stroke="none" 
	d="
M461.416260,117.850891 
	C461.044556,117.790443 461.095398,117.591133 460.978577,116.756233 
	C460.931366,112.853523 461.152618,109.586525 461.156311,106.319283 
	C461.186493,79.600914 461.176178,52.882492 461.178131,26.164089 
	C461.100769,25.813566 461.023407,25.463045 460.882141,24.846443 
	C461.245483,25.135490 462.046906,25.690948 462.046417,26.245705 
	C462.019775,56.734524 461.925842,87.223282 461.416260,117.850891 
z"/>
<path fill="#C1E197" opacity="1.000000" stroke="none" 
	d="
M352.738495,117.190186 
	C352.720245,87.114548 352.702026,57.038910 352.959442,26.392410 
	C353.383698,25.734711 353.532318,25.647869 353.680908,25.561029 
	C353.680908,25.561029 353.861084,25.802212 353.938293,26.386044 
	C354.031799,56.958447 354.048096,86.947021 354.064423,116.935593 
	C354.064423,116.935593 353.782410,117.242043 353.470215,117.265640 
	C353.158020,117.289238 352.738495,117.190186 352.738495,117.190186 
z"/>
<path fill="#C4E497" opacity="1.000000" stroke="none" 
	d="
M473.120819,182.704041 
	C470.497040,182.636383 468.207062,182.053146 465.915405,182.046616 
	C444.609985,181.985916 423.304230,182.024414 401.538818,182.060028 
	C401.079071,182.085892 400.809296,181.777435 400.816742,181.514130 
	C400.824188,181.250839 400.966431,180.922028 400.966431,180.922028 
	C424.237946,180.894501 447.509491,180.849030 470.780792,180.907822 
	C471.673126,180.910080 472.562866,181.917130 473.120819,182.704041 
z"/>
<path fill="#F1DD8C" opacity="1.000000" stroke="none" 
	d="
M345.566986,401.321899 
	C348.242706,400.248444 351.272400,398.504486 354.450806,398.168884 
	C357.776062,397.817810 359.562195,396.965973 358.957581,393.505005 
	C358.394196,390.280029 361.252960,385.326538 354.643341,384.945312 
	C352.245331,384.806976 349.895020,383.842133 347.315186,382.921936 
	C351.303436,383.194702 355.499451,383.799988 359.985107,384.447052 
	C359.985107,389.076172 359.985107,393.941864 359.985107,398.615570 
	C355.252502,399.513123 350.619415,400.391785 345.566986,401.321899 
z"/>
<path fill="#F8DFCB" opacity="1.000000" stroke="none" 
	d="
M144.504883,134.107666 
	C144.500000,134.461990 144.049591,134.852722 143.600632,134.851089 
	C127.302971,134.791611 111.005440,134.695618 94.374115,134.366821 
	C110.713577,134.073029 127.386818,134.017075 144.504883,134.107666 
z"/>
<path fill="#CD7C6C" opacity="1.000000" stroke="none" 
	d="
M121.713432,442.837646 
	C119.517677,442.669952 116.836334,442.758087 114.610817,441.794006 
	C108.755264,439.257416 103.097946,436.263275 97.237106,433.121460 
	C105.220215,436.065704 113.327904,439.339783 121.713432,442.837646 
z"/>
<path fill="#F5DE8F" opacity="1.000000" stroke="none" 
	d="
M282.151489,313.355286 
	C281.789001,313.773804 281.253693,313.804443 281.233978,313.717773 
	C279.777405,307.315857 277.018463,305.498535 270.509705,307.209381 
	C269.449768,307.488007 268.509216,309.334229 268.077576,310.642029 
	C267.336823,312.886566 267.040802,315.277863 266.210114,317.789917 
	C266.273987,314.081543 266.685791,310.190796 267.122803,306.061829 
	C271.938629,306.061829 276.804352,306.061829 282.219330,306.061829 
	C282.219330,308.412781 282.219330,310.662689 282.151489,313.355286 
z"/>
<path fill="#F4E6B9" opacity="1.000000" stroke="none" 
	d="
M77.439270,43.082375 
	C78.624084,41.889462 80.139587,39.525787 81.720757,39.481007 
	C89.938164,39.248272 98.172302,39.606598 106.628098,40.110172 
	C97.103981,40.534790 87.102798,37.730618 77.439270,43.082375 
z"/>
<path fill="#F5E0CD" opacity="1.000000" stroke="none" 
	d="
M220.530609,378.820068 
	C220.930145,390.331268 220.972000,402.133728 221.010895,414.395630 
	C220.633942,414.443542 219.932404,414.031006 219.933701,413.620697 
	C219.969940,402.117432 220.077271,390.614410 220.530609,378.820068 
z"/>
<path fill="#FEF8C1" opacity="1.000000" stroke="none" 
	d="
M70.419685,86.726143 
	C70.173744,75.730705 70.362968,64.653809 70.840721,53.270737 
	C71.037781,64.191269 70.946320,75.417976 70.419685,86.726143 
z"/>
<path fill="#96B071" opacity="1.000000" stroke="none" 
	d="
M462.229736,219.807281 
	C459.211853,223.719986 455.915741,227.796234 452.277924,231.918076 
	C455.274658,227.966064 458.613068,223.968445 462.229736,219.807281 
z"/>
<path fill="#F6DECA" opacity="1.000000" stroke="none" 
	d="
M274.521301,384.035461 
	C265.884094,384.276520 256.786163,384.431915 247.360275,384.339417 
	C256.041748,384.044281 265.051147,383.997040 274.521301,384.035461 
z"/>
<path fill="#F7DFC9" opacity="1.000000" stroke="none" 
	d="
M95.496567,243.076965 
	C97.722130,242.724762 100.412125,242.074585 103.106445,242.056168 
	C109.507500,242.012360 115.910591,242.267685 122.644745,242.646088 
	C113.972069,242.948746 104.967522,243.007446 95.496567,243.076965 
z"/>
<path fill="#96B071" opacity="1.000000" stroke="none" 
	d="
M435.831512,221.582245 
	C437.721191,220.378372 439.715576,219.463257 442.068237,218.511978 
	C440.346375,219.766769 440.720825,225.750000 435.831512,221.582245 
z"/>
<path fill="#96B071" opacity="1.000000" stroke="none" 
	d="
M425.490875,217.068024 
	C426.059998,216.033630 427.108887,213.828339 427.790588,213.936539 
	C429.206940,214.161377 430.428528,215.612900 431.733582,216.907257 
	C429.833527,215.731293 427.956543,213.701263 425.490875,217.068024 
z"/>
<path fill="#96B071" opacity="1.000000" stroke="none" 
	d="
M418.144470,224.439606 
	C419.433258,222.795959 420.988464,220.986893 422.895477,219.158051 
	C421.635132,220.850235 420.023010,222.562225 418.144470,224.439606 
z"/>
<path fill="#8CA16F" opacity="1.000000" stroke="none" 
	d="
M354.007507,25.439974 
	C353.532318,25.647869 353.383698,25.734711 352.999573,25.927294 
	C354.603821,25.443708 356.443604,24.854382 358.650299,24.416538 
	C357.456177,24.818319 355.895142,25.068619 354.007507,25.439974 
z"/>
<path fill="#96B071" opacity="1.000000" stroke="none" 
	d="
M443.313965,241.808426 
	C442.600281,243.054565 441.604401,244.444077 440.274963,245.901337 
	C440.971527,244.629990 442.001648,243.290894 443.313965,241.808426 
z"/>
<path fill="#96B071" opacity="1.000000" stroke="none" 
	d="
M444.203033,216.578644 
	C444.766388,215.546509 445.588684,214.351517 446.744751,213.107513 
	C446.206390,214.177597 445.334198,215.296677 444.203033,216.578644 
z"/>
<path fill="#96B071" opacity="1.000000" stroke="none" 
	d="
M461.702545,196.205566 
	C462.225677,195.217712 463.008789,194.095535 464.120911,192.935349 
	C463.620758,193.955307 462.791626,195.013275 461.702545,196.205566 
z"/>
<path fill="#96B071" opacity="1.000000" stroke="none" 
	d="
M432.808167,240.757812 
	C431.748779,240.132202 430.575745,239.219299 429.475433,237.952545 
	C430.596924,238.555969 431.645691,239.513245 432.808167,240.757812 
z"/>
<path fill="#96B071" opacity="1.000000" stroke="none" 
	d="
M448.508362,235.774292 
	C448.083649,236.708191 447.368988,237.781189 446.307068,238.908417 
	C446.712708,237.946213 447.465576,236.929794 448.508362,235.774292 
z"/>
<path fill="#96B071" opacity="1.000000" stroke="none" 
	d="
M467.376495,213.840378 
	C466.967682,214.748154 466.276978,215.784409 465.242554,216.871643 
	C465.630768,215.938049 466.362701,214.953461 467.376495,213.840378 
z"/>
<path fill="#96B071" opacity="1.000000" stroke="none" 
	d="
M431.853027,217.556366 
	C432.735626,218.029068 433.723969,218.793076 434.719299,219.910355 
	C433.803802,219.458328 432.881317,218.653000 431.853027,217.556366 
z"/>
<path fill="#CD7C6C" opacity="1.000000" stroke="none" 
	d="
M131.658325,445.021240 
	C130.981140,445.151276 130.040161,445.099579 128.995514,444.789001 
	C129.726089,444.633209 130.560303,444.736359 131.658325,445.021240 
z"/>
<path fill="#CD7C6C" opacity="1.000000" stroke="none" 
	d="
M97.012550,432.553101 
	C95.964058,432.280853 94.750267,431.728455 93.480133,430.834015 
	C94.564949,431.085602 95.706100,431.679260 97.012550,432.553101 
z"/>
<path fill="#F4E6B9" opacity="1.000000" stroke="none" 
	d="
M72.596100,49.146461 
	C72.722900,48.291824 73.107170,47.246609 73.861870,46.146301 
	C73.772728,47.046104 73.313156,48.000996 72.596100,49.146461 
z"/>
<path fill="#CD7C6C" opacity="1.000000" stroke="none" 
	d="
M126.719719,444.082153 
	C126.036522,444.174072 125.080070,444.090912 124.032974,443.744232 
	C124.777054,443.622833 125.611763,443.764984 126.719719,444.082153 
z"/>
<path fill="#F1DC89" opacity="1.000000" stroke="none" 
	d="
M180.305695,117.725433 
	C179.813644,117.542503 179.600281,117.319054 179.139481,117.019600 
	C179.305771,116.326439 179.674240,115.752487 180.300766,115.096008 
	C180.582443,115.889549 180.606033,116.765625 180.305695,117.725433 
z"/>
<path fill="#96B071" opacity="1.000000" stroke="none" 
	d="
M473.400208,206.778931 
	C473.130737,207.423309 472.607635,208.179794 471.803650,209.015076 
	C472.064026,208.359604 472.605316,207.625320 473.400208,206.778931 
z"/>
<path fill="#96B071" opacity="1.000000" stroke="none" 
	d="
M419.268585,227.269043 
	C418.790680,227.159225 418.213440,226.800888 417.790161,226.230072 
	C418.352478,226.351913 418.760864,226.686234 419.268585,227.269043 
z"/>
<path fill="#96B071" opacity="1.000000" stroke="none" 
	d="
M457.473297,201.091446 
	C457.615723,200.532898 458.033936,199.861557 458.767426,199.124451 
	C458.638184,199.698685 458.193634,200.338669 457.473297,201.091446 
z"/>
<path fill="#CD7C6C" opacity="1.000000" stroke="none" 
	d="
M93.216202,430.232483 
	C92.650948,430.178497 91.915237,429.891571 91.111351,429.273071 
	C91.710701,429.294159 92.378227,429.646820 93.216202,430.232483 
z"/>
<path fill="#96B071" opacity="1.000000" stroke="none" 
	d="
M426.819458,234.770905 
	C426.304138,234.593216 425.692047,234.146652 425.024170,233.403549 
	C425.553162,233.572037 426.137939,234.037033 426.819458,234.770905 
z"/>
<path fill="#F1DD8C" opacity="1.000000" stroke="none" 
	d="
M343.141541,380.608734 
	C342.709412,380.638184 342.099365,380.400238 341.351746,379.846375 
	C341.797302,379.800781 342.380463,380.071075 343.141541,380.608734 
z"/>
<path fill="#F1DD8C" opacity="1.000000" stroke="none" 
	d="
M347.112610,382.476562 
	C346.696991,382.599823 346.077118,382.480927 345.264435,382.101196 
	C345.683868,381.971741 346.296143,382.103058 347.112610,382.476562 
z"/>
<path fill="#96B071" opacity="1.000000" stroke="none" 
	d="
M459.318024,198.976562 
	C459.334015,198.583969 459.603241,198.087494 460.168274,197.558105 
	C460.166473,197.974335 459.868896,198.423508 459.318024,198.976562 
z"/>
<path fill="#96B071" opacity="1.000000" stroke="none" 
	d="
M435.814453,243.789520 
	C435.442108,243.750809 434.977356,243.457962 434.477020,242.878876 
	C434.868317,242.906876 435.295166,243.221146 435.814453,243.789520 
z"/>
<path fill="#96B071" opacity="1.000000" stroke="none" 
	d="
M451.145813,208.498642 
	C451.185150,208.188065 451.443481,207.735428 451.955200,207.186279 
	C451.927338,207.512039 451.646088,207.934311 451.145813,208.498642 
z"/>
<path fill="#F1DD8C" opacity="1.000000" stroke="none" 
	d="
M343.534729,402.362091 
	C343.701294,402.023071 344.172607,401.626770 344.980774,401.243652 
	C344.824921,401.606110 344.332214,401.955475 343.534729,402.362091 
z"/>
<path fill="#CD7C6C" opacity="1.000000" stroke="none" 
	d="
M90.920624,428.694122 
	C90.518028,428.713104 89.978798,428.475555 89.356018,427.939453 
	C89.776321,427.906464 90.280159,428.172028 90.920624,428.694122 
z"/>
<path fill="#F4E6B9" opacity="1.000000" stroke="none" 
	d="
M71.660355,51.590675 
	C71.541084,51.116226 71.656212,50.361305 72.113388,49.399567 
	C72.268539,49.898563 72.081642,50.604382 71.660355,51.590675 
z"/>
<path fill="#96B071" opacity="1.000000" stroke="none" 
	d="
M437.885651,245.859268 
	C437.636139,245.895355 437.296967,245.692871 436.959045,245.289230 
	C437.238861,245.265610 437.517426,245.443161 437.885651,245.859268 
z"/>
<path fill="#96B071" opacity="1.000000" stroke="none" 
	d="
M447.317352,212.966476 
	C447.326721,212.576691 447.589508,212.076721 448.145264,211.527115 
	C448.149078,211.937073 447.859924,212.396683 447.317352,212.966476 
z"/>
<path fill="#96B071" opacity="1.000000" stroke="none" 
	d="
M470.673828,209.975189 
	C470.658661,210.366837 470.391449,210.866898 469.827942,211.404282 
	C469.828339,210.988937 470.125031,210.536285 470.673828,209.975189 
z"/>
<path fill="#96B071" opacity="1.000000" stroke="none" 
	d="
M464.662231,216.998718 
	C464.648621,217.393860 464.381073,217.885452 463.819519,218.404022 
	C463.819794,217.985733 464.114044,217.540466 464.662231,216.998718 
z"/>
<path fill="#96B071" opacity="1.000000" stroke="none" 
	d="
M429.324036,237.240891 
	C428.980408,237.206024 428.523560,236.931229 428.013702,236.369095 
	C428.377380,236.388168 428.794098,236.694565 429.324036,237.240891 
z"/>
<path fill="#96B071" opacity="1.000000" stroke="none" 
	d="
M424.137329,218.432098 
	C424.175934,218.117218 424.444397,217.701202 424.963104,217.219940 
	C424.931305,217.546799 424.649261,217.938873 424.137329,218.432098 
z"/>
<path fill="#96B071" opacity="1.000000" stroke="none" 
	d="
M445.705139,239.065842 
	C445.688080,239.457001 445.415741,239.952271 444.846741,240.487030 
	C444.850006,240.074326 445.149933,239.622131 445.705139,239.065842 
z"/>
<path fill="#96B071" opacity="1.000000" stroke="none" 
	d="
M434.300537,242.298248 
	C433.952271,242.249161 433.505859,241.949738 433.006683,241.364822 
	C433.370087,241.402206 433.786224,241.725082 434.300537,242.298248 
z"/>
<path fill="#8CA16F" opacity="1.000000" stroke="none" 
	d="
M352.786774,117.499084 
	C352.738495,117.190186 353.158020,117.289238 353.329468,117.419098 
	C353.500885,117.548965 353.792542,117.731827 353.890747,117.873161 
	C353.604309,117.945656 353.219666,117.876823 352.786774,117.499084 
z"/>
<path fill="#96B071" opacity="1.000000" stroke="none" 
	d="
M468.282715,212.752441 
	C468.545502,213.014420 468.427948,213.300858 467.918243,213.599777 
	C467.686554,213.343094 467.811981,213.064636 468.282715,212.752441 
z"/>
<path fill="#96B071" opacity="1.000000" stroke="none" 
	d="
M442.758423,218.276184 
	C442.664368,218.062317 442.811310,217.741806 443.220795,217.339127 
	C443.322021,217.561142 443.160706,217.865326 442.758423,218.276184 
z"/>
<path fill="#96B071" opacity="1.000000" stroke="none" 
	d="
M400.665619,180.856049 
	C400.966431,180.922028 400.824188,181.250839 400.682129,181.359680 
	C400.383118,181.532959 400.226196,181.597427 399.815552,181.636475 
	C399.829498,181.337387 400.097137,181.063721 400.665619,180.856049 
z"/>
<path fill="#96B071" opacity="1.000000" stroke="none" 
	d="
M469.152283,211.738159 
	C469.452820,211.991653 469.365692,212.254379 468.858215,212.487579 
	C468.625763,212.231918 468.734711,211.995041 469.152283,211.738159 
z"/>
<path fill="#96B071" opacity="1.000000" stroke="none" 
	d="
M463.154602,218.738953 
	C463.455872,218.993210 463.367462,219.257919 462.852112,219.488190 
	C462.626953,219.231522 462.740234,218.996735 463.154602,218.738953 
z"/>
<path fill="#96B071" opacity="1.000000" stroke="none" 
	d="
M434.804779,220.511780 
	C435.016693,220.439301 435.303864,220.614258 435.660187,221.040619 
	C435.446259,221.114426 435.163116,220.936829 434.804779,220.511780 
z"/>
<path fill="#CD7C6C" opacity="1.000000" stroke="none" 
	d="
M89.189453,427.443573 
	C88.987015,427.560608 88.663422,427.436829 88.207413,427.080933 
	C88.406090,426.966797 88.737198,427.084808 89.189453,427.443573 
z"/>
<path fill="#96B071" opacity="1.000000" stroke="none" 
	d="
M420.289001,228.290802 
	C419.992981,228.560257 419.718231,228.427612 419.504913,227.864838 
	C419.795563,227.656143 420.043549,227.807480 420.289001,228.290802 
z"/>
<path fill="#F1DD8C" opacity="1.000000" stroke="none" 
	d="
M342.344147,403.087158 
	C342.325012,402.876526 342.588684,402.629486 343.122070,402.317017 
	C343.136871,402.518005 342.881897,402.784363 342.344147,403.087158 
z"/>
<path fill="#96B071" opacity="1.000000" stroke="none" 
	d="
M448.773987,211.264633 
	C448.486664,211.001236 448.591675,210.718979 449.110474,210.440918 
	C449.351593,210.701889 449.232300,210.968781 448.773987,211.264633 
z"/>
<path fill="#CD7C6C" opacity="1.000000" stroke="none" 
	d="
M63.147423,400.596375 
	C62.913612,400.625122 62.624271,400.360504 62.294136,399.796570 
	C62.532856,399.765808 62.812378,400.034393 63.147423,400.596375 
z"/>
<path fill="#96B071" opacity="1.000000" stroke="none" 
	d="
M460.806976,197.266876 
	C460.505768,197.005035 460.603363,196.726242 461.133881,196.469925 
	C461.367920,196.732864 461.247589,196.985367 460.806976,197.266876 
z"/>
<path fill="#96B071" opacity="1.000000" stroke="none" 
	d="
M421.290710,229.281647 
	C420.996918,229.559036 420.720215,229.431335 420.504028,228.867645 
	C420.792725,228.656982 421.040497,228.805283 421.290710,229.281647 
z"/>
<path fill="#96B071" opacity="1.000000" stroke="none" 
	d="
M422.293060,230.281448 
	C421.996063,230.557983 421.720734,230.428360 421.513000,229.860657 
	C421.803986,229.654236 422.048706,229.805130 422.293060,230.281448 
z"/>
<path fill="#96B071" opacity="1.000000" stroke="none" 
	d="
M423.282532,231.342133 
	C422.970520,231.592972 422.700653,231.442078 422.511414,230.865265 
	C422.815399,230.669693 423.059662,230.836685 423.282532,231.342133 
z"/>
<path fill="#96B071" opacity="1.000000" stroke="none" 
	d="
M424.423523,232.428711 
	C424.209015,232.509094 423.884949,232.336823 423.475708,231.891541 
	C423.698364,231.804382 424.006195,231.990234 424.423523,232.428711 
z"/>
<path fill="#F1DD8C" opacity="1.000000" stroke="none" 
	d="
M341.284485,379.486542 
	C341.080872,379.561035 340.742249,379.370697 340.260010,378.922363 
	C340.460724,378.850159 340.805115,379.035950 341.284485,379.486542 
z"/>
<path fill="#96B071" opacity="1.000000" stroke="none" 
	d="
M456.529968,202.177490 
	C456.441925,201.974472 456.596924,201.678238 456.987488,201.277802 
	C457.073029,201.477173 456.923035,201.780731 456.529968,202.177490 
z"/>
<path fill="#96B071" opacity="1.000000" stroke="none" 
	d="
M455.526733,203.343842 
	C455.440979,203.134720 455.612701,202.811218 456.041992,202.370972 
	C456.127808,202.579315 455.956024,202.904388 455.526733,203.343842 
z"/>
<path fill="#96B071" opacity="1.000000" stroke="none" 
	d="
M444.246033,240.732971 
	C444.543549,241.006088 444.432373,241.298553 443.876892,241.567871 
	C443.642822,241.292877 443.777710,241.028748 444.246033,240.732971 
z"/>
<path fill="#96B071" opacity="1.000000" stroke="none" 
	d="
M449.631592,210.228241 
	C449.541656,210.015915 449.700836,209.703079 450.110962,209.290375 
	C450.201477,209.502899 450.041107,209.815323 449.631592,210.228241 
z"/>
<path fill="#96B071" opacity="1.000000" stroke="none" 
	d="
M399.836365,258.458862 
	C399.950653,258.146637 400.159149,258.113617 400.684021,258.066589 
	C401.000397,258.052643 401.019470,258.436981 401.034180,258.628845 
	C400.676086,258.793121 400.303345,258.765564 399.836365,258.458862 
z"/>
<path fill="#B3DC7F" opacity="1.000000" stroke="none" 
	d="
M354.526184,116.953575 
	C354.048096,86.947021 354.031799,56.958447 354.028961,26.506186 
	C389.430084,26.048447 424.817749,26.054399 460.691772,26.112221 
	C461.176178,52.882492 461.186493,79.600914 461.156311,106.319283 
	C461.152618,109.586525 460.931366,112.853523 460.929871,116.451584 
	C433.662903,116.852608 406.277008,116.928749 378.891144,116.988991 
	C370.923462,117.006523 362.955658,116.978630 354.526184,116.953575 
M407.121979,64.603218 
	C401.868164,70.725945 396.614380,76.848679 390.455322,84.026352 
	C387.302612,80.191483 384.584503,76.885239 382.015167,73.759972 
	C377.955200,77.694862 374.406097,81.134636 371.373932,84.073364 
	C378.444977,91.296173 385.389587,98.389870 392.547852,105.701797 
	C409.704620,85.683594 426.977295,65.530151 444.438507,45.156719 
	C440.278656,41.589336 436.532318,38.376572 432.608948,35.011986 
	C424.087433,44.905609 415.835571,54.486176 407.121979,64.603218 
z"/>
<path fill="#050804" opacity="1.000000" stroke="none" 
	d="
M407.352844,64.334976 
	C415.835571,54.486176 424.087433,44.905609 432.608948,35.011986 
	C436.532318,38.376572 440.278656,41.589336 444.438507,45.156719 
	C426.977295,65.530151 409.704620,85.683594 392.547852,105.701797 
	C385.389587,98.389870 378.444977,91.296173 371.373932,84.073364 
	C374.406097,81.134636 377.955200,77.694862 382.015167,73.759972 
	C384.584503,76.885239 387.302612,80.191483 390.455322,84.026352 
	C396.614380,76.848679 401.868164,70.725945 407.352844,64.334976 
z"/>
</svg>