<svg version="1.1" id="Layer_1" xmlns="http://www.w3.org/2000/svg" xmlns:xlink="http://www.w3.org/1999/xlink" x="0px" y="0px"
	 width="100%" viewBox="0 0 661 240" enable-background="new 0 0 661 240" xml:space="preserve">
<path  opacity="0" stroke="none" 
	d="
M0.999999,164.000000 
	C1.000000,109.709900 1.000000,55.419804 1.000000,1.000000 
	C129.687531,1.000000 258.375122,1.000000 387.353516,1.324292 
	C387.069946,2.796101 386.209015,3.885670 385.963440,5.099710 
	C381.242859,28.438250 376.618195,51.796158 371.924622,75.140198 
	C367.100769,99.132156 362.191101,123.106903 357.389374,147.103256 
	C355.779022,155.150925 354.318817,163.230408 352.919312,171.317719 
	C352.202911,175.457352 353.728699,177.419052 358.344910,177.174316 
	C364.822662,176.830887 371.339233,176.915421 377.825897,177.163879 
	C381.462585,177.303146 383.461304,176.030762 384.170502,172.466873 
	C385.741943,164.570007 388.235718,156.752640 388.830627,148.789108 
	C389.797455,135.846603 398.794464,129.690414 408.147400,122.540123 
	C409.600830,125.969635 410.862946,128.788589 411.999847,131.657181 
	C417.355896,145.171829 422.548004,158.754242 428.150116,172.165665 
	C428.999390,174.198792 431.621246,176.742020 433.553619,176.856995 
	C442.184845,177.370514 450.865143,177.191605 459.523987,177.044342 
	C462.986847,176.985474 464.975311,175.264008 463.384674,171.505386 
	C461.133820,166.186737 458.823059,160.891251 456.423157,155.638290 
	C448.858521,139.080826 441.261414,122.538094 433.623444,106.014366 
	C432.252350,103.048164 432.709076,100.802185 435.127777,98.487785 
	C446.539551,87.568031 457.838593,76.530205 469.146606,65.502426 
	C472.603302,62.131432 476.143677,58.814491 479.266846,55.149876 
	C480.403107,53.816605 481.029663,51.434986 480.721619,49.744343 
	C480.568115,48.901913 477.792633,48.077591 476.184052,48.038792 
	C468.859497,47.862122 461.520416,48.170410 454.202148,47.893173 
	C449.990997,47.733643 446.958923,49.222538 444.111725,52.173950 
	C430.835968,65.935638 417.437805,79.579239 404.072601,93.254509 
	C402.999908,94.352074 401.845184,95.369446 400.728577,96.424095 
	C400.431122,92.302612 400.879883,88.740562 401.595978,85.233078 
	C406.032593,63.501827 410.664490,41.809269 414.920776,20.043097 
	C416.141876,13.798645 416.335327,7.353253 417.000000,0.999999 
	C449.687561,1.000000 482.375122,1.000000 515.693970,1.361832 
	C514.528442,8.672838 512.432617,15.563992 511.068146,22.597042 
	C510.438904,25.840576 513.068542,27.104223 516.225098,27.073977 
	C523.054932,27.008528 529.898315,26.803001 536.711792,27.143223 
	C541.188660,27.366770 543.145203,25.244274 543.934509,21.355175 
	C544.719604,17.486835 544.861816,13.390725 546.262390,9.772477 
	C547.611023,6.288426 546.608337,3.746781 545.000000,1.000000 
	C583.984314,1.000000 622.968689,1.000000 661.976501,1.000000 
	C661.976501,80.952194 661.976501,160.904388 661.976501,240.928299 
	C441.666687,240.928299 221.333344,240.928299 1.000000,240.928299 
	C1.000000,217.585175 1.000000,194.261246 1.335331,170.322052 
	C3.418440,171.686279 5.253998,173.596069 6.893589,175.661453 
	C9.405993,178.826294 12.210704,178.745300 15.115359,176.474991 
	C23.316780,170.064667 31.463129,163.583664 39.613621,157.108414 
	C55.145500,144.768875 70.677994,132.430038 86.184235,120.058350 
	C93.360725,114.332588 100.476196,108.530342 108.100021,102.374649 
	C98.277657,91.168228 89.224197,80.869247 80.205887,70.539581 
	C74.003998,63.435886 67.889275,56.255859 61.664799,49.172161 
	C55.758961,42.451077 49.676895,35.883350 43.839966,29.103857 
	C41.032410,25.842930 38.188618,26.129539 35.167728,28.375275 
	C32.381775,30.446363 29.874468,32.906216 27.018484,34.865482 
	C23.771572,37.092930 24.215151,39.522980 26.335859,41.944038 
	C34.303104,51.039684 42.431877,59.993793 50.403915,69.085297 
	C59.243073,79.165703 68.064796,89.265602 76.619560,99.584610 
	C77.466774,100.606552 77.120949,103.955017 76.094597,104.948303 
	C72.670769,108.261810 68.673828,110.980507 64.916718,113.952690 
	C49.756294,125.945847 34.628361,137.980255 19.435541,149.932190 
	C13.360845,154.711044 7.149269,159.315933 0.999999,164.000000 
M264.306396,202.790756 
	C264.306396,202.790756 264.347534,202.905136 263.934418,202.002213 
	C264.308502,198.466599 264.682587,194.930984 265.052643,191.433578 
	C258.075439,190.410782 258.056122,190.406204 256.635529,196.398102 
	C255.765396,200.068100 254.880783,203.738037 254.151703,207.437378 
	C252.639175,215.111862 251.225952,222.805954 249.773010,230.486084 
	C257.207672,231.848633 257.718475,231.579529 258.971741,225.151978 
	C259.790100,220.954834 260.003693,216.586899 261.310547,212.562531 
	C261.873932,210.827591 264.517181,209.768051 266.215576,208.401688 
	C266.909058,210.308090 268.328613,212.281509 268.159973,214.108307 
	C267.653412,219.594498 266.527252,225.023468 265.580597,230.858521 
	C268.504272,230.858521 270.590057,230.858521 273.122131,230.858521 
	C274.478027,224.059052 276.246613,217.359772 276.942535,210.550858 
	C277.194092,208.090103 275.504425,204.658401 273.571533,202.938995 
	C271.055817,200.701157 267.417664,199.872772 264.306396,202.790756 
M628.907898,84.894104 
	C628.754517,89.594849 629.224976,94.416191 628.343384,98.976151 
	C623.725281,122.864357 618.731323,146.679703 613.952698,170.537323 
	C613.077148,174.908661 615.012817,177.025208 619.643860,177.074692 
	C625.976013,177.142365 632.320190,176.869904 638.638855,177.170944 
	C643.561768,177.405487 645.389038,174.935425 646.219788,170.590714 
	C648.628967,157.991287 651.270996,145.436539 653.710632,132.842728 
	C657.411621,113.737129 662.363281,94.840683 661.144287,75.026840 
	C660.628418,66.641144 657.587646,60.056744 651.492004,54.659115 
	C639.030334,43.624523 625.059448,44.087925 610.643311,49.740570 
	C605.989136,51.565502 601.675537,54.258957 597.123840,56.597374 
	C597.123840,55.739346 597.017700,54.908680 597.141174,54.113697 
	C597.890137,49.292431 595.926025,47.556103 591.055908,47.886463 
	C585.581665,48.257801 580.062561,47.957500 574.562927,47.966331 
	C568.198853,47.976551 567.119934,49.087959 565.871399,55.513462 
	C561.731445,76.819008 557.497925,98.106506 553.249268,119.390762 
	C549.870056,136.319794 546.388855,153.228455 543.013489,170.158249 
	C542.075134,174.864731 543.916138,177.032806 548.769836,177.075974 
	C555.268921,177.133759 561.776245,176.906967 568.265747,177.163712 
	C572.561035,177.333649 574.371338,174.977600 575.070068,171.414871 
	C579.468994,148.985870 583.697693,126.523308 588.148010,104.104652 
	C589.822144,95.671043 591.770691,87.425873 598.525940,81.026367 
	C606.377014,73.588791 624.409241,71.412819 628.907898,84.894104 
M264.053131,57.445782 
	C255.105942,65.082550 247.694931,74.025154 243.077087,84.842239 
	C235.537643,102.503098 232.258514,120.911133 233.756149,140.257751 
	C235.026337,156.666000 247.365295,172.079865 263.229370,176.219376 
	C272.605103,178.665802 281.805573,179.602112 291.556488,178.321289 
	C305.043182,176.549728 317.089844,171.953918 327.800842,163.718872 
	C331.005798,161.254791 331.170746,158.220184 328.726685,155.062256 
	C325.898529,151.408096 322.972107,147.829163 320.183350,144.145660 
	C317.468597,140.559937 314.239380,139.624344 311.018402,142.587662 
	C304.993713,148.130447 297.646210,150.589996 289.992340,151.706589 
	C280.361481,153.111618 268.384674,150.584290 265.306885,140.018738 
	C264.176514,136.138443 264.630066,131.816864 264.151611,127.721039 
	C263.645660,123.389580 265.233215,121.946350 269.705109,121.989532 
	C291.523163,122.200188 313.346466,121.922409 335.162781,122.210075 
	C340.395874,122.279076 342.276459,119.957466 343.087433,115.468048 
	C344.897308,105.449089 345.763733,95.424355 345.154449,85.195473 
	C344.307831,70.982437 332.488770,54.752659 319.167694,49.813999 
	C299.649170,42.577705 281.640228,45.650330 264.053131,57.445782 
M514.046143,171.131210 
	C516.088135,160.646561 518.108032,150.157547 520.177002,139.678238 
	C523.741638,121.623413 527.341187,103.575478 530.917480,85.522957 
	C532.963684,75.194702 535.077087,64.878647 536.991760,54.525948 
	C537.841797,49.929379 536.111206,48.033192 531.400085,47.985237 
	C525.070923,47.920815 518.726929,48.219425 512.415527,47.877945 
	C507.990112,47.638519 505.970337,49.615719 505.190521,53.586708 
	C501.740356,71.155800 498.340057,88.734917 494.816437,106.289276 
	C491.969849,120.470833 488.954773,134.618500 486.050293,148.788559 
	C484.631317,155.711273 483.200623,162.633926 481.949860,169.588043 
	C480.989716,174.926392 482.837067,177.042953 488.188477,177.077881 
	C494.184906,177.117020 500.195892,176.847488 506.173584,177.187286 
	C510.372345,177.425964 512.879395,176.053268 514.046143,171.131210 
M146.193100,40.270782 
	C143.108307,36.605095 139.952621,32.996140 136.960159,29.256577 
	C134.357208,26.003763 131.613922,26.421827 128.755234,28.682238 
	C125.771797,31.041296 122.809113,33.435360 119.961952,35.954918 
	C118.085411,37.615536 117.086693,39.491425 119.205910,41.888348 
	C123.150200,46.349487 126.872849,51.006847 130.825104,55.460640 
	C142.041718,68.100594 153.364532,80.646416 164.559479,93.305412 
	C167.254623,96.353020 169.616257,99.695541 172.495285,103.366631 
	C165.398529,108.885841 158.723877,113.982109 152.151306,119.206802 
	C135.342514,132.568512 118.696358,146.137970 101.753525,159.326782 
	C91.649963,167.191681 91.555603,167.158798 100.387260,176.217072 
	C103.546616,179.457504 105.826385,179.325912 109.187431,176.620102 
	C125.145325,163.773209 141.276794,151.142166 157.315201,138.394943 
	C170.639420,127.804916 183.889160,117.120918 197.244934,106.571037 
	C200.095703,104.319183 201.080475,102.447456 198.166565,99.356857 
	C192.944489,93.818169 188.034088,87.985237 183.004532,82.265526 
	C170.868271,68.463867 158.738449,54.656559 146.193100,40.270782 
M95.576096,127.022903 
	C81.518761,138.261475 67.513771,149.566422 53.383923,160.713074 
	C45.244404,167.134094 45.566677,167.276566 51.585606,173.304916 
	C52.271065,173.991455 52.627190,174.994446 53.245613,175.762451 
	C55.819847,178.959320 58.365761,179.787949 62.012291,176.772476 
	C71.943665,168.559769 82.102516,160.619904 92.235588,152.653793 
	C111.835632,137.245224 131.489883,121.905617 151.094147,106.502380 
	C153.807587,104.370399 154.031540,101.716293 151.780945,99.140968 
	C144.158966,90.419250 136.415207,81.803932 128.794128,73.081421 
	C123.029686,66.483871 117.440468,59.733067 111.666786,53.143764 
	C104.462326,44.921551 97.287430,36.662243 89.733948,28.769020 
	C88.586754,27.570223 85.017281,27.400137 83.347916,28.262894 
	C80.031059,29.977114 77.223328,32.700058 74.269203,35.085426 
	C71.676048,37.179321 70.942070,39.484989 73.466553,42.289791 
	C78.114777,47.454151 82.662292,52.709480 87.230980,57.945049 
	C98.543282,70.908607 109.760750,83.956261 121.189461,96.816254 
	C125.853119,102.063980 125.840088,103.593849 120.379738,107.790001 
	C112.264717,114.026230 104.283951,120.437172 95.576096,127.022903 
M411.022369,203.288879 
	C405.843231,208.091217 405.253540,214.423218 404.830231,220.953918 
	C404.492889,226.158691 407.398438,228.664719 411.655792,229.875610 
	C413.441864,230.383575 415.616913,229.523880 417.868896,229.255753 
	C416.727722,233.355530 414.160004,236.277069 410.664215,234.365417 
	C406.146179,231.894730 404.585480,235.044998 401.655334,237.053238 
	C402.504364,237.971222 403.149963,239.268967 403.787872,239.265198 
	C409.482452,239.231476 415.190369,239.130417 420.855530,238.619156 
	C421.845612,238.529816 423.034058,236.558319 423.478638,235.236710 
	C425.092072,230.440079 426.680634,225.607727 427.804260,220.680679 
	C429.173004,214.678925 430.062653,208.567886 431.230194,202.113480 
	C427.519165,202.113480 424.499054,202.024078 421.486542,202.137527 
	C418.193695,202.261551 414.907898,202.573181 411.022369,203.288879 
M506.245880,240.009293 
	C510.616272,240.363037 514.563965,239.250702 515.786316,234.701721 
	C518.646362,224.058182 521.033936,213.287689 523.607788,202.589386 
	C517.905212,202.014557 513.255493,200.965469 508.677582,201.218109 
	C501.506836,201.613815 496.860291,209.095566 496.828827,219.120911 
	C496.806580,226.213074 498.462128,229.058151 503.651245,229.890472 
	C505.557068,230.196152 507.619629,229.524521 509.891205,229.266876 
	C508.873383,233.218674 506.304260,235.998291 503.107483,234.522842 
	C498.708588,232.492584 496.553314,234.225906 493.977203,237.243347 
	C496.971375,241.886627 501.579132,239.278183 506.245880,240.009293 
M598.314392,228.854279 
	C599.608459,222.929626 601.190186,217.048752 602.100952,211.065750 
	C602.767883,206.684311 600.656982,203.122070 596.263245,201.929688 
	C593.802124,201.261795 591.011169,201.809525 588.391602,201.809525 
	C589.023865,198.180283 589.601746,194.863037 590.176331,191.564468 
	C582.997803,190.183960 582.553345,190.300049 581.180481,196.525986 
	C579.555542,203.895752 578.273254,211.341370 576.861023,218.757629 
	C576.112305,222.689606 575.402832,226.629059 574.657288,230.664703 
	C579.775574,231.622589 583.217224,231.874268 583.523621,225.747208 
	C583.733521,221.550858 584.801147,217.255371 586.319031,213.326279 
	C587.081299,211.353195 589.703613,210.098679 591.484741,208.519196 
	C592.057556,210.491837 593.303650,212.546265 593.075928,214.421677 
	C592.413696,219.874695 591.161072,225.255997 589.922485,231.817886 
	C593.144531,230.987198 595.633606,230.345490 598.314392,228.854279 
M335.588531,226.176849 
	C336.536194,224.015808 337.483887,221.854767 338.697113,219.088196 
	C343.064667,224.357437 341.584717,234.462021 352.688171,230.207047 
	C351.138000,226.636993 349.865662,222.939789 347.985962,219.582642 
	C345.893982,215.846375 345.853760,213.028900 349.476715,210.164566 
	C352.219177,207.996338 354.436371,205.163727 356.781158,202.736679 
	C348.377289,198.264526 345.243317,207.107849 338.969971,209.522232 
	C340.216125,202.856400 341.294159,197.089676 342.355957,191.409866 
	C336.738464,190.115356 333.683746,190.821533 333.414886,196.560944 
	C333.232849,200.447433 332.046539,204.289658 331.277710,208.145340 
	C329.787964,215.616318 328.275940,223.082825 326.769684,230.568481 
	C333.991547,231.682114 334.344147,231.519028 335.588531,226.176849 
M528.280396,227.013184 
	C534.370300,232.873444 543.277283,232.680710 548.842590,226.475113 
	C547.629822,224.986679 546.405334,223.483765 545.222595,222.032166 
	C537.493103,225.336731 534.533875,224.630951 534.596985,219.119324 
	C539.992981,219.119324 545.406189,219.119324 550.689331,219.119324 
	C551.144287,217.332779 551.445618,216.055801 551.795715,214.792343 
	C552.989929,210.482773 551.548889,206.644196 548.497986,203.974747 
	C545.343384,201.214493 541.363098,200.189346 536.975708,201.928909 
	C528.428345,205.317871 524.408081,215.765900 528.280396,227.013184 
M631.087280,206.895798 
	C629.091736,205.243668 627.349304,202.885239 625.056213,202.063705 
	C615.924683,198.792313 608.442749,206.303711 607.071533,215.284317 
	C606.489380,219.096832 606.769165,224.018539 608.766418,227.043594 
	C612.909790,233.319351 623.048889,232.681503 628.794312,226.521942 
	C627.734985,224.985306 626.653137,223.416046 625.623535,221.922501 
	C617.103394,225.382355 614.118164,224.644485 614.804199,219.488235 
	C615.119202,219.399353 615.433472,219.236526 615.749390,219.233032 
	C619.075928,219.196213 622.402710,219.180161 625.729431,219.167450 
	C631.459106,219.145569 632.205383,218.437332 632.088989,212.528625 
	C632.057190,210.913879 631.530334,209.308899 631.087280,206.895798 
M384.454987,201.886566 
	C382.338867,201.886566 380.222748,201.886566 378.140869,201.886566 
	C376.279175,211.860214 374.523621,221.265213 372.783844,230.585876 
	C378.536926,232.156143 381.394196,230.944412 381.777374,225.176605 
	C382.046967,221.118713 382.865204,216.949799 384.334961,213.179947 
	C385.095612,211.228912 387.806610,210.038239 389.636475,208.504044 
	C390.146210,210.482864 391.271393,212.534241 391.048248,214.426651 
	C390.421722,219.739639 389.239380,224.987106 388.188324,230.741623 
	C390.997162,230.741623 393.228546,230.741623 396.105713,230.741623 
	C397.412842,223.975540 399.184692,217.127838 399.946320,210.169571 
	C400.627686,203.944702 396.085846,200.613678 389.811096,201.768005 
	C388.367950,202.033508 386.856720,201.928909 384.454987,201.886566 
M304.529846,201.874634 
	C303.323456,202.732162 301.270050,203.410324 301.044495,204.475525 
	C299.216949,213.105850 297.732361,221.808792 296.083069,230.818146 
	C298.660339,230.818146 301.216278,230.818146 303.668976,230.818146 
	C305.143463,224.563812 306.318481,218.438446 308.156372,212.518860 
	C308.669922,210.864792 311.139435,209.818008 312.711670,208.492661 
	C313.453217,210.429291 314.275482,212.341232 314.880402,214.319641 
	C315.034607,214.824020 314.412537,215.523087 314.294983,216.159988 
	C313.397583,221.021759 312.536835,225.890289 311.392365,232.276382 
	C315.281616,230.967758 319.347595,230.586105 319.631714,229.341263 
	C321.269012,222.167465 322.449158,214.815582 322.887299,207.470551 
	C323.134460,203.326935 318.473541,200.534882 314.413208,201.117523 
	C311.430481,201.545502 308.399017,201.633545 304.529846,201.874634 
M466.939209,220.491913 
	C468.284760,227.803360 470.170654,230.139343 475.495148,231.089798 
	C480.955505,232.064514 486.802948,229.717316 488.734833,224.757767 
	C490.486206,220.261566 491.398956,215.360199 492.089478,210.552460 
	C492.716400,206.187653 490.084473,203.402206 486.103485,201.955643 
	C479.103851,199.412186 470.800842,204.063141 468.932404,211.545547 
	C468.258820,214.243118 467.678009,216.963852 466.939209,220.491913 
M464.289490,207.723236 
	C466.666901,204.043701 464.650482,202.343018 461.179291,201.362198 
	C461.483795,198.981247 461.766754,196.768600 462.078491,194.330811 
	C457.747345,193.672211 454.040680,192.839462 453.412994,198.719452 
	C453.256348,200.186813 451.376190,201.392151 450.708801,202.903641 
	C449.951202,204.619293 448.699707,207.604889 449.344086,208.191330 
	C451.988556,210.598221 450.458649,212.917175 450.223206,215.416763 
	C449.844940,219.432648 448.883423,223.810318 450.086121,227.390976 
	C450.733887,229.319443 455.303680,230.203857 458.259125,230.859344 
	C458.869263,230.994659 460.882568,228.045868 460.924286,226.483185 
	C460.958099,225.216919 459.002899,223.897522 457.081879,221.577576 
	C457.678406,218.481171 458.538727,214.015564 459.370972,209.695816 
	C461.115479,209.221542 462.514709,208.841141 464.289490,207.723236 
M561.492310,200.776901 
	C558.406677,202.587616 556.765320,204.969315 558.141602,208.708389 
	C558.557251,209.837494 558.978638,211.127594 558.829651,212.269928 
	C558.428528,215.346497 557.752197,218.389542 557.127625,221.434067 
	C556.277405,225.578476 557.664307,228.975479 561.605469,230.175629 
	C563.788330,230.840347 567.866211,230.477280 568.747803,229.089569 
	C570.359009,226.553238 569.603271,223.273758 565.112305,223.252182 
	C565.881470,219.007492 566.464783,215.134277 567.362793,211.335419 
	C567.564453,210.481995 568.822937,209.341232 569.668640,209.275055 
	C572.526062,209.051498 573.707214,207.472443 573.088196,205.013977 
	C572.692566,203.442596 571.228577,202.140198 569.793091,200.066467 
	C569.842834,199.001709 569.947205,196.767365 570.048645,194.596725 
	C562.833923,193.306290 562.427063,193.594940 561.492310,200.776901 
M231.985687,222.610458 
	C233.419952,225.170654 234.299225,228.550705 236.471252,230.021072 
	C238.090118,231.116959 242.628098,230.671555 243.667770,229.275497 
	C245.833054,226.367889 244.652664,223.393677 240.297821,223.282944 
	C240.601410,221.248550 240.421097,219.397980 241.167282,218.066727 
	C242.950043,214.886154 240.393768,209.146118 246.834625,208.444763 
	C247.495956,208.372742 248.277985,203.091324 248.156036,203.054749 
	C243.238724,201.580109 245.872284,197.428452 245.299362,194.675949 
	C238.357971,193.162308 238.279739,193.232910 236.836243,199.720856 
	C236.638474,200.609787 236.217911,201.970856 235.603867,202.162399 
	C230.953690,203.613037 233.018661,206.457336 233.944107,209.138000 
	C234.232941,209.974625 234.589203,210.929245 234.447006,211.748718 
	C233.858292,215.141647 233.090469,218.503494 231.985687,222.610458 
M659.833740,205.912155 
	C659.378113,204.621811 658.966858,202.230408 658.460083,202.209961 
	C652.867493,201.984543 647.255859,202.038132 641.662598,202.299072 
	C641.054443,202.327454 640.224182,204.068146 640.013428,205.118256 
	C638.311829,213.598679 636.733948,222.103943 635.116211,230.612350 
	C643.045349,231.830154 643.337585,231.526535 644.263306,224.370956 
	C644.726074,220.793259 645.114014,217.020111 646.594788,213.826324 
	C647.555054,211.755081 650.282349,210.313400 652.486633,209.063705 
	C654.554443,207.891403 656.975708,207.342453 659.833740,205.912155 
M283.949829,213.504730 
	C282.816437,219.175583 281.683044,224.846420 280.549652,230.517273 
	C281.046051,231.013077 281.542450,231.508865 282.038849,232.004669 
	C284.328461,230.845306 288.206451,230.105011 288.641449,228.456345 
	C290.906311,219.871979 292.294800,211.056381 294.038574,202.062424 
	C291.124542,202.062424 288.854004,202.062424 286.301270,202.062424 
	C285.504028,205.676346 284.735809,209.158783 283.949829,213.504730 
M368.207458,216.353699 
	C368.879181,211.618927 369.550873,206.884140 370.222565,202.149368 
	C369.713013,201.712753 369.203430,201.276154 368.693848,200.839539 
	C366.454041,202.135437 362.682220,203.040100 362.234406,204.793640 
	C360.066437,213.282898 358.791351,222.000168 357.166687,230.816284 
	C359.898834,230.816284 362.307526,230.816284 364.679749,230.816284 
	C365.875763,226.083908 366.995911,221.651703 368.207458,216.353699 
M365.636566,198.104172 
	C372.084320,198.141403 372.084320,198.141403 372.127655,192.228394 
	C363.803864,191.379791 362.905273,192.075867 365.636566,198.104172 
M294.106598,198.051636 
	C294.864441,196.274475 295.622284,194.497314 296.443298,192.571976 
	C288.147552,191.126160 287.220093,191.723297 287.435791,198.144424 
	C289.351776,198.144424 291.287476,198.144424 294.106598,198.051636 
z"/>
<path fill="#FCFDFD" opacity="1.000000" stroke="none" 
	d="
M416.531311,0.999999 
	C416.335327,7.353253 416.141876,13.798645 414.920776,20.043097 
	C410.664490,41.809269 406.032593,63.501827 401.595978,85.233078 
	C400.879883,88.740562 400.431122,92.302612 400.728577,96.424095 
	C401.845184,95.369446 402.999908,94.352074 404.072601,93.254509 
	C417.437805,79.579239 430.835968,65.935638 444.111725,52.173950 
	C446.958923,49.222538 449.990997,47.733643 454.202148,47.893173 
	C461.520416,48.170410 468.859497,47.862122 476.184052,48.038792 
	C477.792633,48.077591 480.568115,48.901913 480.721619,49.744343 
	C481.029663,51.434986 480.403107,53.816605 479.266846,55.149876 
	C476.143677,58.814491 472.603302,62.131432 469.146606,65.502426 
	C457.838593,76.530205 446.539551,87.568031 435.127777,98.487785 
	C432.709076,100.802185 432.252350,103.048164 433.623444,106.014366 
	C441.261414,122.538094 448.858521,139.080826 456.423157,155.638290 
	C458.823059,160.891251 461.133820,166.186737 463.384674,171.505386 
	C464.975311,175.264008 462.986847,176.985474 459.523987,177.044342 
	C450.865143,177.191605 442.184845,177.370514 433.553619,176.856995 
	C431.621246,176.742020 428.999390,174.198792 428.150116,172.165665 
	C422.548004,158.754242 417.355896,145.171829 411.999847,131.657181 
	C410.862946,128.788589 409.600830,125.969635 408.147400,122.540123 
	C398.794464,129.690414 389.797455,135.846603 388.830627,148.789108 
	C388.235718,156.752640 385.741943,164.570007 384.170502,172.466873 
	C383.461304,176.030762 381.462585,177.303146 377.825897,177.163879 
	C371.339233,176.915421 364.822662,176.830887 358.344910,177.174316 
	C353.728699,177.419052 352.202911,175.457352 352.919312,171.317719 
	C354.318817,163.230408 355.779022,155.150925 357.389374,147.103256 
	C362.191101,123.106903 367.100769,99.132156 371.924622,75.140198 
	C376.618195,51.796158 381.242859,28.438250 385.963440,5.099710 
	C386.209015,3.885670 387.069946,2.796101 387.822205,1.324292 
	C397.354218,1.000000 406.708466,1.000000 416.531311,0.999999 
z"/>
<path fill="#FAFBFB" opacity="1.000000" stroke="none" 
	d="
M0.999999,164.428467 
	C7.149269,159.315933 13.360845,154.711044 19.435541,149.932190 
	C34.628361,137.980255 49.756294,125.945847 64.916718,113.952690 
	C68.673828,110.980507 72.670769,108.261810 76.094597,104.948303 
	C77.120949,103.955017 77.466774,100.606552 76.619560,99.584610 
	C68.064796,89.265602 59.243073,79.165703 50.403915,69.085297 
	C42.431877,59.993793 34.303104,51.039684 26.335859,41.944038 
	C24.215151,39.522980 23.771572,37.092930 27.018484,34.865482 
	C29.874468,32.906216 32.381775,30.446363 35.167728,28.375275 
	C38.188618,26.129539 41.032410,25.842930 43.839966,29.103857 
	C49.676895,35.883350 55.758961,42.451077 61.664799,49.172161 
	C67.889275,56.255859 74.003998,63.435886 80.205887,70.539581 
	C89.224197,80.869247 98.277657,91.168228 108.100021,102.374649 
	C100.476196,108.530342 93.360725,114.332588 86.184235,120.058350 
	C70.677994,132.430038 55.145500,144.768875 39.613621,157.108414 
	C31.463129,163.583664 23.316780,170.064667 15.115359,176.474991 
	C12.210704,178.745300 9.405993,178.826294 6.893589,175.661453 
	C5.253998,173.596069 3.418440,171.686279 1.335331,169.853394 
	C1.000000,168.285645 1.000000,166.571289 0.999999,164.428467 
z"/>
<path fill="#FBFCFC" opacity="1.000000" stroke="none" 
	d="
M544.531372,1.000000 
	C546.608337,3.746781 547.611023,6.288426 546.262390,9.772477 
	C544.861816,13.390725 544.719604,17.486835 543.934509,21.355175 
	C543.145203,25.244274 541.188660,27.366770 536.711792,27.143223 
	C529.898315,26.803001 523.054932,27.008528 516.225098,27.073977 
	C513.068542,27.104223 510.438904,25.840576 511.068146,22.597042 
	C512.432617,15.563992 514.528442,8.672838 516.162598,1.361832 
	C525.354248,1.000000 534.708435,1.000000 544.531372,1.000000 
z"/>
<path fill="#FCFDFD" opacity="1.000000" stroke="none" 
	d="
M628.870605,84.496399 
	C624.409241,71.412819 606.377014,73.588791 598.525940,81.026367 
	C591.770691,87.425873 589.822144,95.671043 588.148010,104.104652 
	C583.697693,126.523308 579.468994,148.985870 575.070068,171.414871 
	C574.371338,174.977600 572.561035,177.333649 568.265747,177.163712 
	C561.776245,176.906967 555.268921,177.133759 548.769836,177.075974 
	C543.916138,177.032806 542.075134,174.864731 543.013489,170.158249 
	C546.388855,153.228455 549.870056,136.319794 553.249268,119.390762 
	C557.497925,98.106506 561.731445,76.819008 565.871399,55.513462 
	C567.119934,49.087959 568.198853,47.976551 574.562927,47.966331 
	C580.062561,47.957500 585.581665,48.257801 591.055908,47.886463 
	C595.926025,47.556103 597.890137,49.292431 597.141174,54.113697 
	C597.017700,54.908680 597.123840,55.739346 597.123840,56.597374 
	C601.675537,54.258957 605.989136,51.565502 610.643311,49.740570 
	C625.059448,44.087925 639.030334,43.624523 651.492004,54.659115 
	C657.587646,60.056744 660.628418,66.641144 661.144287,75.026840 
	C662.363281,94.840683 657.411621,113.737129 653.710632,132.842728 
	C651.270996,145.436539 648.628967,157.991287 646.219788,170.590714 
	C645.389038,174.935425 643.561768,177.405487 638.638855,177.170944 
	C632.320190,176.869904 625.976013,177.142365 619.643860,177.074692 
	C615.012817,177.025208 613.077148,174.908661 613.952698,170.537323 
	C618.731323,146.679703 623.725281,122.864357 628.343384,98.976151 
	C629.224976,94.416191 628.754517,89.594849 628.870605,84.496399 
z"/>
<path fill="#FCFDFD" opacity="1.000000" stroke="none" 
	d="
M264.367188,57.265900 
	C281.640228,45.650330 299.649170,42.577705 319.167694,49.813999 
	C332.488770,54.752659 344.307831,70.982437 345.154449,85.195473 
	C345.763733,95.424355 344.897308,105.449089 343.087433,115.468048 
	C342.276459,119.957466 340.395874,122.279076 335.162781,122.210075 
	C313.346466,121.922409 291.523163,122.200188 269.705109,121.989532 
	C265.233215,121.946350 263.645660,123.389580 264.151611,127.721039 
	C264.630066,131.816864 264.176514,136.138443 265.306885,140.018738 
	C268.384674,150.584290 280.361481,153.111618 289.992340,151.706589 
	C297.646210,150.589996 304.993713,148.130447 311.018402,142.587662 
	C314.239380,139.624344 317.468597,140.559937 320.183350,144.145660 
	C322.972107,147.829163 325.898529,151.408096 328.726685,155.062256 
	C331.170746,158.220184 331.005798,161.254791 327.800842,163.718872 
	C317.089844,171.953918 305.043182,176.549728 291.556488,178.321289 
	C281.805573,179.602112 272.605103,178.665802 263.229370,176.219376 
	C247.365295,172.079865 235.026337,156.666000 233.756149,140.257751 
	C232.258514,120.911133 235.537643,102.503098 243.077087,84.842239 
	C247.694931,74.025154 255.105942,65.082550 264.367188,57.265900 
M296.626923,72.147919 
	C281.910156,74.013054 274.230865,83.466316 269.997467,96.722954 
	C269.193939,99.239288 269.076630,100.963593 272.445709,100.958504 
	C285.424835,100.938896 298.405457,101.037453 311.380920,100.819809 
	C312.599365,100.799377 314.750519,98.942612 314.838837,97.811188 
	C315.801056,85.486359 314.740082,74.528084 296.626923,72.147919 
z"/>
<path fill="#FCFCFD" opacity="1.000000" stroke="none" 
	d="
M513.901733,171.523468 
	C512.879395,176.053268 510.372345,177.425964 506.173584,177.187286 
	C500.195892,176.847488 494.184906,177.117020 488.188477,177.077881 
	C482.837067,177.042953 480.989716,174.926392 481.949860,169.588043 
	C483.200623,162.633926 484.631317,155.711273 486.050293,148.788559 
	C488.954773,134.618500 491.969849,120.470833 494.816437,106.289276 
	C498.340057,88.734917 501.740356,71.155800 505.190521,53.586708 
	C505.970337,49.615719 507.990112,47.638519 512.415527,47.877945 
	C518.726929,48.219425 525.070923,47.920815 531.400085,47.985237 
	C536.111206,48.033192 537.841797,49.929379 536.991760,54.525948 
	C535.077087,64.878647 532.963684,75.194702 530.917480,85.522957 
	C527.341187,103.575478 523.741638,121.623413 520.177002,139.678238 
	C518.108032,150.157547 516.088135,160.646561 513.901733,171.523468 
z"/>
<path fill="#FAFBFB" opacity="1.000000" stroke="none" 
	d="
M146.399567,40.561157 
	C158.738449,54.656559 170.868271,68.463867 183.004532,82.265526 
	C188.034088,87.985237 192.944489,93.818169 198.166565,99.356857 
	C201.080475,102.447456 200.095703,104.319183 197.244934,106.571037 
	C183.889160,117.120918 170.639420,127.804916 157.315201,138.394943 
	C141.276794,151.142166 125.145325,163.773209 109.187431,176.620102 
	C105.826385,179.325912 103.546616,179.457504 100.387260,176.217072 
	C91.555603,167.158798 91.649963,167.191681 101.753525,159.326782 
	C118.696358,146.137970 135.342514,132.568512 152.151306,119.206802 
	C158.723877,113.982109 165.398529,108.885841 172.495285,103.366631 
	C169.616257,99.695541 167.254623,96.353020 164.559479,93.305412 
	C153.364532,80.646416 142.041718,68.100594 130.825104,55.460640 
	C126.872849,51.006847 123.150200,46.349487 119.205910,41.888348 
	C117.086693,39.491425 118.085411,37.615536 119.961952,35.954918 
	C122.809113,33.435360 125.771797,31.041296 128.755234,28.682238 
	C131.613922,26.421827 134.357208,26.003763 136.960159,29.256577 
	C139.952621,32.996140 143.108307,36.605095 146.399567,40.561157 
z"/>
<path fill="#FAFBFB" opacity="1.000000" stroke="none" 
	d="
M95.911072,126.898331 
	C104.283951,120.437172 112.264717,114.026230 120.379738,107.790001 
	C125.840088,103.593849 125.853119,102.063980 121.189461,96.816254 
	C109.760750,83.956261 98.543282,70.908607 87.230980,57.945049 
	C82.662292,52.709480 78.114777,47.454151 73.466553,42.289791 
	C70.942070,39.484989 71.676048,37.179321 74.269203,35.085426 
	C77.223328,32.700058 80.031059,29.977114 83.347916,28.262894 
	C85.017281,27.400137 88.586754,27.570223 89.733948,28.769020 
	C97.287430,36.662243 104.462326,44.921551 111.666786,53.143764 
	C117.440468,59.733067 123.029686,66.483871 128.794128,73.081421 
	C136.415207,81.803932 144.158966,90.419250 151.780945,99.140968 
	C154.031540,101.716293 153.807587,104.370399 151.094147,106.502380 
	C131.489883,121.905617 111.835632,137.245224 92.235588,152.653793 
	C82.102516,160.619904 71.943665,168.559769 62.012291,176.772476 
	C58.365761,179.787949 55.819847,178.959320 53.245613,175.762451 
	C52.627190,174.994446 52.271065,173.991455 51.585606,173.304916 
	C45.566677,167.276566 45.244404,167.134094 53.383923,160.713074 
	C67.513771,149.566422 81.518761,138.261475 95.911072,126.898331 
z"/>
<path fill="#F6F6F7" opacity="1.000000" stroke="none" 
	d="
M411.320709,203.045959 
	C414.907898,202.573181 418.193695,202.261551 421.486542,202.137527 
	C424.499054,202.024078 427.519165,202.113480 431.230194,202.113480 
	C430.062653,208.567886 429.173004,214.678925 427.804260,220.680679 
	C426.680634,225.607727 425.092072,230.440079 423.478638,235.236710 
	C423.034058,236.558319 421.845612,238.529816 420.855530,238.619156 
	C415.190369,239.130417 409.482452,239.231476 403.787872,239.265198 
	C403.149963,239.268967 402.504364,237.971222 401.655334,237.053238 
	C404.585480,235.044998 406.146179,231.894730 410.664215,234.365417 
	C414.160004,236.277069 416.727722,233.355530 417.868896,229.255753 
	C415.616913,229.523880 413.441864,230.383575 411.655792,229.875610 
	C407.398438,228.664719 404.492889,226.158691 404.830231,220.953918 
	C405.253540,214.423218 405.843231,208.091217 411.320709,203.045959 
M413.029755,219.218292 
	C413.664520,220.423569 414.299286,221.628830 414.934052,222.834076 
	C416.166351,222.165268 418.155121,221.757965 418.493164,220.780045 
	C419.636414,217.472580 420.695770,213.978973 420.806824,210.524994 
	C420.885956,208.065414 418.211548,206.991226 416.747009,209.178360 
	C414.944885,211.869614 414.220459,215.282501 413.029755,219.218292 
z"/>
<path fill="#F6F6F7" opacity="1.000000" stroke="none" 
	d="
M505.791992,240.009415 
	C501.579132,239.278183 496.971375,241.886627 493.977203,237.243347 
	C496.553314,234.225906 498.708588,232.492584 503.107483,234.522842 
	C506.304260,235.998291 508.873383,233.218674 509.891205,229.266876 
	C507.619629,229.524521 505.557068,230.196152 503.651245,229.890472 
	C498.462128,229.058151 496.806580,226.213074 496.828827,219.120911 
	C496.860291,209.095566 501.506836,201.613815 508.677582,201.218109 
	C513.255493,200.965469 517.905212,202.014557 523.607788,202.589386 
	C521.033936,213.287689 518.646362,224.058182 515.786316,234.701721 
	C514.563965,239.250702 510.616272,240.363037 505.791992,240.009415 
M505.138916,217.558121 
	C505.580780,219.769638 503.838837,223.809723 508.671722,222.534012 
	C511.632660,221.752426 513.928040,214.779175 512.805908,210.665039 
	C512.538147,209.683289 511.082062,208.183609 510.395172,208.294998 
	C505.966827,209.013138 506.020569,212.975830 505.156342,216.228973 
	C505.115051,216.384476 505.145233,216.558990 505.138916,217.558121 
z"/>
<path fill="#F5F6F7" opacity="1.000000" stroke="none" 
	d="
M598.218567,229.279022 
	C595.633606,230.345490 593.144531,230.987198 589.922485,231.817886 
	C591.161072,225.255997 592.413696,219.874695 593.075928,214.421677 
	C593.303650,212.546265 592.057556,210.491837 591.484741,208.519196 
	C589.703613,210.098679 587.081299,211.353195 586.319031,213.326279 
	C584.801147,217.255371 583.733521,221.550858 583.523621,225.747208 
	C583.217224,231.874268 579.775574,231.622589 574.657288,230.664703 
	C575.402832,226.629059 576.112305,222.689606 576.861023,218.757629 
	C578.273254,211.341370 579.555542,203.895752 581.180481,196.525986 
	C582.553345,190.300049 582.997803,190.183960 590.176331,191.564468 
	C589.601746,194.863037 589.023865,198.180283 588.391602,201.809525 
	C591.011169,201.809525 593.802124,201.261795 596.263245,201.929688 
	C600.656982,203.122070 602.767883,206.684311 602.100952,211.065750 
	C601.190186,217.048752 599.608459,222.929626 598.218567,229.279022 
z"/>
<path fill="#F5F6F7" opacity="1.000000" stroke="none" 
	d="
M264.329163,202.903061 
	C267.417664,199.872772 271.055817,200.701157 273.571533,202.938995 
	C275.504425,204.658401 277.194092,208.090103 276.942535,210.550858 
	C276.246613,217.359772 274.478027,224.059052 273.122131,230.858521 
	C270.590057,230.858521 268.504272,230.858521 265.580597,230.858521 
	C266.527252,225.023468 267.653412,219.594498 268.159973,214.108307 
	C268.328613,212.281509 266.909058,210.308090 266.215576,208.401688 
	C264.517181,209.768051 261.873932,210.827591 261.310547,212.562531 
	C260.003693,216.586899 259.790100,220.954834 258.971741,225.151978 
	C257.718475,231.579529 257.207672,231.848633 249.773010,230.486084 
	C251.225952,222.805954 252.639175,215.111862 254.151703,207.437378 
	C254.880783,203.738037 255.765396,200.068100 256.635529,196.398102 
	C258.056122,190.406204 258.075439,190.410782 265.052643,191.433578 
	C264.682587,194.930984 264.308502,198.466599 264.004883,202.215302 
	C263.939575,202.338516 263.803833,202.248627 263.668060,202.158737 
	C263.888428,202.406845 264.108795,202.654953 264.329163,202.903061 
z"/>
<path fill="#F5F6F7" opacity="1.000000" stroke="none" 
	d="
M335.453583,226.568848 
	C334.344147,231.519028 333.991547,231.682114 326.769684,230.568481 
	C328.275940,223.082825 329.787964,215.616318 331.277710,208.145340 
	C332.046539,204.289658 333.232849,200.447433 333.414886,196.560944 
	C333.683746,190.821533 336.738464,190.115356 342.355957,191.409866 
	C341.294159,197.089676 340.216125,202.856400 338.969971,209.522232 
	C345.243317,207.107849 348.377289,198.264526 356.781158,202.736679 
	C354.436371,205.163727 352.219177,207.996338 349.476715,210.164566 
	C345.853760,213.028900 345.893982,215.846375 347.985962,219.582642 
	C349.865662,222.939789 351.138000,226.636993 352.688171,230.207047 
	C341.584717,234.462021 343.064667,224.357437 338.697113,219.088196 
	C337.483887,221.854767 336.536194,224.015808 335.453583,226.568848 
z"/>
<path fill="#F5F6F7" opacity="1.000000" stroke="none" 
	d="
M528.022705,226.718658 
	C524.408081,215.765900 528.428345,205.317871 536.975708,201.928909 
	C541.363098,200.189346 545.343384,201.214493 548.497986,203.974747 
	C551.548889,206.644196 552.989929,210.482773 551.795715,214.792343 
	C551.445618,216.055801 551.144287,217.332779 550.689331,219.119324 
	C545.406189,219.119324 539.992981,219.119324 534.596985,219.119324 
	C534.533875,224.630951 537.493103,225.336731 545.222595,222.032166 
	C546.405334,223.483765 547.629822,224.986679 548.842590,226.475113 
	C543.277283,232.680710 534.370300,232.873444 528.022705,226.718658 
M537.588318,209.057724 
	C536.990784,210.166702 536.393311,211.275665 535.673035,212.612503 
	C538.914551,212.612503 541.313538,212.612503 543.804749,212.612503 
	C544.248474,207.493652 541.547546,207.555237 537.588318,209.057724 
z"/>
<path fill="#F5F6F7" opacity="1.000000" stroke="none" 
	d="
M631.158936,207.297607 
	C631.530334,209.308899 632.057190,210.913879 632.088989,212.528625 
	C632.205383,218.437332 631.459106,219.145569 625.729431,219.167450 
	C622.402710,219.180161 619.075928,219.196213 615.749390,219.233032 
	C615.433472,219.236526 615.119202,219.399353 614.805664,219.493408 
	C614.118164,224.644485 617.103394,225.382355 625.623535,221.922501 
	C626.653137,223.416046 627.734985,224.985306 628.794312,226.521942 
	C623.048889,232.681503 612.909790,233.319351 608.766418,227.043594 
	C606.769165,224.018539 606.489380,219.096832 607.071533,215.284317 
	C608.442749,206.303711 615.924683,198.792313 625.056213,202.063705 
	C627.349304,202.885239 629.091736,205.243668 631.158936,207.297607 
M616.047363,211.016281 
	C618.440735,211.905731 620.834167,212.795181 623.227539,213.684631 
	C623.589661,213.159439 623.951721,212.634232 624.313843,212.109039 
	C623.680298,210.848801 622.958923,208.482285 622.428833,208.524384 
	C620.392456,208.686035 618.417358,209.619720 616.047363,211.016281 
z"/>
<path fill="#F5F6F7" opacity="1.000000" stroke="none" 
	d="
M384.915894,201.940582 
	C386.856720,201.928909 388.367950,202.033508 389.811096,201.768005 
	C396.085846,200.613678 400.627686,203.944702 399.946320,210.169571 
	C399.184692,217.127838 397.412842,223.975540 396.105713,230.741623 
	C393.228546,230.741623 390.997162,230.741623 388.188324,230.741623 
	C389.239380,224.987106 390.421722,219.739639 391.048248,214.426651 
	C391.271393,212.534241 390.146210,210.482864 389.636475,208.504044 
	C387.806610,210.038239 385.095612,211.228912 384.334961,213.179947 
	C382.865204,216.949799 382.046967,221.118713 381.777374,225.176605 
	C381.394196,230.944412 378.536926,232.156143 372.783844,230.585876 
	C374.523621,221.265213 376.279175,211.860214 378.140869,201.886566 
	C380.222748,201.886566 382.338867,201.886566 384.915894,201.940582 
z"/>
<path fill="#F5F6F7" opacity="1.000000" stroke="none" 
	d="
M304.959534,201.873856 
	C308.399017,201.633545 311.430481,201.545502 314.413208,201.117523 
	C318.473541,200.534882 323.134460,203.326935 322.887299,207.470551 
	C322.449158,214.815582 321.269012,222.167465 319.631714,229.341263 
	C319.347595,230.586105 315.281616,230.967758 311.392365,232.276382 
	C312.536835,225.890289 313.397583,221.021759 314.294983,216.159988 
	C314.412537,215.523087 315.034607,214.824020 314.880402,214.319641 
	C314.275482,212.341232 313.453217,210.429291 312.711670,208.492661 
	C311.139435,209.818008 308.669922,210.864792 308.156372,212.518860 
	C306.318481,218.438446 305.143463,224.563812 303.668976,230.818146 
	C301.216278,230.818146 298.660339,230.818146 296.083069,230.818146 
	C297.732361,221.808792 299.216949,213.105850 301.044495,204.475525 
	C301.270050,203.410324 303.323456,202.732162 304.959534,201.873856 
z"/>
<path fill="#F5F6F7" opacity="1.000000" stroke="none" 
	d="
M466.997040,220.082962 
	C467.678009,216.963852 468.258820,214.243118 468.932404,211.545547 
	C470.800842,204.063141 479.103851,199.412186 486.103485,201.955643 
	C490.084473,203.402206 492.716400,206.187653 492.089478,210.552460 
	C491.398956,215.360199 490.486206,220.261566 488.734833,224.757767 
	C486.802948,229.717316 480.955505,232.064514 475.495148,231.089798 
	C470.170654,230.139343 468.284760,227.803360 466.997040,220.082962 
M483.879242,211.915421 
	C483.033020,210.721893 482.393127,208.920029 481.271149,208.539490 
	C480.465302,208.266174 478.482941,209.634521 477.958954,210.720810 
	C476.693024,213.345398 475.573181,216.181229 475.198975,219.037323 
	C475.004364,220.522934 476.515198,222.231995 477.255646,223.840118 
	C478.993439,222.881958 481.568176,222.332031 482.279663,220.873306 
	C483.448730,218.476425 483.409790,215.490356 483.879242,211.915421 
z"/>
<path fill="#F3F5F6" opacity="1.000000" stroke="none" 
	d="
M464.101685,208.091980 
	C462.514709,208.841141 461.115479,209.221542 459.370972,209.695816 
	C458.538727,214.015564 457.678406,218.481171 457.081879,221.577576 
	C459.002899,223.897522 460.958099,225.216919 460.924286,226.483185 
	C460.882568,228.045868 458.869263,230.994659 458.259125,230.859344 
	C455.303680,230.203857 450.733887,229.319443 450.086121,227.390976 
	C448.883423,223.810318 449.844940,219.432648 450.223206,215.416763 
	C450.458649,212.917175 451.988556,210.598221 449.344086,208.191330 
	C448.699707,207.604889 449.951202,204.619293 450.708801,202.903641 
	C451.376190,201.392151 453.256348,200.186813 453.412994,198.719452 
	C454.040680,192.839462 457.747345,193.672211 462.078491,194.330811 
	C461.766754,196.768600 461.483795,198.981247 461.179291,201.362198 
	C464.650482,202.343018 466.666901,204.043701 464.101685,208.091980 
z"/>
<path fill="#F4F5F6" opacity="1.000000" stroke="none" 
	d="
M561.651001,200.401215 
	C562.427063,193.594940 562.833923,193.306290 570.048645,194.596725 
	C569.947205,196.767365 569.842834,199.001709 569.793091,200.066467 
	C571.228577,202.140198 572.692566,203.442596 573.088196,205.013977 
	C573.707214,207.472443 572.526062,209.051498 569.668640,209.275055 
	C568.822937,209.341232 567.564453,210.481995 567.362793,211.335419 
	C566.464783,215.134277 565.881470,219.007492 565.112305,223.252182 
	C569.603271,223.273758 570.359009,226.553238 568.747803,229.089569 
	C567.866211,230.477280 563.788330,230.840347 561.605469,230.175629 
	C557.664307,228.975479 556.277405,225.578476 557.127625,221.434067 
	C557.752197,218.389542 558.428528,215.346497 558.829651,212.269928 
	C558.978638,211.127594 558.557251,209.837494 558.141602,208.708389 
	C556.765320,204.969315 558.406677,202.587616 561.651001,200.401215 
z"/>
<path fill="#F4F5F6" opacity="1.000000" stroke="none" 
	d="
M232.187042,222.243591 
	C233.090469,218.503494 233.858292,215.141647 234.447006,211.748718 
	C234.589203,210.929245 234.232941,209.974625 233.944107,209.138000 
	C233.018661,206.457336 230.953690,203.613037 235.603867,202.162399 
	C236.217911,201.970856 236.638474,200.609787 236.836243,199.720856 
	C238.279739,193.232910 238.357971,193.162308 245.299362,194.675949 
	C245.872284,197.428452 243.238724,201.580109 248.156036,203.054749 
	C248.277985,203.091324 247.495956,208.372742 246.834625,208.444763 
	C240.393768,209.146118 242.950043,214.886154 241.167282,218.066727 
	C240.421097,219.397980 240.601410,221.248550 240.297821,223.282944 
	C244.652664,223.393677 245.833054,226.367889 243.667770,229.275497 
	C242.628098,230.671555 238.090118,231.116959 236.471252,230.021072 
	C234.299225,228.550705 233.419952,225.170654 232.187042,222.243591 
z"/>
<path fill="#F3F5F6" opacity="1.000000" stroke="none" 
	d="
M659.537598,206.215668 
	C656.975708,207.342453 654.554443,207.891403 652.486633,209.063705 
	C650.282349,210.313400 647.555054,211.755081 646.594788,213.826324 
	C645.114014,217.020111 644.726074,220.793259 644.263306,224.370956 
	C643.337585,231.526535 643.045349,231.830154 635.116211,230.612350 
	C636.733948,222.103943 638.311829,213.598679 640.013428,205.118256 
	C640.224182,204.068146 641.054443,202.327454 641.662598,202.299072 
	C647.255859,202.038132 652.867493,201.984543 658.460083,202.209961 
	C658.966858,202.230408 659.378113,204.621811 659.537598,206.215668 
z"/>
<path fill="#F5F6F7" opacity="1.000000" stroke="none" 
	d="
M283.958679,213.072968 
	C284.735809,209.158783 285.504028,205.676346 286.301270,202.062424 
	C288.854004,202.062424 291.124542,202.062424 294.038574,202.062424 
	C292.294800,211.056381 290.906311,219.871979 288.641449,228.456345 
	C288.206451,230.105011 284.328461,230.845306 282.038849,232.004669 
	C281.542450,231.508865 281.046051,231.013077 280.549652,230.517273 
	C281.683044,224.846420 282.816437,219.175583 283.958679,213.072968 
z"/>
<path fill="#F5F6F7" opacity="1.000000" stroke="none" 
	d="
M368.161743,216.786591 
	C366.995911,221.651703 365.875763,226.083908 364.679749,230.816284 
	C362.307526,230.816284 359.898834,230.816284 357.166687,230.816284 
	C358.791351,222.000168 360.066437,213.282898 362.234406,204.793640 
	C362.682220,203.040100 366.454041,202.135437 368.693848,200.839539 
	C369.203430,201.276154 369.713013,201.712753 370.222565,202.149368 
	C369.550873,206.884140 368.879181,211.618927 368.161743,216.786591 
z"/>
<path fill="#EBEDF0" opacity="1.000000" stroke="none" 
	d="
M365.204376,198.015167 
	C362.905273,192.075867 363.803864,191.379791 372.127655,192.228394 
	C372.084320,198.141403 372.084320,198.141403 365.204376,198.015167 
z"/>
<path fill="#EBEDF0" opacity="1.000000" stroke="none" 
	d="
M293.664856,198.098022 
	C291.287476,198.144424 289.351776,198.144424 287.435791,198.144424 
	C287.220093,191.723297 288.147552,191.126160 296.443298,192.571976 
	C295.622284,194.497314 294.864441,196.274475 293.664856,198.098022 
z"/>
<path fill="#162F47" opacity="1.000000" stroke="none" 
	d="
M297.044739,72.137558 
	C314.740082,74.528084 315.801056,85.486359 314.838837,97.811188 
	C314.750519,98.942612 312.599365,100.799377 311.380920,100.819809 
	C298.405457,101.037453 285.424835,100.938896 272.445709,100.958504 
	C269.076630,100.963593 269.193939,99.239288 269.997467,96.722954 
	C274.230865,83.466316 281.910156,74.013054 297.044739,72.137558 
z"/>
<path fill="#294056" opacity="1.000000" stroke="none" 
	d="
M413.029999,218.800888 
	C414.220459,215.282501 414.944885,211.869614 416.747009,209.178360 
	C418.211548,206.991226 420.885956,208.065414 420.806824,210.524994 
	C420.695770,213.978973 419.636414,217.472580 418.493164,220.780045 
	C418.155121,221.757965 416.166351,222.165268 414.934052,222.834076 
	C414.299286,221.628830 413.664520,220.423569 413.029999,218.800888 
z"/>
<path fill="#294056" opacity="1.000000" stroke="none" 
	d="
M505.140503,217.141388 
	C505.145233,216.558990 505.115051,216.384476 505.156342,216.228973 
	C506.020569,212.975830 505.966827,209.013138 510.395172,208.294998 
	C511.082062,208.183609 512.538147,209.683289 512.805908,210.665039 
	C513.928040,214.779175 511.632660,221.752426 508.671722,222.534012 
	C503.838837,223.809723 505.580780,219.769638 505.140503,217.141388 
z"/>
<path fill="#122B44" opacity="1.000000" stroke="none" 
	d="
M264.317780,202.846909 
	C264.108795,202.654953 263.888428,202.406845 263.668060,202.158737 
	C263.803833,202.248627 263.939575,202.338516 264.211426,202.666779 
	C264.347534,202.905136 264.306396,202.790756 264.317780,202.846909 
z"/>
<path fill="#384D61" opacity="1.000000" stroke="none" 
	d="
M537.903687,208.802551 
	C541.547546,207.555237 544.248474,207.493652 543.804749,212.612503 
	C541.313538,212.612503 538.914551,212.612503 535.673035,212.612503 
	C536.393311,211.275665 536.990784,210.166702 537.903687,208.802551 
z"/>
<path fill="#384D61" opacity="1.000000" stroke="none" 
	d="
M616.233398,210.640854 
	C618.417358,209.619720 620.392456,208.686035 622.428833,208.524384 
	C622.958923,208.482285 623.680298,210.848801 624.313843,212.109039 
	C623.951721,212.634232 623.589661,213.159439 623.227539,213.684631 
	C620.834167,212.795181 618.440735,211.905731 616.233398,210.640854 
z"/>
<path fill="#294056" opacity="1.000000" stroke="none" 
	d="
M483.879700,212.334076 
	C483.409790,215.490356 483.448730,218.476425 482.279663,220.873306 
	C481.568176,222.332031 478.993439,222.881958 477.255615,223.840118 
	C476.515198,222.231995 475.004364,220.522934 475.198975,219.037323 
	C475.573181,216.181229 476.693024,213.345398 477.958954,210.720810 
	C478.482941,209.634521 480.465302,208.266174 481.271149,208.539490 
	C482.393127,208.920029 483.033020,210.721893 483.879700,212.334076 
z"/>
</svg>